<svg width="264" height="241" viewBox="0 0 264 241" fill="none" xmlns="http://www.w3.org/2000/svg">
<path d="M0 3.47434C6.96774 -0.292489 13.9355 0.460876 20.9032 1.21424C27.871 1.96761 34.8387 3.47434 41.0323 5.73443C44.129 6.4878 47.2258 7.99453 50.3226 9.50126C53.4194 11.008 56.5161 12.5147 58.8387 14.0214C61.9355 14.7748 65.0323 14.7748 68.9032 14.7748H78.9677C82.8387 15.5282 86.7097 17.7883 90.5807 20.0484C93.6774 22.3085 96.7742 26.0753 98.3226 29.8421C101.419 37.3758 101.419 45.6628 102.194 52.4431L101.419 50.9363L104.516 56.9633L98.3226 55.4565C109.935 46.4161 121.548 38.8825 134.71 32.1022C147.871 25.3219 161.032 20.8017 175.742 17.7883C182.71 16.2815 190.452 15.5282 198.194 16.2815C202.065 16.2815 205.935 17.7883 209.032 18.5416C210.581 19.295 212.129 19.295 213.677 19.295C215.226 19.295 216 19.295 218.323 18.5416C226.065 17.7883 233.032 17.7883 240 18.5416C243.871 18.5416 246.968 19.295 250.839 20.0484C252.387 20.0484 254.71 20.8017 256.258 20.8017C257.032 20.8017 257.806 21.5551 259.355 21.5551C260.129 21.5551 260.129 22.3085 260.903 23.0618C263.226 25.3219 263.226 27.582 262.452 28.3354V27.582C262.452 27.582 262.452 27.582 263.226 27.582C264 27.582 264 29.0887 264 29.8421C263.226 29.8421 263.226 30.5955 263.226 30.5955L262.452 31.3488H261.677L260.903 32.1022L257.806 34.3623L250.839 38.1291L251.613 35.869C251.613 36.6224 252.387 36.6224 250.839 35.869C250.839 35.869 251.613 35.1157 252.387 36.6224C253.161 38.1291 252.387 38.1291 252.387 38.1291L251.613 38.8825H250.839L250.065 39.6359L246.194 41.896C243.097 43.4027 240.774 44.156 239.226 46.4161C236.903 47.9229 234.581 50.183 232.258 51.6897C230.71 52.4431 229.935 53.1964 228.387 53.9498C227.613 53.9498 226.839 54.7032 226.065 54.7032C225.29 54.7032 223.742 55.4565 222.194 53.9498L224.516 52.4431C225.29 53.1964 225.29 55.4565 224.516 56.2099C223.742 56.9633 222.968 57.7166 222.194 58.47C220.645 59.9767 219.097 60.7301 217.548 61.4834C216 62.2368 214.452 62.9902 212.903 63.7435C212.129 63.7435 211.355 64.4969 210.581 64.4969C209.806 64.4969 209.806 64.4969 209.032 64.4969H208.258C208.258 64.4969 208.258 64.4969 207.484 64.4969C206.71 64.4969 206.71 63.7435 205.935 63.7435L198.968 55.4565L208.258 61.4834C209.806 62.2368 209.806 64.4969 209.032 65.2503C209.806 66.0036 209.032 66.757 209.032 67.5104C207.484 69.0171 206.71 69.7705 205.161 70.5238C203.613 71.2772 202.065 72.0306 200.516 72.7839C199.742 72.7839 198.968 73.5373 198.194 73.5373C197.419 73.5373 195.871 73.5373 195.097 72.0306L198.194 71.2772C198.194 74.2906 195.871 77.3041 192.774 78.8108C189.677 80.3176 186.581 81.0709 184.258 81.0709L185.806 78.0575C186.581 78.8108 187.355 81.0709 186.581 82.5777C185.806 84.0844 185.032 84.8378 184.258 85.5911C182.71 87.0979 180.387 87.0979 178.839 87.8512C175.742 89.3579 172.645 90.8647 170.323 93.8781C164.903 99.1517 159.484 104.425 152.516 108.945C149.419 111.206 146.323 112.712 144.774 115.726C143.226 117.986 141.677 121.753 141.677 124.766C141.677 127.78 142.452 131.546 142.452 135.313C142.452 139.08 143.226 142.847 143.226 146.614V157.914C143.226 159.421 143.226 161.681 143.226 163.188V165.448C143.226 166.201 144 167.708 144 168.461C144.774 173.735 144 174.488 146.323 178.255L150.194 188.802C152.516 195.582 154.839 203.116 157.161 209.896C159.484 217.43 161.806 224.21 161.806 233.251V237.017L157.935 237.771C156.387 237.771 155.613 237.771 154.065 237.771C152.516 237.771 150.968 236.264 149.419 234.757C149.419 234.004 147.871 232.497 150.194 235.511C150.968 236.264 151.742 236.264 152.516 236.264C153.29 236.264 154.839 236.264 155.613 235.511C156.387 234.757 157.161 234.004 157.161 234.004C157.161 233.251 157.161 233.251 157.161 233.251V234.004L156.387 238.524H152.516C149.419 238.524 147.871 237.018 146.323 235.511C144.774 234.004 144 232.497 144 230.991C144 230.991 143.226 230.237 144.774 231.744C144.774 231.744 144.774 231.744 145.548 232.497C146.323 232.497 147.097 233.251 147.871 233.251C149.419 233.251 150.968 232.497 150.968 232.497C151.742 231.744 151.742 231.744 151.742 231.744C151.742 231.744 151.742 232.497 150.968 233.251L149.419 240.031L143.226 236.264L139.355 233.251C138.581 232.497 137.032 231.744 136.258 230.991C134.71 229.484 132.387 227.224 130.839 224.964C128.516 221.197 126.194 217.43 124.645 213.663C120.774 206.13 117.677 198.596 115.355 190.309C113.032 182.775 110.71 174.488 109.161 166.201V164.694V163.941C109.161 163.188 109.161 162.434 108.387 161.681C107.613 160.174 106.839 158.668 106.065 157.161C103.742 154.147 100.645 149.627 99.0968 145.86L107.613 147.367C106.065 148.874 105.29 149.627 103.742 150.381C102.968 151.134 101.419 151.134 99.871 151.134C98.3226 151.134 96 150.381 95.2258 149.627C93.6774 148.12 93.6774 148.12 92.129 146.614C91.3548 145.107 90.5807 143.6 89.8065 142.847C89.0323 141.34 88.2581 139.833 87.4839 138.327L83.6129 133.806C78.1936 127.026 73.5484 120.246 69.6774 111.959C68.129 108.192 65.8064 104.425 65.0323 99.9051L64.2581 96.1382V93.1248V87.0979L63.4839 62.9902C63.4839 59.9767 61.9355 55.4565 61.1613 51.6897C59.6129 47.9229 58.8387 43.4027 57.2903 39.6359C56.5161 35.869 54.9677 32.1022 53.4194 28.3354C51.871 25.3219 49.5484 22.3085 46.4516 20.0484C40.2581 14.7748 32.5161 11.7614 24.7742 9.50126C20.9032 7.99453 17.0323 7.24116 12.3871 6.4878C8.51613 5.73443 3.87097 4.2277 0 3.47434ZM0.774194 3.47434C5.41936 4.2277 8.51613 3.47434 13.1613 4.98107C17.0323 5.73443 21.6774 6.4878 25.5484 7.24116C34.0645 9.50126 42.5806 11.7614 49.5484 17.0349C53.4194 20.0484 55.7419 23.0618 58.0645 26.8287C60.3871 29.8421 61.9355 34.3623 63.4839 38.1291C64.2581 41.896 65.8065 45.6628 66.5807 50.183C67.3548 53.9498 68.9032 57.7166 69.6774 62.9902C70.4516 71.2772 71.2258 79.5642 72 87.8512L72.7742 93.8781V96.8916L73.5484 98.3983C74.3226 101.412 75.871 105.179 78.1936 108.945C82.0645 115.726 86.7097 122.506 91.3548 128.533L95.2258 133.053C96.7742 135.313 98.3226 136.82 99.0968 139.08C99.871 140.587 99.871 140.587 99.871 140.587L101.419 142.093L99.871 141.34C99.0968 141.34 99.0968 141.34 99.0968 141.34L99.871 140.587L105.29 134.56L108.387 142.093C109.935 145.86 111.484 148.12 113.806 151.134C115.355 153.394 116.903 154.901 117.677 157.161C118.452 158.668 118.452 159.421 119.226 160.928C119.226 161.681 119.226 162.434 119.226 163.188V164.694C120 172.228 122.323 179.762 124.645 187.295C126.968 194.829 130.065 202.363 133.935 209.143C135.484 212.91 137.806 215.923 139.355 219.69C140.129 221.197 140.903 221.95 142.452 223.457C143.226 224.21 144 224.21 144.774 224.964L145.548 225.717L147.097 227.224L139.355 229.484C139.355 227.977 140.129 227.224 140.903 225.717C140.903 225.717 140.903 224.964 141.677 224.964C141.677 224.964 142.452 224.21 142.452 223.457C142.452 223.457 144.774 221.95 145.548 221.95C146.323 221.95 147.097 221.95 147.871 222.704C148.645 223.457 148.645 223.457 149.419 223.457C150.968 225.717 150.968 226.47 150.968 226.47C150.968 227.224 150.968 227.224 150.968 227.224C150.968 227.224 150.968 227.224 150.194 227.224L145.548 230.991C145.548 230.237 145.548 229.484 146.323 228.73C146.323 228.73 146.323 227.977 147.097 227.224C147.097 227.224 147.871 226.47 148.645 225.717C149.419 224.964 150.968 224.964 152.516 224.964C153.29 224.964 154.065 225.717 154.839 226.47C155.613 227.224 155.613 227.224 156.387 227.977V228.73C156.387 228.73 156.387 229.484 156.387 228.73C155.613 227.977 154.839 227.224 154.839 227.224L150.968 231.744C150.968 225.717 149.419 218.183 147.097 211.403C144.774 204.623 142.452 197.089 140.129 190.309L137.032 179.762L136.258 176.748C136.258 175.995 135.484 174.488 135.484 173.735C135.484 171.475 135.484 169.215 134.71 168.461L133.935 162.434C133.935 160.174 133.935 158.668 133.935 156.407V145.107V133.806C133.935 130.04 133.161 127.026 133.935 122.506C134.71 117.986 136.258 114.219 138.581 111.206C140.903 107.439 145.548 105.179 147.871 103.672C154.065 99.9051 159.484 95.3849 164.903 90.1113C168 87.0978 171.097 84.8378 174.968 83.331C178.839 82.5777 182.71 81.0709 181.161 79.5642L178.839 77.3041H182.71C185.032 77.3041 188.129 76.5507 190.452 75.7974C192.774 75.044 194.323 72.7839 194.323 70.5238L197.419 69.7705C197.419 69.7705 198.194 69.7705 199.742 69.7705C201.29 69.0171 202.065 69.0171 203.613 68.2637C205.161 67.5104 205.936 66.757 206.71 66.0036C207.484 65.2503 207.484 65.2503 207.484 64.4969C207.484 63.7435 207.484 64.4969 207.484 64.4969L209.806 62.2368L209.032 61.4834H209.806C211.355 60.7301 212.129 60.7301 212.903 60.7301C214.452 59.9767 216 59.2234 217.548 59.2234C219.097 58.47 219.871 57.7166 221.419 56.9633C222.968 56.2099 222.968 55.4565 222.968 54.7032L224.516 52.4431C223.742 52.4431 224.516 52.4431 225.29 52.4431C226.065 52.4431 226.839 51.6897 226.839 51.6897C228.387 50.9363 229.161 50.183 230.71 49.4296C233.032 47.9229 235.355 46.4161 237.677 44.1561C240 41.896 243.097 40.3892 245.419 39.6359L249.29 37.3758L250.065 36.6224H250.839C250.839 36.6224 250.065 36.6224 250.065 37.3758C250.065 37.3758 249.29 37.3758 250.065 38.8825C250.839 40.3892 252.387 39.6359 251.613 39.6359C250.065 39.6359 249.29 38.8825 249.29 38.1291C249.29 37.3758 248.516 37.3758 248.516 36.6224L247.742 35.1157L249.29 34.3623C251.613 32.8556 253.161 32.1022 255.484 30.5955L258.581 28.3354L259.355 27.582C259.355 27.582 259.355 27.582 258.581 28.3354C258.581 29.0887 258.581 29.8421 259.355 30.5955C260.129 30.5955 260.129 30.5955 259.355 30.5955C259.355 30.5955 259.355 30.5955 258.581 30.5955L257.806 29.8421C257.806 29.0887 257.032 29.0887 257.032 29.0887C257.032 28.3354 257.032 28.3354 257.032 27.582V26.8287V28.3354C257.032 28.3354 257.032 28.3354 256.258 28.3354C255.484 28.3354 254.71 27.582 253.935 27.582C252.387 27.582 250.839 26.8287 249.29 26.8287C246.194 26.8287 242.323 26.0753 239.226 26.0753C232.258 26.0753 225.29 26.0753 218.323 26.8287C216.774 26.8287 214.452 27.582 212.129 27.582C209.806 27.582 208.258 27.582 205.935 26.8287C202.065 26.0753 199.742 25.3219 195.871 25.3219C188.903 25.3219 182.71 26.0753 175.742 26.8287C162.581 29.8421 149.419 34.3623 137.032 41.1426C124.645 47.1695 112.258 53.9498 101.419 62.9902L97.5484 66.0036L98.3226 60.7301L95.2258 54.7032V53.9498V53.1964C95.2258 45.6628 95.2258 38.8825 92.129 32.8556C89.8064 26.8287 84.3871 23.0618 78.1936 20.8017H78.9677L68.129 20.0484C65.0323 20.0484 61.1613 20.0484 57.2903 18.5416C54.1936 17.0349 51.0968 14.7748 48 13.2681C45.6774 11.7614 42.5806 11.008 39.4839 9.50126C33.2903 6.4878 27.0968 4.98107 20.129 3.47434C17.0323 2.72097 13.9355 2.72097 10.8387 2.72097C6.96774 1.96761 3.87097 3.47434 0.774194 3.47434Z" fill="black" fill-opacity="0.03"/>
</svg>
