<svg width="125" height="45" viewBox="0 0 125 45" fill="none" xmlns="http://www.w3.org/2000/svg">
<g clip-path="url(#clip0_670_2429)">
<path d="M56.0296 17.5159H49.9147L47.2128 22.0729H46.6439L53.4699 10.1108H53.6121L60.5802 22.0729H58.5893L56.0296 17.5159ZM52.901 12.5317L50.3413 16.9463H55.8874L53.3277 12.5317H52.901Z" fill="white"/>
<path d="M62.0023 22.0729V10.1108H67.1218C67.975 10.1108 68.8283 10.2532 69.6815 10.3957C70.5347 10.6805 71.388 10.9653 71.9568 11.5349C72.6678 11.9621 73.2367 12.6741 73.6633 13.3862C74.0899 14.0982 74.3743 15.095 74.3743 16.0919C74.3743 17.0887 74.0899 17.9431 73.6633 18.7975C73.2367 19.5096 72.6678 20.2216 71.9568 20.6488C71.2458 21.076 70.5347 21.5032 69.6815 21.7881C68.8283 22.0729 67.975 22.2153 67.1218 22.2153H62.0023V22.0729ZM63.7088 10.5381V21.6456H67.1218C67.975 21.6456 68.8283 21.5032 69.5393 21.2184C70.2503 20.9336 70.8192 20.5064 71.2458 20.0792C71.6724 19.652 72.099 18.94 72.2412 18.3703C72.5256 17.6583 72.6678 16.9463 72.6678 16.2343C72.6678 15.5222 72.5256 14.6678 72.2412 14.0982C71.9568 13.3862 71.6724 12.8165 71.1036 12.2469C70.677 11.6773 70.1081 11.3925 69.3971 10.9653C68.6861 10.6805 67.975 10.5381 66.9796 10.5381H63.7088Z" fill="white"/>
<path d="M84.8977 13.5286L84.6133 14.0982H78.2139V21.6457H87.5996L87.3152 22.2153H76.5074V10.1108H86.8886L86.6042 10.6805H78.2139V13.5286H84.8977Z" fill="white"/>
<path d="M94.5677 14.0982H90.8703V22.0729H89.1638V10.1108H97.554C97.9807 10.1108 98.2651 10.1108 98.5495 10.2532C98.8339 10.3956 99.1183 10.3957 99.4027 10.5381C99.6871 10.6805 99.8293 10.9653 99.9716 11.1077C100.114 11.3925 100.114 11.6773 100.114 12.1045C100.114 12.5317 100.114 12.8165 99.9716 13.1013C99.8293 13.3862 99.6871 13.5286 99.4027 13.671C99.1183 13.8134 98.8339 13.9558 98.5495 13.9558C98.2651 13.9558 97.8384 14.0982 97.554 14.0982H96.4164L101.109 22.0729H99.1183L94.5677 14.0982ZM90.8703 13.5286H97.1274C97.4118 13.5286 97.554 13.5286 97.8385 13.5286C97.9807 13.5286 98.1229 13.3862 98.2651 13.3862C98.4073 13.2438 98.4073 13.1013 98.4073 12.9589C98.4073 12.8165 98.4073 12.5317 98.4073 12.2469C98.4073 11.9621 98.4073 11.6773 98.4073 11.5349C98.4073 11.3925 98.2651 11.1077 98.2651 11.1077C98.1229 10.9653 98.1229 10.9653 97.8385 10.8229C97.554 10.6805 97.4118 10.6805 97.1274 10.6805H90.8703V13.5286Z" fill="white"/>
<path d="M111.064 10.1108H111.633L107.509 17.3735V22.0729H105.802V17.5159L101.536 10.1108H103.527L107.366 16.6615L111.064 10.1108Z" fill="white"/>
<path d="M124.289 20.2216H124.431V10.1108H125V22.0729H123.578L113.908 10.6805H113.339V22.0729H112.77V10.1108H115.614L124.289 20.2216Z" fill="white"/>
<path d="M56.0296 34.6045H49.9147L47.2128 39.1615H46.6439L53.4699 27.1995H53.6121L60.5802 39.1615H58.5893L56.0296 34.6045ZM52.901 29.6203L50.3413 34.0349H55.8874L53.3277 29.6203H52.901Z" fill="white"/>
<path d="M67.9749 31.1868H64.2775V39.1615H62.571V27.1995H70.9613C71.3879 27.1995 71.6723 27.1995 71.9567 27.3419C72.2411 27.4843 72.5255 27.4843 72.81 27.6267C73.0944 27.7691 73.2366 28.0539 73.3788 28.1963C73.521 28.4811 73.521 28.7659 73.521 29.1931C73.521 29.6203 73.521 29.9052 73.3788 30.19C73.2366 30.4748 73.0944 30.6172 72.81 30.7596C72.5255 30.902 72.2411 31.0444 71.9567 31.0444C71.6723 31.0444 71.2457 31.1868 70.9613 31.1868H69.8236L74.5164 39.1615H72.5255L67.9749 31.1868ZM64.2775 30.6172H70.5346C70.8191 30.6172 70.9613 30.6172 71.2457 30.6172C71.3879 30.6172 71.5301 30.4748 71.6723 30.4748C71.8145 30.3324 71.8145 30.19 71.8145 30.0476C71.8145 29.9052 71.8145 29.6203 71.8145 29.3355C71.8145 29.0507 71.8145 28.7659 71.8145 28.6235C71.8145 28.4811 71.6723 28.1963 71.6723 28.1963C71.5301 28.0539 71.5301 28.0539 71.2457 27.9115C70.9613 27.7691 70.8191 27.7691 70.5346 27.7691H64.2775V30.6172Z" fill="white"/>
<path d="M85.893 27.7691H81.058V39.1615H79.4937V27.7691H74.3743L74.6587 27.1995H86.1775L85.893 27.7691Z" fill="white"/>
<path d="M0 0.569612C1.27986 -0.142414 2.55973 -8.77865e-06 3.83959 0.142396C5.11945 0.284801 6.39932 0.569611 7.53697 0.996827C8.1058 1.13923 8.67463 1.42404 9.24346 1.70885C9.81229 1.99366 10.3811 2.27847 10.8077 2.56328C11.3766 2.70569 11.9454 2.70569 12.6564 2.70569H14.5051C15.2162 2.84809 15.9272 3.27531 16.6382 3.70252C17.2071 4.12974 17.7759 4.84176 18.0603 5.55379C18.6291 6.97784 18.6291 8.5443 18.7713 9.82594L18.6291 9.54113L19.198 10.6804L18.0603 10.3956C20.1934 8.6867 22.3265 7.26265 24.744 5.981C27.1615 4.69936 29.5791 3.84493 32.281 3.27531C33.5609 2.9905 34.9829 2.84809 36.405 2.9905C37.116 2.9905 37.8271 3.27531 38.3959 3.41771C38.6803 3.56012 38.9647 3.56012 39.2491 3.56012C39.5336 3.56012 39.6758 3.56012 40.1024 3.41771C41.5245 3.27531 42.8043 3.27531 44.0842 3.41771C44.7952 3.41771 45.3641 3.56012 46.0751 3.70252C46.3595 3.70252 46.7861 3.84493 47.0705 3.84493C47.2127 3.84493 47.3549 3.98733 47.6394 3.98733C47.7816 3.98733 47.7816 4.12974 47.9238 4.27214C48.3504 4.69936 48.3504 5.12657 48.2082 5.26898V5.12657C48.2082 5.12657 48.2082 5.12657 48.3504 5.12657C48.4926 5.12657 48.4926 5.41138 48.4926 5.55379C48.3504 5.55379 48.3504 5.69619 48.3504 5.69619L48.2082 5.8386H48.066L47.9238 5.981L47.3549 6.40822L46.0751 7.12024L46.2173 6.69303C46.2173 6.83543 46.3595 6.83543 46.0751 6.69303C46.0751 6.69303 46.2173 6.55062 46.3595 6.83543C46.5017 7.12025 46.3595 7.12024 46.3595 7.12024L46.2173 7.26265H46.0751L45.9329 7.40506L45.2218 7.83227C44.653 8.11708 44.2264 8.25949 43.942 8.6867C43.5154 8.97151 43.0887 9.39873 42.6621 9.68354C42.3777 9.82594 42.2355 9.96835 41.9511 10.1108C41.8089 10.1108 41.6667 10.2532 41.5245 10.2532C41.3823 10.2532 41.0978 10.3956 40.8134 10.1108L41.24 9.82594C41.3823 9.96835 41.3823 10.3956 41.24 10.538C41.0978 10.6804 40.9556 10.8228 40.8134 10.9652C40.529 11.25 40.2446 11.3924 39.9602 11.5348C39.6758 11.6772 39.3914 11.8196 39.1069 11.962C38.9647 11.962 38.8225 12.1044 38.6803 12.1044C38.5381 12.1044 38.5381 12.1044 38.3959 12.1044H38.2537C38.2537 12.1044 38.2537 12.1044 38.1115 12.1044C37.9693 12.1044 37.9693 11.962 37.8271 11.962L36.5472 10.3956L38.2537 11.5348C38.5381 11.6772 38.5381 12.1044 38.3959 12.2468C38.5381 12.3892 38.3959 12.5316 38.3959 12.674C38.1115 12.9589 37.9693 13.1013 37.6849 13.2437C37.4005 13.3861 37.116 13.5285 36.8316 13.6709C36.6894 13.6709 36.5472 13.8133 36.405 13.8133C36.2628 13.8133 35.9784 13.8133 35.8362 13.5285L36.405 13.3861C36.405 13.9557 35.9784 14.5253 35.4096 14.8101C34.8407 15.0949 34.2719 15.2373 33.8453 15.2373L34.1297 14.6677C34.2719 14.8101 34.4141 15.2373 34.2719 15.5221C34.1297 15.807 33.9875 15.9494 33.8453 16.0918C33.5609 16.3766 33.1342 16.3766 32.8498 16.519C32.281 16.8038 31.7122 17.0886 31.2856 17.6582C30.2901 18.6551 29.2947 19.6519 28.0148 20.5063C27.446 20.9335 26.8771 21.2183 26.5927 21.788C26.3083 22.2152 26.0239 22.9272 26.0239 23.4968C26.0239 24.0664 26.1661 24.7785 26.1661 25.4905C26.1661 26.2025 26.3083 26.9145 26.3083 27.6266V29.7626C26.3083 30.0475 26.3083 30.4747 26.3083 30.7595V31.1867C26.3083 31.3291 26.4505 31.6139 26.4505 31.7563C26.5927 32.7532 26.4505 32.8956 26.8771 33.6076L27.5882 35.6013C28.0148 36.8829 28.4414 38.307 28.868 39.5886C29.2947 41.0126 29.7213 42.2943 29.7213 44.0032V44.7152L29.0102 44.8576C28.7258 44.8576 28.5836 44.8576 28.2992 44.8576C28.0148 44.8576 27.7304 44.5728 27.446 44.288C27.446 44.1456 27.1615 43.8608 27.5882 44.4304C27.7304 44.5728 27.8726 44.5728 28.0148 44.5728C28.157 44.5728 28.4414 44.5728 28.5836 44.4304C28.7258 44.288 28.868 44.1456 28.868 44.1456C28.868 44.0032 28.868 44.0032 28.868 44.0032V44.1456L28.7258 45H28.0148C27.446 45 27.1615 44.7152 26.8771 44.4304C26.5927 44.1456 26.4505 43.8608 26.4505 43.5759C26.4505 43.5759 26.3083 43.4335 26.5927 43.7183C26.5927 43.7183 26.5927 43.7183 26.7349 43.8608C26.8771 43.8608 27.0193 44.0032 27.1615 44.0032C27.446 44.0032 27.7304 43.8608 27.7304 43.8608C27.8726 43.7183 27.8726 43.7183 27.8726 43.7183C27.8726 43.7183 27.8726 43.8608 27.7304 44.0032L27.446 45.2848L26.3083 44.5728L25.5973 44.0032C25.4551 43.8608 25.1707 43.7183 25.0284 43.5759C24.744 43.2911 24.3174 42.8639 24.033 42.4367C23.6064 41.7247 23.1798 41.0126 22.8953 40.3006C22.1843 38.8766 21.6155 37.4525 21.1889 35.8861C20.7622 34.462 20.3356 32.8956 20.0512 31.3291V31.0443V30.9019C20.0512 30.7595 20.0512 30.6171 19.909 30.4747C19.7668 30.1899 19.6246 29.9051 19.4824 29.6202C19.0557 29.0506 18.4869 28.1962 18.2025 27.4842L19.7668 27.769C19.4824 28.0538 19.3402 28.1962 19.0557 28.3386C18.9135 28.481 18.6291 28.481 18.3447 28.481C18.0603 28.481 17.6337 28.3386 17.4915 28.1962C17.2071 27.9114 17.2071 27.9114 16.9226 27.6266C16.7804 27.3418 16.6382 27.057 16.496 26.9145C16.3538 26.6297 16.2116 26.3449 16.0694 26.0601L15.3584 25.2057C14.3629 23.924 13.5097 22.6424 12.7986 21.0759C12.5142 20.3639 12.0876 19.6519 11.9454 18.7975L11.8032 18.0854V17.5158V16.3766L11.661 11.8196C11.661 11.25 11.3766 10.3956 11.2344 9.68354C10.9499 8.97151 10.8077 8.11708 10.5233 7.40506C10.3811 6.69303 10.0967 5.981 9.81229 5.26898C9.52787 4.69936 9.10125 4.12974 8.53242 3.70252C7.39477 2.70569 5.9727 2.13607 4.55063 1.70885C3.83959 1.42404 3.12856 1.28164 2.27531 1.13923C1.56428 0.996827 0.711035 0.712017 0 0.569612ZM0.142207 0.569612C0.995449 0.712017 1.56428 0.569611 2.41752 0.854422C3.12856 0.996827 3.9818 1.13923 4.69283 1.28164C6.25711 1.70885 7.82139 2.13607 9.10125 3.1329C9.81229 3.70252 10.2389 4.27214 10.6655 4.98417C11.0922 5.55379 11.3766 6.40822 11.661 7.12024C11.8032 7.83227 12.0876 8.5443 12.2298 9.39873C12.372 10.1108 12.6564 10.8228 12.7986 11.8196C12.9408 13.3861 13.083 14.9525 13.2253 16.519L13.3675 17.6582V18.2278L13.5097 18.5126C13.6519 19.0823 13.9363 19.7943 14.3629 20.5063C15.0739 21.788 15.9272 23.0696 16.7804 24.2089L17.4915 25.0633C17.7759 25.4905 18.0603 25.7753 18.2025 26.2025C18.3447 26.4873 18.3447 26.4873 18.3447 26.4873L18.6291 26.7721L18.3447 26.6297C18.2025 26.6297 18.2025 26.6297 18.2025 26.6297L18.3447 26.4873L19.3402 25.3481L19.909 26.7721C20.1934 27.4842 20.4778 27.9114 20.9044 28.481C21.1889 28.9082 21.4733 29.193 21.6155 29.6202C21.7577 29.9051 21.7577 30.0475 21.8999 30.3323C21.8999 30.4747 21.8999 30.6171 21.8999 30.7595V31.0443C22.0421 32.4683 22.4687 33.8924 22.8953 35.3164C23.322 36.7405 23.8908 38.1646 24.6018 39.4462C24.8862 40.1582 25.3129 40.7278 25.5973 41.4399C25.7395 41.7247 25.8817 41.8671 26.1661 42.1519C26.3083 42.2943 26.4505 42.2943 26.5927 42.4367L26.7349 42.5791L27.0193 42.8639L25.5973 43.2911C25.5973 43.0063 25.7395 42.8639 25.8817 42.5791C25.8817 42.5791 25.8817 42.4367 26.0239 42.4367C26.0239 42.4367 26.1661 42.2943 26.1661 42.1519C26.1661 42.1519 26.5927 41.8671 26.7349 41.8671C26.8771 41.8671 27.0193 41.8671 27.1615 42.0095C27.3038 42.1519 27.3038 42.1519 27.446 42.1519C27.7304 42.5791 27.7304 42.7215 27.7304 42.7215C27.7304 42.8639 27.7304 42.8639 27.7304 42.8639C27.7304 42.8639 27.7304 42.8639 27.5882 42.8639L26.7349 43.5759C26.7349 43.4335 26.7349 43.2911 26.8771 43.1487C26.8771 43.1487 26.8771 43.0063 27.0193 42.8639C27.0193 42.8639 27.1616 42.7215 27.3038 42.5791C27.446 42.4367 27.7304 42.4367 28.0148 42.4367C28.157 42.4367 28.2992 42.5791 28.4414 42.7215C28.5836 42.8639 28.5836 42.8639 28.7258 43.0063V43.1487C28.7258 43.1487 28.7258 43.2911 28.7258 43.1487C28.5836 43.0063 28.4414 42.8639 28.4414 42.8639L27.7304 43.7183C27.7304 42.5791 27.446 41.1551 27.0193 39.8734C26.5927 38.5918 26.1661 37.1677 25.7395 35.8861L25.1707 33.8924L25.0284 33.3228C25.0284 33.1804 24.8862 32.8956 24.8862 32.7532C24.8862 32.3259 24.8862 31.8987 24.744 31.7563L24.6018 30.6171C24.6018 30.1899 24.6018 29.9051 24.6018 29.4778V27.3418V25.2057C24.6018 24.4937 24.4596 23.924 24.6018 23.0696C24.744 22.2152 25.0284 21.5032 25.4551 20.9335C25.8817 20.2215 26.7349 19.7943 27.1615 19.5095C28.2992 18.7975 29.2947 17.943 30.2901 16.9462C30.8589 16.3766 31.4278 15.9494 32.1388 15.6645C32.8498 15.5221 33.5609 15.2373 33.2765 14.9525L32.8498 14.5253H33.5609C33.9875 14.5253 34.5563 14.3829 34.9829 14.2405C35.4096 14.0981 35.694 13.6709 35.694 13.2437L36.2628 13.1013C36.2628 13.1013 36.405 13.1013 36.6894 13.1013C36.9738 12.9589 37.116 12.9589 37.4005 12.8164C37.6849 12.674 37.8271 12.5316 37.9693 12.3892C38.1115 12.2468 38.1115 12.2468 38.1115 12.1044C38.1115 11.962 38.1115 12.1044 38.1115 12.1044L38.5381 11.6772L38.3959 11.5348H38.5381C38.8225 11.3924 38.9647 11.3924 39.1069 11.3924C39.3914 11.25 39.6758 11.1076 39.9602 11.1076C40.2446 10.9652 40.3868 10.8228 40.6712 10.6804C40.9556 10.538 40.9556 10.3956 40.9556 10.2532L41.24 9.82594C41.0978 9.82594 41.24 9.82594 41.3823 9.82594C41.5245 9.82594 41.6667 9.68354 41.6667 9.68354C41.9511 9.54113 42.0933 9.39873 42.3777 9.25632C42.8043 8.97151 43.2309 8.6867 43.6576 8.25949C44.0842 7.83227 44.653 7.54746 45.0796 7.40506L45.7907 6.97784L45.9329 6.83543H46.0751C46.0751 6.83543 45.9329 6.83543 45.9329 6.97784C45.9329 6.97784 45.7907 6.97784 45.9329 7.26265C46.0751 7.54746 46.3595 7.40506 46.2173 7.40506C45.9329 7.40506 45.7907 7.26265 45.7907 7.12024C45.7907 6.97784 45.6485 6.97784 45.6485 6.83543L45.5063 6.55062L45.7907 6.40822C46.2173 6.12341 46.5017 5.981 46.9283 5.69619L47.4972 5.26898L47.6394 5.12657C47.6394 5.12657 47.6394 5.12657 47.4972 5.26898C47.4972 5.41138 47.4972 5.55379 47.6394 5.69619C47.7816 5.69619 47.7816 5.69619 47.6394 5.69619C47.6394 5.69619 47.6394 5.69619 47.4972 5.69619L47.3549 5.55379C47.3549 5.41138 47.2127 5.41138 47.2127 5.41138C47.2127 5.26898 47.2127 5.26898 47.2127 5.12657V4.98417V5.26898C47.2127 5.26898 47.2127 5.26898 47.0705 5.26898C46.9283 5.26898 46.7861 5.12657 46.6439 5.12657C46.3595 5.12657 46.0751 4.98417 45.7907 4.98417C45.2218 4.98417 44.5108 4.84176 43.942 4.84176C42.6621 4.84176 41.3823 4.84176 40.1024 4.98417C39.818 4.98417 39.3914 5.12657 38.9647 5.12657C38.5381 5.12657 38.2537 5.12657 37.8271 4.98417C37.116 4.84176 36.6894 4.69936 35.9784 4.69936C34.6985 4.69936 33.5609 4.84176 32.281 4.98417C29.8635 5.55379 27.446 6.40822 25.1707 7.68987C22.8953 8.82911 20.62 10.1108 18.6291 11.8196L17.9181 12.3892L18.0603 11.3924L17.4915 10.2532V10.1108V9.96835C17.4915 8.5443 17.4915 7.26265 16.9226 6.12341C16.496 4.98417 15.5006 4.27214 14.3629 3.84493H14.5051L12.5142 3.70252C11.9454 3.70252 11.2344 3.70252 10.5233 3.41771C9.95449 3.1329 9.38567 2.70569 8.81684 2.42088C8.39022 2.13607 7.82139 1.99366 7.25256 1.70885C6.1149 1.13923 4.97725 0.854422 3.69738 0.569612C3.12856 0.427206 2.55973 0.427206 1.9909 0.427206C1.27986 0.284801 0.711035 0.569612 0.142207 0.569612Z" fill="white"/>
</g>
<defs>
<clipPath id="clip0_670_2429">
<rect width="125" height="45" fill="white"/>
</clipPath>
</defs>
</svg>
