<svg width="264" height="240" viewBox="0 0 264 240" fill="none" xmlns="http://www.w3.org/2000/svg">
<path d="M0 2.87522C6.96774 -0.89161 13.9355 -0.138245 20.9032 0.61512C27.871 1.36848 34.8387 2.87521 41.0323 5.13531C44.129 5.88868 47.2258 7.39541 50.3226 8.90214C53.4194 10.4089 56.5161 11.9156 58.8387 13.4223C61.9355 14.1757 65.0323 14.1757 68.9032 14.1757H78.9677C82.8387 14.9291 86.7097 17.1891 90.5807 19.4492C93.6774 21.7093 96.7742 25.4762 98.3226 29.243C101.419 36.7766 101.419 45.0637 102.194 51.8439L101.419 50.3372L104.516 56.3641L98.3226 54.8574C109.935 45.817 121.548 38.2834 134.71 31.5031C147.871 24.7228 161.032 20.2026 175.742 17.1891C182.71 15.6824 190.452 14.9291 198.194 15.6824C202.065 15.6824 205.935 17.1892 209.032 17.9425C210.581 18.6959 212.129 18.6959 213.677 18.6959C215.226 18.6959 216 18.6959 218.323 17.9425C226.065 17.1892 233.032 17.1892 240 17.9425C243.871 17.9425 246.968 18.6959 250.839 19.4492C252.387 19.4492 254.71 20.2026 256.258 20.2026C257.032 20.2026 257.806 20.956 259.355 20.956C260.129 20.956 260.129 21.7093 260.903 22.4627C263.226 24.7228 263.226 26.9829 262.452 27.7363V26.9829C262.452 26.9829 262.452 26.9829 263.226 26.9829C264 26.9829 264 28.4896 264 29.243C263.226 29.243 263.226 29.9964 263.226 29.9964L262.452 30.7497H261.677L260.903 31.5031L257.806 33.7632L250.839 37.53L251.613 35.2699C251.613 36.0233 252.387 36.0233 250.839 35.2699C250.839 35.2699 251.613 34.5165 252.387 36.0233C253.161 37.53 252.387 37.53 252.387 37.53L251.613 38.2834H250.839L250.065 39.0367L246.194 41.2968C243.097 42.8036 240.774 43.5569 239.226 45.817C236.903 47.3238 234.581 49.5839 232.258 51.0906C230.71 51.8439 229.935 52.5973 228.387 53.3507C227.613 53.3507 226.839 54.104 226.065 54.104C225.29 54.104 223.742 54.8574 222.194 53.3507L224.516 51.8439C225.29 52.5973 225.29 54.8574 224.516 55.6108C223.742 56.3641 222.968 57.1175 222.194 57.8709C220.645 59.3776 219.097 60.131 217.548 60.8843C216 61.6377 214.452 62.391 212.903 63.1444C212.129 63.1444 211.355 63.8978 210.581 63.8978C209.806 63.8978 209.806 63.8978 209.032 63.8978H208.258C208.258 63.8978 208.258 63.8978 207.484 63.8978C206.71 63.8978 206.71 63.1444 205.935 63.1444L198.968 54.8574L208.258 60.8843C209.806 61.6377 209.806 63.8978 209.032 64.6511C209.806 65.4045 209.032 66.1579 209.032 66.9112C207.484 68.418 206.71 69.1713 205.161 69.9247C203.613 70.6781 202.065 71.4314 200.516 72.1848C199.742 72.1848 198.968 72.9382 198.194 72.9382C197.419 72.9382 195.871 72.9382 195.097 71.4314L198.194 70.6781C198.194 73.6915 195.871 76.705 192.774 78.2117C189.677 79.7184 186.581 80.4718 184.258 80.4718L185.806 77.4584C186.581 78.2117 187.355 80.4718 186.581 81.9785C185.806 83.4853 185.032 84.2386 184.258 84.992C182.71 86.4987 180.387 86.4987 178.839 87.2521C175.742 88.7588 172.645 90.2656 170.323 93.279C164.903 98.5526 159.484 103.826 152.516 108.346C149.419 110.606 146.323 112.113 144.774 115.127C143.226 117.387 141.677 121.154 141.677 124.167C141.677 127.18 142.452 130.947 142.452 134.714C142.452 138.481 143.226 142.248 143.226 146.015V157.315C143.226 158.822 143.226 161.082 143.226 162.589V164.849C143.226 165.602 144 167.109 144 167.862C144.774 173.136 144 173.889 146.323 177.656L150.194 188.203C152.516 194.983 154.839 202.517 157.161 209.297C159.484 216.831 161.806 223.611 161.806 232.652V236.418L157.935 237.172C156.387 237.172 155.613 237.172 154.065 237.172C152.516 237.172 150.968 235.665 149.419 234.158C149.419 233.405 147.871 231.898 150.194 234.912C150.968 235.665 151.742 235.665 152.516 235.665C153.29 235.665 154.839 235.665 155.613 234.912C156.387 234.158 157.161 233.405 157.161 233.405C157.161 232.652 157.161 232.652 157.161 232.652V233.405L156.387 237.925H152.516C149.419 237.925 147.871 236.418 146.323 234.912C144.774 233.405 144 231.898 144 230.391C144 230.391 143.226 229.638 144.774 231.145C144.774 231.145 144.774 231.145 145.548 231.898C146.323 231.898 147.097 232.652 147.871 232.652C149.419 232.652 150.968 231.898 150.968 231.898C151.742 231.145 151.742 231.145 151.742 231.145C151.742 231.145 151.742 231.898 150.968 232.652L149.419 239.432L143.226 235.665L139.355 232.652C138.581 231.898 137.032 231.145 136.258 230.391C134.71 228.885 132.387 226.625 130.839 224.365C128.516 220.598 126.194 216.831 124.645 213.064C120.774 205.53 117.677 197.997 115.355 189.71C113.032 182.176 110.71 173.889 109.161 165.602V164.095V163.342C109.161 162.589 109.161 161.835 108.387 161.082C107.613 159.575 106.839 158.068 106.065 156.562C103.742 153.548 100.645 149.028 99.0968 145.261L107.613 146.768C106.065 148.275 105.29 149.028 103.742 149.781C102.968 150.535 101.419 150.535 99.871 150.535C98.3226 150.535 96 149.781 95.2258 149.028C93.6774 147.521 93.6774 147.521 92.129 146.015C91.3548 144.508 90.5807 143.001 89.8065 142.248C89.0323 140.741 88.2581 139.234 87.4839 137.728L83.6129 133.207C78.1936 126.427 73.5484 119.647 69.6774 111.36C68.129 107.593 65.8064 103.826 65.0323 99.3059L64.2581 95.5391V92.5257V86.4987L63.4839 62.3911C63.4839 59.3776 61.9355 54.8574 61.1613 51.0906C59.6129 47.3238 58.8387 42.8036 57.2903 39.0367C56.5161 35.2699 54.9677 31.5031 53.4194 27.7363C51.871 24.7228 49.5484 21.7093 46.4516 19.4492C40.2581 14.1757 32.5161 11.1622 24.7742 8.90214C20.9032 7.39541 17.0323 6.64204 12.3871 5.88868C8.51613 5.13531 3.87097 3.62858 0 2.87522ZM0.774194 2.87522C5.41936 3.62858 8.51613 2.87522 13.1613 4.38195C17.0323 5.13531 21.6774 5.88867 25.5484 6.64204C34.0645 8.90213 42.5806 11.1622 49.5484 16.4358C53.4194 19.4492 55.7419 22.4627 58.0645 26.2295C60.3871 29.243 61.9355 33.7632 63.4839 37.53C64.2581 41.2968 65.8065 45.0637 66.5807 49.5838C67.3548 53.3507 68.9032 57.1175 69.6774 62.3911C70.4516 70.6781 71.2258 78.9651 72 87.2521L72.7742 93.279V96.2925L73.5484 97.7992C74.3226 100.813 75.871 104.579 78.1936 108.346C82.0645 115.127 86.7097 121.907 91.3548 127.934L95.2258 132.454C96.7742 134.714 98.3226 136.221 99.0968 138.481C99.871 139.988 99.871 139.988 99.871 139.988L101.419 141.494L99.871 140.741C99.0968 140.741 99.0968 140.741 99.0968 140.741L99.871 139.988L105.29 133.961L108.387 141.494C109.935 145.261 111.484 147.521 113.806 150.535C115.355 152.795 116.903 154.302 117.677 156.562C118.452 158.068 118.452 158.822 119.226 160.329C119.226 161.082 119.226 161.835 119.226 162.589V164.095C120 171.629 122.323 179.163 124.645 186.696C126.968 194.23 130.065 201.764 133.935 208.544C135.484 212.311 137.806 215.324 139.355 219.091C140.129 220.598 140.903 221.351 142.452 222.858C143.226 223.611 144 223.611 144.774 224.365L145.548 225.118L147.097 226.625L139.355 228.885C139.355 227.378 140.129 226.625 140.903 225.118C140.903 225.118 140.903 224.365 141.677 224.365C141.677 224.365 142.452 223.611 142.452 222.858C142.452 222.858 144.774 221.351 145.548 221.351C146.323 221.351 147.097 221.351 147.871 222.104C148.645 222.858 148.645 222.858 149.419 222.858C150.968 225.118 150.968 225.871 150.968 225.871C150.968 226.625 150.968 226.625 150.968 226.625C150.968 226.625 150.968 226.625 150.194 226.625L145.548 230.391C145.548 229.638 145.548 228.885 146.323 228.131C146.323 228.131 146.323 227.378 147.097 226.625C147.097 226.625 147.871 225.871 148.645 225.118C149.419 224.365 150.968 224.365 152.516 224.365C153.29 224.365 154.065 225.118 154.839 225.871C155.613 226.625 155.613 226.625 156.387 227.378V228.131C156.387 228.131 156.387 228.885 156.387 228.131C155.613 227.378 154.839 226.625 154.839 226.625L150.968 231.145C150.968 225.118 149.419 217.584 147.097 210.804C144.774 204.024 142.452 196.49 140.129 189.71L137.032 179.163L136.258 176.149C136.258 175.396 135.484 173.889 135.484 173.136C135.484 170.876 135.484 168.616 134.71 167.862L133.935 161.835C133.935 159.575 133.935 158.068 133.935 155.808V144.508V133.207C133.935 129.441 133.161 126.427 133.935 121.907C134.71 117.387 136.258 113.62 138.581 110.606C140.903 106.84 145.548 104.579 147.871 103.073C154.065 99.3059 159.484 94.7857 164.903 89.5122C168 86.4987 171.097 84.2386 174.968 82.7319C178.839 81.9785 182.71 80.4718 181.161 78.9651L178.839 76.705H182.71C185.032 76.705 188.129 75.9516 190.452 75.1983C192.774 74.4449 194.323 72.1848 194.323 69.9247L197.419 69.1713C197.419 69.1713 198.194 69.1713 199.742 69.1713C201.29 68.418 202.065 68.418 203.613 67.6646C205.161 66.9112 205.936 66.1579 206.71 65.4045C207.484 64.6511 207.484 64.6511 207.484 63.8978C207.484 63.1444 207.484 63.8978 207.484 63.8978L209.806 61.6377L209.032 60.8843H209.806C211.355 60.131 212.129 60.131 212.903 60.131C214.452 59.3776 216 58.6242 217.548 58.6242C219.097 57.8709 219.871 57.1175 221.419 56.3641C222.968 55.6108 222.968 54.8574 222.968 54.104L224.516 51.8439C223.742 51.8439 224.516 51.8439 225.29 51.8439C226.065 51.8439 226.839 51.0906 226.839 51.0906C228.387 50.3372 229.161 49.5839 230.71 48.8305C233.032 47.3238 235.355 45.817 237.677 43.5569C240 41.2968 243.097 39.7901 245.419 39.0367L249.29 36.7766L250.065 36.0233H250.839C250.839 36.0233 250.065 36.0233 250.065 36.7766C250.065 36.7766 249.29 36.7766 250.065 38.2834C250.839 39.7901 252.387 39.0367 251.613 39.0367C250.065 39.0367 249.29 38.2834 249.29 37.53C249.29 36.7766 248.516 36.7766 248.516 36.0233L247.742 34.5165L249.29 33.7632C251.613 32.2565 253.161 31.5031 255.484 29.9964L258.581 27.7363L259.355 26.9829C259.355 26.9829 259.355 26.9829 258.581 27.7363C258.581 28.4896 258.581 29.243 259.355 29.9964C260.129 29.9964 260.129 29.9964 259.355 29.9964C259.355 29.9964 259.355 29.9964 258.581 29.9964L257.806 29.243C257.806 28.4896 257.032 28.4896 257.032 28.4896C257.032 27.7363 257.032 27.7363 257.032 26.9829V26.2295V27.7363C257.032 27.7363 257.032 27.7363 256.258 27.7363C255.484 27.7363 254.71 26.9829 253.935 26.9829C252.387 26.9829 250.839 26.2295 249.29 26.2295C246.194 26.2295 242.323 25.4762 239.226 25.4762C232.258 25.4762 225.29 25.4762 218.323 26.2295C216.774 26.2295 214.452 26.9829 212.129 26.9829C209.806 26.9829 208.258 26.9829 205.935 26.2295C202.065 25.4762 199.742 24.7228 195.871 24.7228C188.903 24.7228 182.71 25.4762 175.742 26.2295C162.581 29.243 149.419 33.7632 137.032 40.5435C124.645 46.5704 112.258 53.3507 101.419 62.3911L97.5484 65.4045L98.3226 60.131L95.2258 54.104V53.3507V52.5973C95.2258 45.0637 95.2258 38.2834 92.129 32.2565C89.8064 26.2295 84.3871 22.4627 78.1936 20.2026H78.9677L68.129 19.4492C65.0323 19.4492 61.1613 19.4492 57.2903 17.9425C54.1936 16.4358 51.0968 14.1757 48 12.669C45.6774 11.1622 42.5806 10.4089 39.4839 8.90214C33.2903 5.88868 27.0968 4.38195 20.129 2.87522C17.0323 2.12185 13.9355 2.12185 10.8387 2.12185C6.96774 1.36849 3.87097 2.87522 0.774194 2.87522Z" fill="black" fill-opacity="0.03"/>
</svg>
