<svg width="151" height="150" viewBox="0 0 151 150" fill="none" xmlns="http://www.w3.org/2000/svg">
<g clip-path="url(#clip0_670_2275)">
<path d="M112.08 18.3685L106.715 15.1863L101.895 17.851L101.376 17.5406L113.79 10.5813L113.945 10.6589L113.79 24.888L112.028 23.8531L112.08 18.3685ZM111.846 12.2888L107.233 14.8759L112.105 17.7734L112.183 12.4958L111.846 12.2888Z" fill="#8E9495"/>
<path d="M114.36 25.4311L122.886 16.5574L126.696 20.2052C127.344 20.8261 127.888 21.5246 128.38 22.3007C128.873 23.0769 129.184 23.9047 129.339 24.7844C129.495 25.6381 129.495 26.5177 129.262 27.3973C129.054 28.2769 128.562 29.1048 127.836 29.8551C127.111 30.6053 126.307 31.1227 125.452 31.3815C124.597 31.6402 123.716 31.6919 122.86 31.5367C122.005 31.4073 121.15 31.1227 120.347 30.6829C119.543 30.2431 118.818 29.7257 118.17 29.1048L114.36 25.4311ZM123.871 18.0579L115.967 26.3107L118.532 28.7685C119.206 29.3894 119.88 29.8551 120.606 30.1396C121.305 30.4242 122.031 30.5277 122.731 30.5018C123.431 30.4501 124.104 30.269 124.752 29.9586C125.4 29.6481 125.996 29.2083 126.54 28.6391C127.085 28.07 127.525 27.4232 127.836 26.7505C128.147 26.052 128.303 25.3535 128.329 24.655C128.355 23.9306 128.199 23.2321 127.914 22.5336C127.629 21.8351 127.136 21.1624 126.463 20.5415L123.871 18.0579Z" fill="#8E9495"/>
<path d="M136.673 37.7716L136.077 37.8234L132.371 32.3128L125.944 36.6333L131.335 44.6792L130.739 44.7309L124.519 35.495L134.756 28.6392L140.742 37.5388L140.146 37.5905L135.3 30.3984L132.812 32.0541L136.673 37.7716Z" fill="#8E9495"/>
<path d="M141.157 47.8613L139.757 44.3945L132.086 47.4991L131.412 45.8692L142.841 41.2383L146.081 49.2324C146.236 49.5946 146.34 49.9309 146.392 50.2931C146.444 50.6295 146.444 50.9658 146.392 51.2504C146.34 51.5608 146.21 51.8195 146.003 52.0524C145.796 52.2852 145.537 52.4922 145.174 52.6215C144.811 52.7767 144.5 52.8285 144.189 52.7767C143.904 52.725 143.645 52.6215 143.411 52.4404C143.178 52.2593 142.971 52.0265 142.789 51.716C142.608 51.4315 142.453 51.0951 142.297 50.7329L141.882 49.6981L136 57.2266L135.222 55.338L141.157 47.8613ZM140.25 44.1876L142.686 50.2155C142.789 50.4742 142.893 50.6812 142.997 50.8105C143.1 50.9399 143.204 51.0434 143.334 51.0693C143.463 51.0951 143.619 51.0951 143.8 51.0434C143.982 50.9916 144.215 50.914 144.474 50.8105C144.733 50.7071 144.966 50.6036 145.148 50.5001C145.329 50.3966 145.459 50.2931 145.537 50.1638C145.614 50.0344 145.666 49.9051 145.64 49.724C145.64 49.5429 145.588 49.3359 145.459 49.0772L143.023 43.0493L140.25 44.1876Z" fill="#8E9495"/>
<path d="M149.994 64.3411L150.124 64.962L141.986 62.2714L137.192 63.2545L136.829 61.5211L141.39 60.5898L147.999 54.717L148.413 56.7091L142.582 61.8833L149.994 64.3411Z" fill="#8E9495"/>
<path d="M140.25 79.8897V80.0708L150.694 79.8897V80.4071L138.358 80.6141L138.332 79.2171L149.968 69.1274V68.6099L138.151 68.791V68.2736L150.486 68.0667L150.538 70.9901L140.25 79.8897Z" fill="#8E9495"/>
<path d="M140.898 92.049L142.271 85.9435L138.228 82.2181L138.358 81.623L148.854 91.2471L148.828 91.4281L135.222 95.6969L135.663 93.7048L140.898 92.049ZM146.625 89.9276L142.738 86.3574L141.494 91.8938L146.547 90.3157L146.625 89.9276Z" fill="#8E9495"/>
<path d="M139.706 105.45L141.364 102.087L133.926 98.4651L134.704 96.887L145.796 102.294L141.96 110.004C141.779 110.34 141.597 110.65 141.39 110.935C141.183 111.219 140.924 111.426 140.664 111.582C140.405 111.737 140.12 111.84 139.809 111.84C139.498 111.866 139.161 111.763 138.824 111.608C138.488 111.452 138.228 111.219 138.047 110.987C137.892 110.754 137.788 110.469 137.788 110.185C137.762 109.9 137.814 109.59 137.917 109.253C138.021 108.917 138.151 108.581 138.306 108.244L138.799 107.261L129.262 107.934L130.169 106.097L139.706 105.45ZM141.805 102.294L138.954 108.141C138.824 108.4 138.747 108.607 138.695 108.762C138.643 108.917 138.669 109.072 138.721 109.176C138.773 109.305 138.876 109.409 139.032 109.512C139.187 109.615 139.395 109.719 139.654 109.848C139.913 109.978 140.12 110.055 140.328 110.133C140.535 110.211 140.69 110.236 140.846 110.211C141.001 110.185 141.131 110.107 141.261 110.004C141.39 109.874 141.52 109.693 141.623 109.434L144.474 103.588L141.805 102.294Z" fill="#8E9495"/>
<path d="M132.034 123.87L134.989 119.912L125.53 112.849L126.463 111.582L135.948 118.593L139.109 114.35L139.343 114.893L132.268 124.414L132.034 123.87Z" fill="#8E9495"/>
<path d="M106.767 134.736L112.209 131.657L112.261 126.173L112.805 125.862L112.701 140.091L112.546 140.169L100.262 132.977L102.05 131.968L106.767 134.736ZM112.183 137.53L112.209 132.252L107.285 135.047L111.846 137.711L112.183 137.53Z" fill="#8E9495"/>
<path d="M99.5104 133.184L102.983 145.007L97.9036 146.507C97.0484 146.766 96.1673 146.895 95.2602 146.921C94.3273 146.947 93.4462 146.818 92.6169 146.533C91.7876 146.249 91.036 145.809 90.3881 145.188C89.7402 144.567 89.2478 143.739 88.9627 142.73C88.6518 141.721 88.6258 140.764 88.8332 139.91C89.0405 139.031 89.4292 138.255 89.9735 137.582C90.5177 136.909 91.1915 136.314 91.969 135.823C92.7464 135.331 93.5757 134.969 94.405 134.71L99.5104 133.184ZM101.169 145.084L97.9296 134.141L94.5346 135.15C93.6535 135.409 92.9278 135.771 92.3318 136.262C91.7357 136.754 91.2951 137.297 90.9842 137.918C90.6732 138.539 90.4918 139.212 90.4399 139.936C90.3881 140.661 90.4659 141.385 90.6732 142.135C90.9064 142.911 91.2433 143.584 91.6839 144.205C92.1245 144.826 92.6428 145.317 93.2647 145.68C93.8867 146.042 94.5605 146.275 95.338 146.378C96.0896 146.482 96.9189 146.378 97.8 146.119L101.169 145.084Z" fill="#8E9495"/>
<path d="M77.6634 146.352L77.9226 145.809L84.557 145.343L84.0387 137.634L74.3722 138.306L74.6313 137.763L85.7491 137.013L86.6044 149.301L75.8753 150.026L76.1344 149.483L84.7903 148.887L84.5829 145.912L77.6634 146.352Z" fill="#8E9495"/>
<path d="M66.6751 145.214L70.407 145.731L71.5213 137.53L73.2577 137.763L71.5991 149.974L63.0469 148.81C62.6582 148.758 62.2953 148.68 61.9844 148.551C61.6475 148.422 61.3883 148.267 61.1551 148.085C60.9218 147.878 60.7404 147.646 60.6367 147.361C60.5331 147.076 60.5072 146.74 60.559 146.352C60.6108 145.964 60.7145 145.654 60.8959 145.421C61.0773 145.188 61.3106 145.033 61.5697 144.929C61.8548 144.826 62.1658 144.774 62.5027 144.748C62.8396 144.748 63.2024 144.748 63.5911 144.8L64.6796 144.955L61.0514 136.107L63.0728 136.392L66.6751 145.214ZM70.3292 146.249L63.8762 145.369C63.5911 145.343 63.3838 145.317 63.2024 145.343C63.0469 145.343 62.8914 145.421 62.8137 145.498C62.71 145.602 62.6582 145.731 62.6063 145.912C62.5545 146.093 62.5027 146.326 62.4768 146.611C62.4508 146.895 62.4249 147.128 62.4249 147.335C62.4249 147.542 62.4508 147.723 62.5027 147.853C62.5804 147.982 62.6841 148.085 62.8396 148.163C62.9951 148.241 63.2024 148.292 63.4875 148.344L69.9405 149.224L70.3292 146.249Z" fill="#8E9495"/>
<path d="M47.964 144.696L47.368 144.489L53.7432 138.772L55.2722 134.115L56.9568 134.659L55.5055 139.082L57.3196 147.723L55.3759 147.077L53.7691 139.471L47.964 144.696Z" fill="#8E9495"/>
<path d="M39.2563 128.449L39.1008 128.372L33.9695 137.452L33.5031 137.194L39.5673 126.457L40.7854 127.156L43.6361 142.29L44.1026 142.549L49.9077 132.278L50.3742 132.537L44.3099 143.273L41.7702 141.851L39.2563 128.449Z" fill="#8E9495"/>
<path d="M28.4237 122.991L33.0367 127.208L38.2975 125.578L38.764 125.992L25.1842 130.286L25.0546 130.157L28.1127 116.264L29.6158 117.635L28.4237 122.991ZM27.413 129.019L32.4665 127.415L28.2682 123.586L27.1279 128.734L27.413 129.019Z" fill="#8E9495"/>
<path d="M17.3836 115.307L19.4827 118.411L26.3245 113.755L27.3093 115.203L17.0985 122.137L12.2523 115.022C12.0449 114.712 11.8635 114.376 11.7339 114.065C11.6044 113.729 11.5266 113.418 11.5266 113.108C11.5266 112.797 11.5784 112.513 11.7339 112.228C11.8635 111.944 12.0968 111.711 12.4337 111.504C12.7446 111.297 13.0556 111.168 13.3407 111.142C13.6258 111.116 13.9109 111.168 14.17 111.323C14.4292 111.478 14.6883 111.659 14.9216 111.892C15.1548 112.151 15.388 112.435 15.6213 112.746L16.2433 113.651L20.3898 105.036L21.5301 106.718L17.3836 115.307ZM19.0422 118.696L15.388 113.315C15.2326 113.082 15.0771 112.901 14.9734 112.797C14.8438 112.694 14.7142 112.616 14.5847 112.616C14.4551 112.616 14.2996 112.642 14.1441 112.72C13.9886 112.797 13.7813 112.927 13.5221 113.082C13.2889 113.237 13.0816 113.392 12.9261 113.522C12.7706 113.651 12.6669 113.781 12.6151 113.936C12.5632 114.065 12.5632 114.22 12.5892 114.401C12.6151 114.583 12.7446 114.764 12.9001 114.996L16.5802 120.378L19.0422 118.696Z" fill="#8E9495"/>
<path d="M5.15138 99.5258L7.14689 104.053L17.9796 99.3447L18.6275 100.794L7.8207 105.528L9.94578 110.366L9.34972 110.314L4.58124 99.4741L5.15138 99.5258Z" fill="#8E9495"/>
<path d="M8.33894 72.18L8.23528 78.4149L12.9519 81.2607V81.8816L0.719727 74.586V74.4049L13.1593 67.4714L13.1333 69.5153L8.33894 72.18ZM3.18172 75.4138L7.71696 78.1303L7.82062 72.4645L3.18172 75.0258V75.4138Z" fill="#8E9495"/>
<path d="M13.2628 66.6953L1.26389 63.8495L2.48192 58.7271C2.68925 57.8733 3.00024 57.0455 3.4408 56.2176C3.88137 55.4156 4.4256 54.7171 5.09941 54.1221C5.7473 53.5529 6.52477 53.1131 7.37999 52.8544C8.23521 52.5957 9.19409 52.5957 10.2307 52.8285C11.2673 53.0613 12.0966 53.5011 12.7445 54.1221C13.3924 54.743 13.8848 55.4673 14.1958 56.2693C14.5068 57.0713 14.6882 57.951 14.7141 58.8823C14.74 59.8137 14.6623 60.6933 14.455 61.547L13.2628 66.6953ZM2.09319 62.2455L13.211 64.8844L14.0403 61.4435C14.2476 60.5639 14.2995 59.736 14.1699 58.9858C14.0403 58.2355 13.7812 57.5629 13.3924 56.9937C13.0037 56.4246 12.5113 55.933 11.9152 55.5191C11.3192 55.131 10.6194 54.8206 9.86789 54.6395C9.09042 54.4584 8.33887 54.4066 7.58731 54.4842C6.83576 54.5619 6.16195 54.7688 5.51406 55.131C4.89208 55.4673 4.34785 55.9589 3.88137 56.5798C3.41489 57.2007 3.1039 57.951 2.89657 58.8306L2.09319 62.2455Z" fill="#8E9495"/>
<path d="M12.6669 41.2382L13.0038 41.7298L10.1013 47.706L17.0726 51.0951L21.2968 42.4024L21.6337 42.894L16.7875 52.906L5.69559 47.5249L10.3863 37.875L10.7232 38.3666L6.93954 46.1796L9.63477 47.4731L12.6669 41.2382Z" fill="#8E9495"/>
<path d="M19.1457 32.2871L16.8392 35.2623L23.3959 40.3071L22.3074 41.7042L12.5372 34.1757L17.824 27.3458C18.0572 27.0353 18.3164 26.7766 18.5756 26.5438C18.8347 26.3109 19.1198 26.1557 19.4049 26.0522C19.6899 25.9487 20.0009 25.9229 20.286 25.9746C20.597 26.0263 20.8821 26.1557 21.193 26.4144C21.504 26.6472 21.7114 26.906 21.815 27.1647C21.9187 27.4234 21.9446 27.708 21.9187 27.9925C21.8669 28.2771 21.7632 28.5876 21.6077 28.898C21.4522 29.2085 21.2449 29.5189 21.0116 29.8035L20.3378 30.6831L29.823 31.9508L28.579 33.5548L19.1457 32.2871ZM16.4246 34.926L20.4156 29.7776C20.597 29.5448 20.7006 29.3637 20.7784 29.2085C20.8561 29.0533 20.8821 28.9239 20.8302 28.7945C20.8043 28.6652 20.7266 28.5358 20.597 28.4065C20.4674 28.2771 20.286 28.1219 20.0528 27.9408C19.8195 27.7597 19.6381 27.6303 19.4567 27.5269C19.2753 27.4234 19.1198 27.3716 18.9643 27.3458C18.8088 27.3458 18.6792 27.3716 18.5237 27.4751C18.3682 27.5786 18.2127 27.7338 18.0572 27.9408L14.0662 33.0891L16.4246 34.926Z" fill="#8E9495"/>
<path d="M28.9159 16.3505L29.3824 15.9365L31.1965 24.3187L34.4878 27.9407L33.192 29.1307L30.0562 25.664L21.6077 22.9217L23.1367 21.5505L30.5486 23.9565L28.9159 16.3505Z" fill="#8E9495"/>
<path d="M47.342 16.8936L47.4975 16.816L42.133 7.86467L42.5995 7.60596L48.9229 18.1354L47.7049 18.8598L33.1402 13.815L32.6738 14.0737L38.738 24.1893L38.2715 24.448L31.9481 13.8667L34.4619 12.3662L47.342 16.8936Z" fill="#8E9495"/>
<path d="M57.475 10.1931L51.5144 12.0817L50.3223 17.437L49.7262 17.6181L52.7584 3.72533L52.9139 3.67358L63.4615 13.2459L61.5179 13.8668L57.475 10.1931ZM52.7324 6.3383L51.6181 11.4866L57.0345 9.75327L53.1212 6.20894L52.7324 6.3383Z" fill="#8E9495"/>
<path d="M69.6554 4.47565L65.9235 4.76023L66.5455 13.0131L64.7832 13.1424L63.8503 0.85371L72.4543 0.206935C72.843 0.181064 73.2058 0.181064 73.5427 0.232806C73.8796 0.284548 74.1906 0.388032 74.4757 0.517387C74.7349 0.672613 74.9681 0.85371 75.1236 1.11242C75.2791 1.37113 75.3828 1.68158 75.4087 2.06965C75.4346 2.45771 75.3828 2.76816 75.2532 3.05274C75.1236 3.31145 74.9422 3.51842 74.683 3.67365C74.4239 3.82887 74.1388 3.95823 73.8019 4.03584C73.465 4.11345 73.1022 4.1652 72.7134 4.21694L71.5991 4.29455L76.9895 12.1852L74.9422 12.3404L69.6554 4.47565ZM65.8717 4.24281L72.3765 3.75126C72.6616 3.72539 72.8689 3.69952 73.0503 3.64778C73.2058 3.59603 73.3354 3.51842 73.4132 3.41494C73.4909 3.31145 73.5168 3.15623 73.5427 2.97513C73.5427 2.79403 73.5427 2.5612 73.5168 2.25074C73.4909 1.96616 73.465 1.73332 73.4391 1.52636C73.3872 1.31939 73.3354 1.16416 73.2317 1.03481C73.1281 0.905452 72.9985 0.827839 72.843 0.801968C72.6616 0.750226 72.4543 0.750226 72.1692 0.776097L65.6644 1.26765L65.8717 4.24281Z" fill="#8E9495"/>
<path d="M89.4291 1.75923L84.5051 1.24181L83.2093 12.9614L81.6285 12.7803L82.8983 1.06071L77.6374 0.491549L78.0002 0L89.7919 1.26768L89.4291 1.75923Z" fill="#8E9495"/>
</g>
<defs>
<clipPath id="clip0_670_2275">
<rect width="150" height="150" fill="white" transform="translate(0.719727)"/>
</clipPath>
</defs>
</svg>
