<svg width="305" height="22" viewBox="0 0 305 22" fill="none" xmlns="http://www.w3.org/2000/svg">
<path d="M14.197 6.43397C14.6803 6.43397 15.0629 6.40376 15.3449 6.34335C15.6268 6.28293 15.8382 6.16211 15.9792 5.98087C16.1202 5.79963 16.2108 5.55798 16.2511 5.25592C16.2913 4.93371 16.3115 4.52089 16.3115 4.01745C16.3115 3.53415 16.2913 3.12133 16.2511 2.77899C16.2108 2.41651 16.1202 2.13459 15.9792 1.93321C15.8382 1.7117 15.6268 1.5506 15.3449 1.44991C15.0629 1.34922 14.6803 1.29888 14.197 1.29888H3.02064V6.43397H14.197ZM3.02064 7.34016V21.5372H0V0.392684H14.8011C15.4657 0.392684 16.0899 0.463166 16.6739 0.604129C17.2579 0.724955 17.7714 0.92633 18.2145 1.20826C18.6575 1.49018 18.9998 1.86273 19.2415 2.32589C19.5033 2.78906 19.6342 3.35291 19.6342 4.01745C19.6342 4.68199 19.5033 5.23578 19.2415 5.67881C18.9998 6.1017 18.6575 6.43397 18.2145 6.67562C17.7714 6.91727 17.2579 7.08844 16.6739 7.18913C16.0899 7.28981 15.4657 7.34016 14.8011 7.34016H3.02064Z" fill="#A89861" fill-opacity="0.2"/>
<path d="M26.2796 6.43397H43.4972V0.392684H46.5179V21.5372H43.4972V7.34016H26.2796V21.5372H23.2589V0.392684H26.2796V6.43397Z" fill="#A89861" fill-opacity="0.2"/>
<path d="M51.0311 10.9951C51.0311 9.16261 51.4137 7.56167 52.179 6.19232C52.9643 4.80282 53.9612 3.65498 55.1694 2.74878C56.3978 1.82245 57.7772 1.13778 59.3077 0.694747C60.8382 0.231582 62.3585 0 63.8689 0C65.3792 0 66.8996 0.231582 68.43 0.694747C69.9605 1.13778 71.3399 1.82245 72.5683 2.74878C73.7967 3.65498 74.7935 4.80282 75.5587 6.19232C76.3441 7.56167 76.7368 9.16261 76.7368 10.9951C76.7368 12.8075 76.3441 14.3984 75.5587 15.7677C74.7935 17.1371 73.7967 18.2749 72.5683 19.1811C71.3399 20.0873 69.9605 20.7719 68.43 21.2351C66.8996 21.6983 65.3792 21.9299 63.8689 21.9299C62.3585 21.9299 60.8382 21.6983 59.3077 21.2351C57.7772 20.7719 56.3978 20.0873 55.1694 19.1811C53.9612 18.2749 52.9643 17.1371 52.179 15.7677C51.4137 14.3984 51.0311 12.8075 51.0311 10.9951ZM54.1726 10.8139C54.1726 12.1833 54.384 13.4922 54.8069 14.7407C55.2298 15.9893 55.8541 17.0868 56.6797 18.0332C57.5054 18.9797 58.5223 19.7349 59.7306 20.2987C60.9388 20.8424 62.3283 21.1143 63.8991 21.1143C65.4698 21.1143 66.8593 20.8424 68.0676 20.2987C69.2758 19.755 70.2827 19.02 71.0882 18.0936C71.9138 17.1673 72.5381 16.1 72.961 14.8918C73.3839 13.6835 73.6054 12.4148 73.6255 11.0858C73.6255 9.7164 73.404 8.40745 72.961 7.15892C72.5381 5.89025 71.9138 4.78268 71.0882 3.83621C70.2626 2.86961 69.2456 2.10438 68.0373 1.54053C66.8291 0.976674 65.4396 0.704817 63.8689 0.724955C62.2981 0.745093 60.9086 1.03709 59.7004 1.60094C58.4921 2.14466 57.4752 2.87968 56.6495 3.80601C55.844 4.7122 55.2298 5.77949 54.8069 7.00789C54.384 8.21614 54.1726 9.48481 54.1726 10.8139Z" fill="#A89861" fill-opacity="0.2"/>
<path d="M97.6694 0.392684L97.1559 1.29888H88.6678L88.6074 21.5372H85.8889V1.29888H76.8269L77.3404 0.392684H97.6694Z" fill="#A89861" fill-opacity="0.2"/>
<path d="M98.021 10.9951C98.021 9.16261 98.4036 7.56167 99.1688 6.19232C99.9542 4.80282 100.951 3.65498 102.159 2.74878C103.388 1.82245 104.767 1.13778 106.298 0.694747C107.828 0.231582 109.348 0 110.859 0C112.369 0 113.889 0.231582 115.42 0.694747C116.95 1.13778 118.33 1.82245 119.558 2.74878C120.787 3.65498 121.783 4.80282 122.549 6.19232C123.334 7.56167 123.727 9.16261 123.727 10.9951C123.727 12.8075 123.334 14.3984 122.549 15.7677C121.783 17.1371 120.787 18.2749 119.558 19.1811C118.33 20.0873 116.95 20.7719 115.42 21.2351C113.889 21.6983 112.369 21.9299 110.859 21.9299C109.348 21.9299 107.828 21.6983 106.298 21.2351C104.767 20.7719 103.388 20.0873 102.159 19.1811C100.951 18.2749 99.9542 17.1371 99.1688 15.7677C98.4036 14.3984 98.021 12.8075 98.021 10.9951ZM101.162 10.8139C101.162 12.1833 101.374 13.4922 101.797 14.7407C102.22 15.9893 102.844 17.0868 103.67 18.0332C104.495 18.9797 105.512 19.7349 106.72 20.2987C107.929 20.8424 109.318 21.1143 110.889 21.1143C112.46 21.1143 113.849 20.8424 115.057 20.2987C116.266 19.755 117.273 19.02 118.078 18.0936C118.904 17.1673 119.528 16.1 119.951 14.8918C120.374 13.6835 120.595 12.4148 120.615 11.0858C120.615 9.7164 120.394 8.40745 119.951 7.15892C119.528 5.89025 118.904 4.78268 118.078 3.83621C117.252 2.86961 116.235 2.10438 115.027 1.54053C113.819 0.976674 112.429 0.704817 110.859 0.724955C109.288 0.745093 107.898 1.03709 106.69 1.60094C105.482 2.14466 104.465 2.87968 103.639 3.80601C102.834 4.7122 102.22 5.77949 101.797 7.00789C101.374 8.21614 101.162 9.48481 101.162 10.8139Z" fill="#A89861" fill-opacity="0.2"/>
<path d="M144.798 7.34016H142.714L143.228 6.43397H147.819V19.5738C146.611 20.3591 145.302 20.9532 143.892 21.3559C142.483 21.7385 141.073 21.9299 139.663 21.9299C138.153 21.9299 136.633 21.6983 135.102 21.2351C133.572 20.7719 132.192 20.0873 130.964 19.1811C129.756 18.2749 128.759 17.1371 127.973 15.7677C127.208 14.3984 126.826 12.8075 126.826 10.9951C126.826 9.16261 127.208 7.56167 127.973 6.19232C128.759 4.80282 129.756 3.65498 130.964 2.74878C132.192 1.82245 133.572 1.13778 135.102 0.694747C136.633 0.231582 138.153 0 139.663 0C141.073 0 142.483 0.201376 143.892 0.604129C145.302 0.986744 146.611 1.57073 147.819 2.3561L146.943 3.89663C146.097 2.90988 145.07 2.13459 143.862 1.57073C142.654 0.986743 141.254 0.704817 139.663 0.724955C138.093 0.745093 136.703 1.03709 135.495 1.60094C134.287 2.14466 133.27 2.87968 132.444 3.80601C131.639 4.7122 131.024 5.77949 130.601 7.00789C130.179 8.21614 129.967 9.48481 129.967 10.8139C129.967 12.1833 130.179 13.4922 130.601 14.7407C131.024 15.9893 131.649 17.0868 132.474 18.0332C133.3 18.9797 134.317 19.7349 135.525 20.2987C136.733 20.8424 138.123 21.1143 139.694 21.1143C140.7 21.1143 141.627 21.0035 142.473 20.782C143.318 20.5404 144.094 20.2182 144.798 19.8154V7.34016Z" fill="#A89861" fill-opacity="0.2"/>
<path d="M157.5 6.43397H168.677C169.16 6.43397 169.543 6.40376 169.825 6.34335C170.107 6.28293 170.318 6.16211 170.459 5.98087C170.6 5.79963 170.691 5.55798 170.731 5.25592C170.771 4.93371 170.791 4.52089 170.791 4.01745C170.791 3.53415 170.771 3.12133 170.731 2.77899C170.691 2.41651 170.6 2.13459 170.459 1.93321C170.318 1.7117 170.107 1.5506 169.825 1.44991C169.543 1.34922 169.16 1.29888 168.677 1.29888H157.5V6.43397ZM163.934 7.34016H157.5V21.5372H154.48V0.392684H169.281C169.946 0.392684 170.57 0.463166 171.154 0.604129C171.738 0.724955 172.251 0.92633 172.694 1.20826C173.137 1.49018 173.48 1.86273 173.721 2.32589C173.983 2.78906 174.114 3.35291 174.114 4.01745C174.114 4.68199 173.983 5.23578 173.721 5.67881C173.48 6.1017 173.137 6.43397 172.694 6.67562C172.251 6.91727 171.738 7.08844 171.154 7.18913C170.57 7.28981 169.946 7.34016 169.281 7.34016H167.378L175.594 21.5372H172.09L163.934 7.34016Z" fill="#A89861" fill-opacity="0.2"/>
<path d="M190.057 4.62158L185.526 12.4752H195.253L190.722 4.62158H190.057ZM195.766 13.3814H185.043L180.3 21.5372H179.243L191.447 0.392684H191.749L203.982 21.5372H200.478L195.766 13.3814Z" fill="#A89861" fill-opacity="0.2"/>
<path d="M222.127 6.43397C222.61 6.43397 222.993 6.40376 223.275 6.34335C223.557 6.28293 223.768 6.16211 223.909 5.98087C224.05 5.79963 224.141 5.55798 224.181 5.25592C224.221 4.93371 224.241 4.52089 224.241 4.01745C224.241 3.53415 224.221 3.12133 224.181 2.77899C224.141 2.41651 224.05 2.13459 223.909 1.93321C223.768 1.7117 223.557 1.5506 223.275 1.44991C222.993 1.34922 222.61 1.29888 222.127 1.29888H210.95V6.43397H222.127ZM210.95 7.34016V21.5372H207.93V0.392684H222.731C223.396 0.392684 224.02 0.463166 224.604 0.604129C225.188 0.724955 225.701 0.92633 226.144 1.20826C226.587 1.49018 226.93 1.86273 227.171 2.32589C227.433 2.78906 227.564 3.35291 227.564 4.01745C227.564 4.68199 227.433 5.23578 227.171 5.67881C226.93 6.1017 226.587 6.43397 226.144 6.67562C225.701 6.91727 225.188 7.08844 224.604 7.18913C224.02 7.28981 223.396 7.34016 222.731 7.34016H210.95Z" fill="#A89861" fill-opacity="0.2"/>
<path d="M234.209 6.43397H251.427V0.392684H254.448V21.5372H251.427V7.34016H234.209V21.5372H231.189V0.392684H234.209V6.43397Z" fill="#A89861" fill-opacity="0.2"/>
<path d="M263.191 6.43397H275.092L274.579 7.34016H263.191V20.631H279.805L279.291 21.5372H260.17V0.392684H278.596L278.083 1.29888H263.191V6.43397Z" fill="#A89861" fill-opacity="0.2"/>
<path d="M286.243 6.43397H297.42C297.903 6.43397 298.286 6.40376 298.568 6.34335C298.85 6.28293 299.061 6.16211 299.202 5.98087C299.343 5.79963 299.434 5.55798 299.474 5.25592C299.514 4.93371 299.534 4.52089 299.534 4.01745C299.534 3.53415 299.514 3.12133 299.474 2.77899C299.434 2.41651 299.343 2.13459 299.202 1.93321C299.061 1.7117 298.85 1.5506 298.568 1.44991C298.286 1.34922 297.903 1.29888 297.42 1.29888H286.243V6.43397ZM292.677 7.34016H286.243V21.5372H283.223V0.392684H298.024C298.689 0.392684 299.313 0.463166 299.897 0.604129C300.481 0.724955 300.994 0.92633 301.437 1.20826C301.88 1.49018 302.223 1.86273 302.464 2.32589C302.726 2.78906 302.857 3.35291 302.857 4.01745C302.857 4.68199 302.726 5.23578 302.464 5.67881C302.223 6.1017 301.88 6.43397 301.437 6.67562C300.994 6.91727 300.481 7.08844 299.897 7.18913C299.313 7.28981 298.689 7.34016 298.024 7.34016H296.121L304.337 21.5372H300.833L292.677 7.34016Z" fill="#A89861" fill-opacity="0.2"/>
</svg>
