<svg width="1440" height="33" viewBox="0 0 1440 33" fill="none" xmlns="http://www.w3.org/2000/svg">
<path fill-rule="evenodd" clip-rule="evenodd" d="M77.7336 9.225C76.5936 11.265 76.0236 13.65 76.0236 16.38C76.0236 19.08 76.5936 21.45 77.7336 23.49C78.9036 25.53 80.3886 27.225 82.1886 28.575C84.0186 29.925 86.0736 30.945 88.3536 31.635C90.6336 32.325 92.8986 32.67 95.1486 32.67C97.3986 32.67 99.6636 32.325 101.944 31.635C104.224 30.945 106.279 29.925 108.109 28.575C109.939 27.225 111.424 25.53 112.564 23.49C113.734 21.45 114.319 19.08 114.319 16.38C114.319 13.65 113.734 11.265 112.564 9.225C111.424 7.155 109.939 5.445 108.109 4.095C106.279 2.715 104.224 1.695 101.944 1.035C99.6636 0.345 97.3986 0 95.1486 0C92.8986 0 90.6336 0.345 88.3536 1.035C86.0736 1.695 84.0186 2.715 82.1886 4.095C80.3886 5.445 78.9036 7.155 77.7336 9.225ZM81.6486 21.96C81.0186 20.1 80.7036 18.15 80.7036 16.11C80.7036 14.13 81.0186 12.24 81.6486 10.44C82.2786 8.61 83.1936 7.02 84.3936 5.67C85.6236 4.29 87.1386 3.195 88.9386 2.385C90.7386 1.545 92.8086 1.11 95.1486 1.08C97.4886 1.05 99.5586 1.455 101.359 2.295C103.159 3.135 104.674 4.275 105.904 5.715C107.134 7.125 108.064 8.775 108.694 10.665C109.354 12.525 109.684 14.475 109.684 16.515C109.654 18.495 109.324 20.385 108.694 22.185C108.064 23.985 107.134 25.575 105.904 26.955C104.704 28.335 103.204 29.43 101.404 30.24C99.6036 31.05 97.5336 31.455 95.1936 31.455C92.8536 31.455 90.7836 31.05 88.9836 30.24C87.1836 29.4 85.6686 28.275 84.4386 26.865C83.2086 25.455 82.2786 23.82 81.6486 21.96ZM21.15 9.585C21.87 9.585 22.44 9.54 22.86 9.45C23.28 9.36 23.595 9.18 23.805 8.91C24.015 8.64 24.15 8.28 24.21 7.83C24.27 7.35 24.3 6.735 24.3 5.985C24.3 5.265 24.27 4.65 24.21 4.14C24.15 3.6 24.015 3.18 23.805 2.88C23.595 2.55 23.28 2.31 22.86 2.16C22.44 2.01 21.87 1.935 21.15 1.935H4.5V9.585H21.15ZM4.5 10.935V32.085H0V0.585001H22.05C23.04 0.585001 23.97 0.690001 24.84 0.900002C25.71 1.08 26.475 1.38 27.135 1.8C27.795 2.22 28.305 2.775 28.665 3.465C29.055 4.155 29.25 4.995 29.25 5.985C29.25 6.975 29.055 7.8 28.665 8.46C28.305 9.09 27.795 9.585 27.135 9.945C26.475 10.305 25.71 10.56 24.84 10.71C23.97 10.86 23.04 10.935 22.05 10.935H4.5ZM39.15 9.585H64.8V0.585001H69.3V32.085H64.8V10.935H39.15V32.085H34.65V0.585001H39.15V9.585ZM145.503 0.585001L144.738 1.935H132.093L132.003 32.085H127.953V1.935H114.453L115.218 0.585001H145.503ZM147.737 9.225C146.597 11.265 146.027 13.65 146.027 16.38C146.027 19.08 146.597 21.45 147.737 23.49C148.907 25.53 150.392 27.225 152.192 28.575C154.022 29.925 156.077 30.945 158.357 31.635C160.637 32.325 162.902 32.67 165.152 32.67C167.402 32.67 169.667 32.325 171.947 31.635C174.227 30.945 176.282 29.925 178.112 28.575C179.942 27.225 181.427 25.53 182.567 23.49C183.737 21.45 184.322 19.08 184.322 16.38C184.322 13.65 183.737 11.265 182.567 9.225C181.427 7.155 179.942 5.445 178.112 4.095C176.282 2.715 174.227 1.695 171.947 1.035C169.667 0.345 167.402 0 165.152 0C162.902 0 160.637 0.345 158.357 1.035C156.077 1.695 154.022 2.715 152.192 4.095C150.392 5.445 148.907 7.155 147.737 9.225ZM151.652 21.96C151.022 20.1 150.707 18.15 150.707 16.11C150.707 14.13 151.022 12.24 151.652 10.44C152.282 8.61 153.197 7.02 154.397 5.67C155.627 4.29 157.142 3.195 158.942 2.385C160.742 1.545 162.812 1.11 165.152 1.08C167.492 1.05 169.562 1.455 171.362 2.295C173.162 3.135 174.677 4.275 175.907 5.715C177.137 7.125 178.067 8.775 178.697 10.665C179.357 12.525 179.687 14.475 179.687 16.515C179.657 18.495 179.327 20.385 178.697 22.185C178.067 23.985 177.137 25.575 175.907 26.955C174.707 28.335 173.207 29.43 171.407 30.24C169.607 31.05 167.537 31.455 165.197 31.455C162.857 31.455 160.787 31.05 158.987 30.24C157.187 29.4 155.672 28.275 154.442 26.865C153.212 25.455 152.282 23.82 151.652 21.96ZM215.713 10.935H212.608L213.373 9.585H220.213V29.16C218.413 30.33 216.463 31.215 214.363 31.815C212.263 32.385 210.163 32.67 208.063 32.67C205.813 32.67 203.548 32.325 201.268 31.635C198.988 30.945 196.933 29.925 195.103 28.575C193.303 27.225 191.818 25.53 190.648 23.49C189.508 21.45 188.938 19.08 188.938 16.38C188.938 13.65 189.508 11.265 190.648 9.225C191.818 7.155 193.303 5.445 195.103 4.095C196.933 2.715 198.988 1.695 201.268 1.035C203.548 0.345 205.813 0 208.063 0C210.163 0 212.263 0.300001 214.363 0.900002C216.463 1.47 218.413 2.34 220.213 3.51L218.908 5.805C217.648 4.335 216.118 3.18 214.318 2.34C212.518 1.47 210.433 1.05 208.063 1.08C205.723 1.11 203.653 1.545 201.853 2.385C200.053 3.195 198.538 4.29 197.308 5.67C196.108 7.02 195.193 8.61 194.563 10.44C193.933 12.24 193.618 14.13 193.618 16.11C193.618 18.15 193.933 20.1 194.563 21.96C195.193 23.82 196.123 25.455 197.353 26.865C198.583 28.275 200.098 29.4 201.898 30.24C203.698 31.05 205.768 31.455 208.108 31.455C209.608 31.455 210.988 31.29 212.248 30.96C213.508 30.6 214.663 30.12 215.713 29.52V10.935ZM251.286 9.585H234.636V1.935H251.286C252.006 1.935 252.576 2.01 252.996 2.16C253.416 2.31 253.731 2.55 253.941 2.88C254.151 3.18 254.286 3.6 254.346 4.14C254.406 4.65 254.436 5.265 254.436 5.985C254.436 6.735 254.406 7.35 254.346 7.83C254.286 8.28 254.151 8.64 253.941 8.91C253.731 9.18 253.416 9.36 252.996 9.45C252.576 9.54 252.006 9.585 251.286 9.585ZM234.636 10.935H244.221L256.371 32.085H261.591L249.351 10.935H252.186C253.176 10.935 254.106 10.86 254.976 10.71C255.846 10.56 256.611 10.305 257.271 9.945C257.931 9.585 258.441 9.09 258.801 8.46C259.191 7.8 259.386 6.975 259.386 5.985C259.386 4.995 259.191 4.155 258.801 3.465C258.441 2.775 257.931 2.22 257.271 1.8C256.611 1.38 255.846 1.08 254.976 0.900002C254.106 0.690001 253.176 0.585001 252.186 0.585001H230.136V32.085H234.636V10.935ZM283.138 6.885L276.388 18.585H290.878L284.128 6.885H283.138ZM291.643 19.935H275.668L268.603 32.085H267.028L285.208 0.585001H285.658L303.883 32.085H298.663L291.643 19.935ZM332.623 9.45C332.203 9.54 331.633 9.585 330.913 9.585H314.263V1.935H330.913C331.633 1.935 332.203 2.01 332.623 2.16C333.043 2.31 333.358 2.55 333.568 2.88C333.778 3.18 333.913 3.6 333.973 4.14C334.033 4.65 334.063 5.265 334.063 5.985C334.063 6.735 334.033 7.35 333.973 7.83C333.913 8.28 333.778 8.64 333.568 8.91C333.358 9.18 333.043 9.36 332.623 9.45ZM314.263 32.085V10.935H331.813C332.803 10.935 333.733 10.86 334.603 10.71C335.473 10.56 336.238 10.305 336.898 9.945C337.559 9.585 338.068 9.09 338.428 8.46C338.818 7.8 339.013 6.975 339.013 5.985C339.013 4.995 338.818 4.155 338.428 3.465C338.068 2.775 337.559 2.22 336.898 1.8C336.238 1.38 335.473 1.08 334.603 0.900002C333.733 0.690001 332.803 0.585001 331.813 0.585001H309.763V32.085H314.263ZM348.914 9.585H374.563V0.585001H379.063V32.085H374.563V10.935H348.914V32.085H344.414V0.585001H348.914V9.585ZM409.819 9.585H392.089V1.935H414.274L415.039 0.585001H387.589V32.085H416.074L416.839 30.735H392.089V10.935H409.054L409.819 9.585ZM426.431 9.585H443.081C443.801 9.585 444.371 9.54 444.791 9.45C445.211 9.36 445.526 9.18 445.736 8.91C445.946 8.64 446.081 8.28 446.141 7.83C446.201 7.35 446.231 6.735 446.231 5.985C446.231 5.265 446.201 4.65 446.141 4.14C446.081 3.6 445.946 3.18 445.736 2.88C445.526 2.55 445.211 2.31 444.791 2.16C444.371 2.01 443.801 1.935 443.081 1.935H426.431V9.585ZM436.016 10.935H426.431V32.085H421.931V0.585001H443.981C444.971 0.585001 445.901 0.690001 446.771 0.900002C447.641 1.08 448.406 1.38 449.066 1.8C449.726 2.22 450.236 2.775 450.596 3.465C450.986 4.155 451.181 4.995 451.181 5.985C451.181 6.975 450.986 7.8 450.596 8.46C450.236 9.09 449.726 9.585 449.066 9.945C448.406 10.305 447.641 10.56 446.771 10.71C445.901 10.86 444.971 10.935 443.981 10.935H441.146L453.386 32.085H448.166L436.016 10.935ZM571.734 9.225C570.594 11.265 570.024 13.65 570.024 16.38C570.024 19.08 570.594 21.45 571.734 23.49C572.904 25.53 574.389 27.225 576.189 28.575C578.019 29.925 580.074 30.945 582.354 31.635C584.634 32.325 586.899 32.67 589.149 32.67C591.399 32.67 593.664 32.325 595.944 31.635C598.224 30.945 600.279 29.925 602.109 28.575C603.939 27.225 605.424 25.53 606.564 23.49C607.734 21.45 608.319 19.08 608.319 16.38C608.319 13.65 607.734 11.265 606.564 9.225C605.424 7.155 603.939 5.445 602.109 4.095C600.279 2.715 598.224 1.695 595.944 1.035C593.664 0.345 591.399 0 589.149 0C586.899 0 584.634 0.345 582.354 1.035C580.074 1.695 578.019 2.715 576.189 4.095C574.389 5.445 572.904 7.155 571.734 9.225ZM575.649 21.96C575.019 20.1 574.704 18.15 574.704 16.11C574.704 14.13 575.019 12.24 575.649 10.44C576.279 8.61 577.194 7.02 578.394 5.67C579.624 4.29 581.139 3.195 582.939 2.385C584.739 1.545 586.809 1.11 589.149 1.08C591.489 1.05 593.559 1.455 595.359 2.295C597.159 3.135 598.674 4.275 599.904 5.715C601.134 7.125 602.064 8.775 602.694 10.665C603.354 12.525 603.684 14.475 603.684 16.515C603.654 18.495 603.324 20.385 602.694 22.185C602.064 23.985 601.134 25.575 599.904 26.955C598.704 28.335 597.204 29.43 595.404 30.24C593.604 31.05 591.534 31.455 589.194 31.455C586.854 31.455 584.784 31.05 582.984 30.24C581.184 29.4 579.669 28.275 578.439 26.865C577.209 25.455 576.279 23.82 575.649 21.96ZM515.15 9.585C515.87 9.585 516.44 9.54 516.86 9.45C517.28 9.36 517.595 9.18 517.805 8.91C518.015 8.64 518.15 8.28 518.21 7.83C518.27 7.35 518.3 6.735 518.3 5.985C518.3 5.265 518.27 4.65 518.21 4.14C518.15 3.6 518.015 3.18 517.805 2.88C517.595 2.55 517.28 2.31 516.86 2.16C516.44 2.01 515.87 1.935 515.15 1.935H498.5V9.585H515.15ZM498.5 10.935V32.085H494V0.585001H516.05C517.04 0.585001 517.97 0.690001 518.84 0.900002C519.71 1.08 520.475 1.38 521.135 1.8C521.795 2.22 522.305 2.775 522.665 3.465C523.055 4.155 523.25 4.995 523.25 5.985C523.25 6.975 523.055 7.8 522.665 8.46C522.305 9.09 521.795 9.585 521.135 9.945C520.475 10.305 519.71 10.56 518.84 10.71C517.97 10.86 517.04 10.935 516.05 10.935H498.5ZM533.15 9.585H558.8V0.585001H563.3V32.085H558.8V10.935H533.15V32.085H528.65V0.585001H533.15V9.585ZM639.503 0.585001L638.738 1.935H626.093L626.003 32.085H621.953V1.935H608.453L609.218 0.585001H639.503ZM641.737 9.225C640.597 11.265 640.027 13.65 640.027 16.38C640.027 19.08 640.597 21.45 641.737 23.49C642.907 25.53 644.392 27.225 646.192 28.575C648.022 29.925 650.077 30.945 652.357 31.635C654.637 32.325 656.902 32.67 659.152 32.67C661.402 32.67 663.667 32.325 665.947 31.635C668.227 30.945 670.282 29.925 672.112 28.575C673.942 27.225 675.427 25.53 676.567 23.49C677.737 21.45 678.322 19.08 678.322 16.38C678.322 13.65 677.737 11.265 676.567 9.225C675.427 7.155 673.942 5.445 672.112 4.095C670.282 2.715 668.227 1.695 665.947 1.035C663.667 0.345 661.402 0 659.152 0C656.902 0 654.637 0.345 652.357 1.035C650.077 1.695 648.022 2.715 646.192 4.095C644.392 5.445 642.907 7.155 641.737 9.225ZM645.652 21.96C645.022 20.1 644.707 18.15 644.707 16.11C644.707 14.13 645.022 12.24 645.652 10.44C646.282 8.61 647.197 7.02 648.397 5.67C649.627 4.29 651.142 3.195 652.942 2.385C654.742 1.545 656.812 1.11 659.152 1.08C661.492 1.05 663.562 1.455 665.362 2.295C667.162 3.135 668.677 4.275 669.907 5.715C671.137 7.125 672.067 8.775 672.697 10.665C673.357 12.525 673.687 14.475 673.687 16.515C673.657 18.495 673.327 20.385 672.697 22.185C672.067 23.985 671.137 25.575 669.907 26.955C668.707 28.335 667.207 29.43 665.407 30.24C663.607 31.05 661.537 31.455 659.197 31.455C656.857 31.455 654.787 31.05 652.987 30.24C651.187 29.4 649.672 28.275 648.442 26.865C647.212 25.455 646.282 23.82 645.652 21.96ZM709.714 10.935H706.608L707.373 9.585H714.214V29.16C712.413 30.33 710.464 31.215 708.363 31.815C706.263 32.385 704.163 32.67 702.063 32.67C699.813 32.67 697.548 32.325 695.268 31.635C692.988 30.945 690.933 29.925 689.103 28.575C687.303 27.225 685.818 25.53 684.648 23.49C683.508 21.45 682.938 19.08 682.938 16.38C682.938 13.65 683.508 11.265 684.648 9.225C685.818 7.155 687.303 5.445 689.103 4.095C690.933 2.715 692.988 1.695 695.268 1.035C697.548 0.345 699.813 0 702.063 0C704.163 0 706.263 0.300001 708.363 0.900002C710.464 1.47 712.413 2.34 714.214 3.51L712.908 5.805C711.648 4.335 710.118 3.18 708.318 2.34C706.518 1.47 704.433 1.05 702.063 1.08C699.724 1.11 697.653 1.545 695.853 2.385C694.053 3.195 692.538 4.29 691.308 5.67C690.108 7.02 689.193 8.61 688.563 10.44C687.933 12.24 687.618 14.13 687.618 16.11C687.618 18.15 687.933 20.1 688.563 21.96C689.193 23.82 690.123 25.455 691.353 26.865C692.583 28.275 694.099 29.4 695.898 30.24C697.698 31.05 699.768 31.455 702.108 31.455C703.608 31.455 704.988 31.29 706.248 30.96C707.508 30.6 708.663 30.12 709.714 29.52V10.935ZM745.286 9.585H728.636V1.935H745.286C746.006 1.935 746.576 2.01 746.996 2.16C747.416 2.31 747.731 2.55 747.941 2.88C748.151 3.18 748.286 3.6 748.346 4.14C748.406 4.65 748.436 5.265 748.436 5.985C748.436 6.735 748.406 7.35 748.346 7.83C748.286 8.28 748.151 8.64 747.941 8.91C747.731 9.18 747.416 9.36 746.996 9.45C746.576 9.54 746.006 9.585 745.286 9.585ZM728.636 10.935H738.221L750.371 32.085H755.591L743.351 10.935H746.186C747.176 10.935 748.106 10.86 748.976 10.71C749.846 10.56 750.611 10.305 751.271 9.945C751.931 9.585 752.441 9.09 752.801 8.46C753.191 7.8 753.386 6.975 753.386 5.985C753.386 4.995 753.191 4.155 752.801 3.465C752.441 2.775 751.931 2.22 751.271 1.8C750.611 1.38 749.846 1.08 748.976 0.900002C748.106 0.690001 747.176 0.585001 746.186 0.585001H724.136V32.085H728.636V10.935ZM777.138 6.885L770.388 18.585H784.878L778.128 6.885H777.138ZM785.643 19.935H769.668L762.603 32.085H761.028L779.208 0.585001H779.658L797.883 32.085H792.663L785.643 19.935ZM826.623 9.45C826.203 9.54 825.633 9.585 824.913 9.585H808.263V1.935H824.913C825.633 1.935 826.203 2.01 826.623 2.16C827.043 2.31 827.359 2.55 827.568 2.88C827.778 3.18 827.913 3.6 827.973 4.14C828.033 4.65 828.063 5.265 828.063 5.985C828.063 6.735 828.033 7.35 827.973 7.83C827.913 8.28 827.778 8.64 827.568 8.91C827.359 9.18 827.043 9.36 826.623 9.45ZM808.263 32.085V10.935H825.813C826.803 10.935 827.733 10.86 828.603 10.71C829.473 10.56 830.239 10.305 830.898 9.945C831.558 9.585 832.068 9.09 832.428 8.46C832.818 7.8 833.013 6.975 833.013 5.985C833.013 4.995 832.818 4.155 832.428 3.465C832.068 2.775 831.558 2.22 830.898 1.8C830.239 1.38 829.473 1.08 828.603 0.900002C827.733 0.690001 826.803 0.585001 825.813 0.585001H803.763V32.085H808.263ZM842.914 9.585H868.563V0.585001H873.063V32.085H868.563V10.935H842.914V32.085H838.414V0.585001H842.914V9.585ZM903.819 9.585H886.089V1.935H908.274L909.039 0.585001H881.589V32.085H910.074L910.839 30.735H886.089V10.935H903.054L903.819 9.585ZM920.431 9.585H937.081C937.801 9.585 938.371 9.54 938.791 9.45C939.211 9.36 939.526 9.18 939.736 8.91C939.946 8.64 940.081 8.28 940.141 7.83C940.201 7.35 940.231 6.735 940.231 5.985C940.231 5.265 940.201 4.65 940.141 4.14C940.081 3.6 939.946 3.18 939.736 2.88C939.526 2.55 939.211 2.31 938.791 2.16C938.371 2.01 937.801 1.935 937.081 1.935H920.431V9.585ZM930.016 10.935H920.431V32.085H915.931V0.585001H937.981C938.971 0.585001 939.901 0.690001 940.771 0.900002C941.641 1.08 942.406 1.38 943.066 1.8C943.726 2.22 944.236 2.775 944.596 3.465C944.986 4.155 945.181 4.995 945.181 5.985C945.181 6.975 944.986 7.8 944.596 8.46C944.236 9.09 943.726 9.585 943.066 9.945C942.406 10.305 941.641 10.56 940.771 10.71C939.901 10.86 938.971 10.935 937.981 10.935H935.146L947.386 32.085H942.166L930.016 10.935ZM1064.02 16.38C1064.02 13.65 1064.59 11.265 1065.73 9.225C1066.9 7.155 1068.39 5.445 1070.19 4.095C1072.02 2.715 1074.07 1.695 1076.35 1.035C1078.63 0.345 1080.9 0 1083.15 0C1085.4 0 1087.66 0.345 1089.94 1.035C1092.22 1.695 1094.28 2.715 1096.11 4.095C1097.94 5.445 1099.42 7.155 1100.56 9.225C1101.73 11.265 1102.32 13.65 1102.32 16.38C1102.32 19.08 1101.73 21.45 1100.56 23.49C1099.42 25.53 1097.94 27.225 1096.11 28.575C1094.28 29.925 1092.22 30.945 1089.94 31.635C1087.66 32.325 1085.4 32.67 1083.15 32.67C1080.9 32.67 1078.63 32.325 1076.35 31.635C1074.07 30.945 1072.02 29.925 1070.19 28.575C1068.39 27.225 1066.9 25.53 1065.73 23.49C1064.59 21.45 1064.02 19.08 1064.02 16.38ZM1068.7 16.11C1068.7 18.15 1069.02 20.1 1069.65 21.96C1070.28 23.82 1071.21 25.455 1072.44 26.865C1073.67 28.275 1075.18 29.4 1076.98 30.24C1078.78 31.05 1080.85 31.455 1083.19 31.455C1085.53 31.455 1087.6 31.05 1089.4 30.24C1091.2 29.43 1092.7 28.335 1093.9 26.955C1095.13 25.575 1096.06 23.985 1096.69 22.185C1097.32 20.385 1097.65 18.495 1097.68 16.515C1097.68 14.475 1097.35 12.525 1096.69 10.665C1096.06 8.775 1095.13 7.125 1093.9 5.715C1092.67 4.275 1091.16 3.135 1089.36 2.295C1087.56 1.455 1085.49 1.05 1083.15 1.08C1080.81 1.11 1078.74 1.545 1076.94 2.385C1075.14 3.195 1073.62 4.29 1072.39 5.67C1071.19 7.02 1070.28 8.61 1069.65 10.44C1069.02 12.24 1068.7 14.13 1068.7 16.11ZM1010.86 9.45C1010.44 9.54 1009.87 9.585 1009.15 9.585H992.5V1.935H1009.15C1009.87 1.935 1010.44 2.01 1010.86 2.16C1011.28 2.31 1011.59 2.55 1011.8 2.88C1012.02 3.18 1012.15 3.6 1012.21 4.14C1012.27 4.65 1012.3 5.265 1012.3 5.985C1012.3 6.735 1012.27 7.35 1012.21 7.83C1012.15 8.28 1012.02 8.64 1011.8 8.91C1011.59 9.18 1011.28 9.36 1010.86 9.45ZM992.5 32.085V10.935H1010.05C1011.04 10.935 1011.97 10.86 1012.84 10.71C1013.71 10.56 1014.47 10.305 1015.14 9.945C1015.79 9.585 1016.3 9.09 1016.66 8.46C1017.05 7.8 1017.25 6.975 1017.25 5.985C1017.25 4.995 1017.05 4.155 1016.66 3.465C1016.3 2.775 1015.79 2.22 1015.14 1.8C1014.47 1.38 1013.71 1.08 1012.84 0.900002C1011.97 0.690001 1011.04 0.585001 1010.05 0.585001H988V32.085H992.5ZM1052.8 9.585H1027.15V0.585001H1022.65V32.085H1027.15V10.935H1052.8V32.085H1057.3V0.585001H1052.8V9.585ZM1132.74 1.935L1133.5 0.585001H1103.22L1102.45 1.935H1115.95V32.085H1120L1120.09 1.935H1132.74ZM1134.03 16.38C1134.03 13.65 1134.6 11.265 1135.74 9.225C1136.91 7.155 1138.39 5.445 1140.19 4.095C1142.02 2.715 1144.08 1.695 1146.36 1.035C1148.64 0.345 1150.9 0 1153.15 0C1155.4 0 1157.67 0.345 1159.95 1.035C1162.23 1.695 1164.28 2.715 1166.11 4.095C1167.94 5.445 1169.43 7.155 1170.57 9.225C1171.74 11.265 1172.32 13.65 1172.32 16.38C1172.32 19.08 1171.74 21.45 1170.57 23.49C1169.43 25.53 1167.94 27.225 1166.11 28.575C1164.28 29.925 1162.23 30.945 1159.95 31.635C1157.67 32.325 1155.4 32.67 1153.15 32.67C1150.9 32.67 1148.64 32.325 1146.36 31.635C1144.08 30.945 1142.02 29.925 1140.19 28.575C1138.39 27.225 1136.91 25.53 1135.74 23.49C1134.6 21.45 1134.03 19.08 1134.03 16.38ZM1138.71 16.11C1138.71 18.15 1139.02 20.1 1139.65 21.96C1140.28 23.82 1141.21 25.455 1142.44 26.865C1143.67 28.275 1145.19 29.4 1146.99 30.24C1148.79 31.05 1150.86 31.455 1153.2 31.455C1155.54 31.455 1157.61 31.05 1159.41 30.24C1161.21 29.43 1162.71 28.335 1163.91 26.955C1165.14 25.575 1166.07 23.985 1166.7 22.185C1167.33 20.385 1167.66 18.495 1167.69 16.515C1167.69 14.475 1167.36 12.525 1166.7 10.665C1166.07 8.775 1165.14 7.125 1163.91 5.715C1162.68 4.275 1161.16 3.135 1159.36 2.295C1157.56 1.455 1155.49 1.05 1153.15 1.08C1150.81 1.11 1148.74 1.545 1146.94 2.385C1145.14 3.195 1143.63 4.29 1142.4 5.67C1141.2 7.02 1140.28 8.61 1139.65 10.44C1139.02 12.24 1138.71 14.13 1138.71 16.11ZM1200.61 10.935H1203.71V29.52C1202.66 30.12 1201.51 30.6 1200.25 30.96C1198.99 31.29 1197.61 31.455 1196.11 31.455C1193.77 31.455 1191.7 31.05 1189.9 30.24C1188.1 29.4 1186.58 28.275 1185.35 26.865C1184.12 25.455 1183.19 23.82 1182.56 21.96C1181.93 20.1 1181.62 18.15 1181.62 16.11C1181.62 14.13 1181.93 12.24 1182.56 10.44C1183.19 8.61 1184.11 7.02 1185.31 5.67C1186.54 4.29 1188.05 3.195 1189.85 2.385C1191.65 1.545 1193.72 1.11 1196.06 1.08C1198.43 1.05 1200.52 1.47 1202.32 2.34C1204.12 3.18 1205.65 4.335 1206.91 5.805L1208.21 3.51C1206.41 2.34 1204.46 1.47 1202.36 0.900002C1200.26 0.300001 1198.16 0 1196.06 0C1193.81 0 1191.55 0.345 1189.27 1.035C1186.99 1.695 1184.93 2.715 1183.1 4.095C1181.3 5.445 1179.82 7.155 1178.65 9.225C1177.51 11.265 1176.94 13.65 1176.94 16.38C1176.94 19.08 1177.51 21.45 1178.65 23.49C1179.82 25.53 1181.3 27.225 1183.1 28.575C1184.93 29.925 1186.99 30.945 1189.27 31.635C1191.55 32.325 1193.81 32.67 1196.06 32.67C1198.16 32.67 1200.26 32.385 1202.36 31.815C1204.46 31.215 1206.41 30.33 1208.21 29.16V9.585H1201.37L1200.61 10.935ZM1222.64 9.585H1239.29C1240.01 9.585 1240.58 9.54 1241 9.45C1241.42 9.36 1241.73 9.18 1241.94 8.91C1242.15 8.64 1242.29 8.28 1242.35 7.83C1242.41 7.35 1242.44 6.735 1242.44 5.985C1242.44 5.265 1242.41 4.65 1242.35 4.14C1242.29 3.6 1242.15 3.18 1241.94 2.88C1241.73 2.55 1241.42 2.31 1241 2.16C1240.58 2.01 1240.01 1.935 1239.29 1.935H1222.64V9.585ZM1232.22 10.935H1222.64V32.085H1218.14V0.585001H1240.19C1241.18 0.585001 1242.11 0.690001 1242.98 0.900002C1243.85 1.08 1244.61 1.38 1245.27 1.8C1245.93 2.22 1246.44 2.775 1246.8 3.465C1247.19 4.155 1247.39 4.995 1247.39 5.985C1247.39 6.975 1247.19 7.8 1246.8 8.46C1246.44 9.09 1245.93 9.585 1245.27 9.945C1244.61 10.305 1243.85 10.56 1242.98 10.71C1242.11 10.86 1241.18 10.935 1240.19 10.935H1237.35L1249.59 32.085H1244.37L1232.22 10.935ZM1264.39 18.585L1271.14 6.885H1272.13L1278.88 18.585H1264.39ZM1263.67 19.935H1279.64L1286.66 32.085H1291.88L1273.66 0.585001H1273.21L1255.03 32.085H1256.6L1263.67 19.935ZM1318.91 9.585C1319.63 9.585 1320.2 9.54 1320.62 9.45C1321.04 9.36 1321.36 9.18 1321.57 8.91C1321.78 8.64 1321.91 8.28 1321.97 7.83C1322.03 7.35 1322.06 6.735 1322.06 5.985C1322.06 5.265 1322.03 4.65 1321.97 4.14C1321.91 3.6 1321.78 3.18 1321.57 2.88C1321.36 2.55 1321.04 2.31 1320.62 2.16C1320.2 2.01 1319.63 1.935 1318.91 1.935H1302.26V9.585H1318.91ZM1302.26 10.935V32.085H1297.76V0.585001H1319.81C1320.8 0.585001 1321.73 0.690001 1322.6 0.900002C1323.47 1.08 1324.24 1.38 1324.9 1.8C1325.56 2.22 1326.07 2.775 1326.43 3.465C1326.82 4.155 1327.01 4.995 1327.01 5.985C1327.01 6.975 1326.82 7.8 1326.43 8.46C1326.07 9.09 1325.56 9.585 1324.9 9.945C1324.24 10.305 1323.47 10.56 1322.6 10.71C1321.73 10.86 1320.8 10.935 1319.81 10.935H1302.26ZM1362.56 9.585H1336.91V0.585001H1332.41V32.085H1336.91V10.935H1362.56V32.085H1367.06V0.585001H1362.56V9.585ZM1380.09 9.585H1397.82L1397.05 10.935H1380.09V30.735H1404.84L1404.07 32.085H1375.59V0.585001H1403.04L1402.27 1.935H1380.09V9.585ZM1431.08 9.585H1414.43V1.935H1431.08C1431.8 1.935 1432.37 2.01 1432.79 2.16C1433.21 2.31 1433.53 2.55 1433.74 2.88C1433.95 3.18 1434.08 3.6 1434.14 4.14C1434.2 4.65 1434.23 5.265 1434.23 5.985C1434.23 6.735 1434.2 7.35 1434.14 7.83C1434.08 8.28 1433.95 8.64 1433.74 8.91C1433.53 9.18 1433.21 9.36 1432.79 9.45C1432.37 9.54 1431.8 9.585 1431.08 9.585ZM1414.43 10.935H1424.02L1436.17 32.085H1441.39L1429.15 10.935H1431.98C1432.97 10.935 1433.9 10.86 1434.77 10.71C1435.64 10.56 1436.41 10.305 1437.07 9.945C1437.73 9.585 1438.24 9.09 1438.6 8.46C1438.99 7.8 1439.18 6.975 1439.18 5.985C1439.18 4.995 1438.99 4.155 1438.6 3.465C1438.24 2.775 1437.73 2.22 1437.07 1.8C1436.41 1.38 1435.64 1.08 1434.77 0.900002C1433.9 0.690001 1432.97 0.585001 1431.98 0.585001H1409.93V32.085H1414.43V10.935ZM476.72 14.085C476.72 15.7418 475.377 17.085 473.72 17.085C472.063 17.085 470.72 15.7418 470.72 14.085C470.72 12.4281 472.063 11.085 473.72 11.085C475.377 11.085 476.72 12.4281 476.72 14.085ZM967.72 17.085C969.377 17.085 970.72 15.7418 970.72 14.085C970.72 12.4281 969.377 11.085 967.72 11.085C966.063 11.085 964.72 12.4281 964.72 14.085C964.72 15.7418 966.063 17.085 967.72 17.085Z" fill="#A89861" fill-opacity="0.2"/>
</svg>
