<svg width="264" height="240" fill="none" xmlns="http://www.w3.org/2000/svg"><path d="M0 2.875C6.968-.892 13.935-.138 20.903.615c6.968.753 13.936 2.26 20.13 4.52 3.096.754 6.193 2.26 9.29 3.767 3.096 1.507 6.193 3.014 8.516 4.52 3.096.754 6.193.754 10.064.754h10.065c3.87.753 7.742 3.013 11.613 5.273 3.096 2.26 6.193 6.027 7.742 9.794 3.096 7.534 3.096 15.82 3.871 22.6l-.775-1.506 3.097 6.027-6.193-1.507c11.612-9.04 23.225-16.574 36.387-23.354 13.161-6.78 26.322-11.3 41.032-14.314 6.968-1.507 14.71-2.26 22.452-1.507 3.871 0 7.741 1.507 10.838 2.26 1.549.754 3.097.754 4.645.754 1.549 0 2.323 0 4.646-.754 7.742-.753 14.709-.753 21.677 0 3.871 0 6.968.754 10.839 1.507 1.548 0 3.871.754 5.419.754.774 0 1.548.753 3.097.753.774 0 .774.753 1.548 1.507 2.323 2.26 2.323 4.52 1.549 5.273v-.753h.774c.774 0 .774 1.507.774 2.26-.774 0-.774.753-.774.753l-.774.754h-.775l-.774.753-3.097 2.26-6.967 3.767.774-2.26c0 .753.774.753-.774 0 0 0 .774-.754 1.548.753.774 1.507 0 1.507 0 1.507l-.774.753h-.774l-.774.754-3.871 2.26c-3.097 1.507-5.42 2.26-6.968 4.52-2.323 1.507-4.645 3.767-6.968 5.274-1.548.753-2.323 1.506-3.871 2.26-.774 0-1.548.753-2.322.753-.775 0-2.323.753-3.871-.753l2.322-1.507c.774.753.774 3.013 0 3.767l-2.322 2.26c-1.549 1.507-3.097 2.26-4.646 3.013l-4.645 2.26c-.774 0-1.548.754-2.322.754h-3.097c-.774 0-.774-.754-1.549-.754l-6.967-8.287 9.29 6.027c1.548.754 1.548 3.014.774 3.767.774.754 0 1.507 0 2.26-1.548 1.507-2.322 2.26-3.871 3.014l-4.645 2.26c-.774 0-1.548.753-2.322.753-.775 0-2.323 0-3.097-1.507l3.097-.753c0 3.014-2.323 6.027-5.42 7.534-3.097 1.506-6.193 2.26-8.516 2.26l1.548-3.014c.775.754 1.549 3.014.775 4.52-.775 1.507-1.549 2.26-2.323 3.014-1.548 1.507-3.871 1.507-5.419 2.26-3.097 1.507-6.194 3.014-8.516 6.027-5.42 5.274-10.839 10.547-17.807 15.067-3.097 2.26-6.193 3.767-7.742 6.781-1.548 2.26-3.097 6.027-3.097 9.04 0 3.013.775 6.78.775 10.547 0 3.767.774 7.534.774 11.301v18.834c0 .753.774 2.26.774 3.013.774 5.274 0 6.027 2.323 9.794l3.871 10.547c2.322 6.78 4.645 14.314 6.967 21.094 2.323 7.534 4.645 14.314 4.645 23.355v3.766l-3.871.754h-3.87c-1.549 0-3.097-1.507-4.646-3.014 0-.753-1.548-2.26.775.754.774.753 1.548.753 2.322.753s2.323 0 3.097-.753l1.548-1.507v-.753.753l-.774 4.52h-3.871c-3.097 0-4.645-1.507-6.193-3.013-1.549-1.507-2.323-3.014-2.323-4.521l.774.754.774.753c.775 0 1.549.754 2.323.754 1.548 0 3.097-.754 3.097-.754l.774-.753s0 .753-.774 1.507l-1.549 6.78-6.193-3.767-3.871-3.013c-.774-.754-2.323-1.507-3.097-2.261-1.548-1.506-3.871-3.766-5.419-6.026-2.323-3.767-4.645-7.534-6.194-11.301-3.871-7.534-6.968-15.067-9.29-23.354-2.323-7.534-4.645-15.821-6.194-24.108v-2.26c0-.753 0-1.507-.774-2.26l-2.322-4.52c-2.323-3.014-5.42-7.534-6.968-11.301l8.516 1.507c-1.548 1.507-2.323 2.26-3.871 3.013-.774.754-2.323.754-3.871.754s-3.871-.754-4.645-1.507l-3.097-3.013c-.774-1.507-1.548-3.014-2.323-3.767l-2.322-4.52-3.871-4.521c-5.42-6.78-10.065-13.56-13.936-21.847-1.548-3.767-3.87-7.534-4.645-12.054l-.774-3.767V86.5l-.774-24.108c0-3.013-1.549-7.534-2.323-11.3-1.548-3.767-2.322-8.287-3.87-12.054-.775-3.767-2.323-7.534-3.872-11.3-1.548-3.014-3.87-6.028-6.967-8.288-6.194-5.273-13.936-8.287-21.678-10.547-3.87-1.507-7.742-2.26-12.387-3.013C8.517 5.135 3.871 3.629 0 2.875zm.774 0c4.645.754 7.742 0 12.387 1.507 3.871.753 8.516 1.507 12.387 2.26 8.517 2.26 17.033 4.52 24 9.794 3.871 3.013 6.194 6.027 8.517 9.794 2.322 3.013 3.87 7.533 5.419 11.3.774 3.767 2.322 7.534 3.097 12.054.774 3.767 2.322 7.533 3.096 12.807L72 87.252l.774 6.027v3.014l.774 1.506c.775 3.014 2.323 6.78 4.646 10.547 3.87 6.781 8.516 13.561 13.16 19.588l3.872 4.52c1.548 2.26 3.097 3.767 3.87 6.027l.775 1.507 1.548 1.506-1.548-.753h-.774l.774-.753 5.419-6.027 3.097 7.533c1.548 3.767 3.097 6.027 5.419 9.041 1.549 2.26 3.097 3.767 3.871 6.027.775 1.506.775 2.26 1.549 3.767v3.766c.774 7.534 3.097 15.068 5.419 22.601 2.323 7.534 5.42 15.068 9.29 21.848 1.549 3.767 3.871 6.78 5.42 10.547.774 1.507 1.548 2.26 3.097 3.767.774.753 1.548.753 2.322 1.507l.774.753 1.549 1.507-7.742 2.26c0-1.507.774-2.26 1.548-3.767 0 0 0-.753.774-.753 0 0 .775-.754.775-1.507 0 0 2.322-1.507 3.096-1.507.775 0 1.549 0 2.323.753.774.754.774.754 1.548.754 1.549 2.26 1.549 3.013 1.549 3.013v.754h-.774l-4.646 3.766c0-.753 0-1.506.775-2.26 0 0 0-.753.774-1.506l1.548-1.507c.774-.753 2.323-.753 3.871-.753.774 0 1.549.753 2.323 1.506l1.548 1.507v.753s0 .754 0 0l-1.548-1.506-3.871 4.52c0-6.027-1.549-13.561-3.871-20.341-2.323-6.78-4.645-14.314-6.968-21.094l-3.097-10.547-.774-3.014c0-.753-.774-2.26-.774-3.013 0-2.26 0-4.52-.774-5.274l-.775-6.027v-28.628c0-3.766-.774-6.78 0-11.3.775-4.52 2.323-8.287 4.646-11.301 2.322-3.766 6.967-6.027 9.29-7.533 6.194-3.767 11.613-8.287 17.032-13.56 3.097-3.014 6.194-5.274 10.065-6.781 3.871-.754 7.742-2.26 6.193-3.767l-2.322-2.26h3.871c2.322 0 5.419-.753 7.742-1.507 2.322-.753 3.871-3.013 3.871-5.273l3.096-.754h2.323c1.548-.753 2.323-.753 3.871-1.506 1.548-.754 2.323-1.507 3.097-2.26.774-.754.774-.754.774-1.507 0-.754 0 0 0 0l2.322-2.26-.774-.754h.774c1.549-.753 2.323-.753 3.097-.753 1.549-.753 3.097-1.507 4.645-1.507 1.549-.753 2.323-1.507 3.871-2.26 1.549-.753 1.549-1.507 1.549-2.26l1.548-2.26h.774c.775 0 1.549-.753 1.549-.753 1.548-.754 2.322-1.507 3.871-2.26 2.322-1.507 4.645-3.014 6.967-5.274 2.323-2.26 5.42-3.767 7.742-4.52l3.871-2.26.775-.754h.774s-.774 0-.774.754c0 0-.775 0 0 1.506.774 1.507 2.322.754 1.548.754-1.548 0-2.323-.754-2.323-1.507 0-.753-.774-.753-.774-1.507l-.774-1.507 1.548-.753c2.323-1.506 3.871-2.26 6.194-3.767l3.097-2.26.774-.753-.774.753c0 .754 0 1.507.774 2.26.774 0 .774 0 0 0h-.774l-.775-.753c0-.753-.774-.753-.774-.753v-2.26 1.506h-.774c-.774 0-1.548-.753-2.323-.753-1.548 0-3.096-.753-4.645-.753-3.096 0-6.967-.754-10.064-.754-6.968 0-13.936 0-20.903.754-1.549 0-3.871.753-6.194.753s-3.871 0-6.194-.753c-3.87-.754-6.193-1.507-10.064-1.507-6.968 0-13.161.753-20.129 1.507-13.161 3.013-26.323 7.533-38.71 14.314-12.387 6.026-24.774 12.807-35.613 21.847l-3.87 3.014.774-5.274-3.097-6.027v-1.507c0-7.533 0-14.314-3.097-20.34-2.323-6.027-7.742-9.794-13.935-12.054h.774l-10.839-.754c-3.097 0-6.968 0-10.839-1.507-3.096-1.506-6.193-3.766-9.29-5.273-2.323-1.507-5.42-2.26-8.516-3.767-6.194-3.013-12.387-4.52-19.355-6.027-3.097-.753-6.194-.753-9.29-.753-3.871-.754-6.968.753-10.065.753z" fill="#000" fill-opacity=".03"/></svg>