<svg width="151" height="150" fill="none" xmlns="http://www.w3.org/2000/svg"><g clip-path="url(#clip0_670_2275)" fill="#8E9495"><path d="M112.08 18.369l-5.365-3.183-4.82 2.665-.519-.31 12.414-6.96.155.078-.155 14.229-1.762-1.035.052-5.485zm-.234-6.08l-4.613 2.587 4.872 2.897.078-5.277-.337-.207zm2.514 13.142l8.526-8.874 3.81 3.648a11.05 11.05 0 011.684 2.096c.493.776.804 1.604.959 2.483.156.854.156 1.734-.077 2.613-.208.88-.7 1.708-1.426 2.458-.725.75-1.529 1.268-2.384 1.526a5.516 5.516 0 01-2.592.156 7.616 7.616 0 01-2.513-.854 10.162 10.162 0 01-2.177-1.578l-3.81-3.674zm9.511-7.373l-7.904 8.253 2.565 2.457c.674.621 1.348 1.087 2.074 1.372a5.114 5.114 0 002.125.362 5.593 5.593 0 002.021-.543 6.146 6.146 0 001.788-1.32 6.997 6.997 0 001.296-1.889 5.617 5.617 0 00.493-2.095c.026-.724-.13-1.423-.415-2.121-.285-.699-.778-1.372-1.451-1.992l-2.592-2.484zm12.802 19.714l-.596.051-3.706-5.51-6.427 4.32 5.391 8.046-.596.052-6.22-9.236 10.237-6.856 5.986 8.9-.596.051-4.846-7.192-2.488 1.656 3.861 5.718zm4.484 10.089l-1.4-3.466-7.671 3.104-.674-1.63 11.429-4.63 3.24 7.993c.155.363.259.699.311 1.061a2.95 2.95 0 010 .957 1.56 1.56 0 01-.389.802c-.207.233-.466.44-.829.57-.363.155-.674.206-.985.155a1.749 1.749 0 01-.778-.337 2.488 2.488 0 01-.622-.724 7.051 7.051 0 01-.492-.983l-.415-1.035L136 57.227l-.778-1.889 5.935-7.477zm-.907-3.673l2.436 6.027c.103.26.207.466.311.595.103.13.207.233.337.26a.98.98 0 00.466-.027c.182-.051.415-.129.674-.233a5.66 5.66 0 00.674-.31c.181-.103.311-.207.389-.336a.627.627 0 00.103-.44c0-.181-.052-.388-.181-.647l-2.436-6.028-2.773 1.139zm9.744 20.153l.13.621-8.138-2.69-4.794.983-.363-1.734 4.561-.931 6.609-5.873.414 1.992-5.831 5.174 7.412 2.458zM140.25 79.89v.18l10.444-.18v.517l-12.336.207-.026-1.397 11.636-10.09v-.517l-11.817.181v-.517l12.335-.207.052 2.923-10.288 8.9zm.648 12.159l1.373-6.106-4.043-3.725.13-.595 10.496 9.624-.026.181-13.606 4.269.441-1.992 5.235-1.656zm5.727-2.121l-3.887-3.57-1.244 5.536 5.053-1.578.078-.388zm-6.919 15.522l1.658-3.363-7.438-3.622.778-1.578 11.092 5.407-3.836 7.71a8.145 8.145 0 01-.57.931 2.431 2.431 0 01-.726.647 1.658 1.658 0 01-.855.258c-.311.026-.648-.077-.985-.232a2.135 2.135 0 01-.777-.621 1.482 1.482 0 01-.259-.802c-.026-.285.026-.595.129-.932.104-.336.234-.672.389-1.009l.493-.983-9.537.673.907-1.837 9.537-.647zm2.099-3.156l-2.851 5.847c-.13.259-.207.466-.259.621a.553.553 0 00.026.414c.052.129.155.233.311.336.155.103.363.207.622.336.259.13.466.207.674.285.207.078.362.103.518.078a.91.91 0 00.415-.207c.129-.13.259-.311.362-.57l2.851-5.846-2.669-1.294zm-9.771 21.576l2.955-3.958-9.459-7.063.933-1.267 9.485 7.011 3.161-4.243.234.543-7.075 9.521-.234-.544zm-25.267 10.866l5.442-3.079.052-5.484.544-.311-.104 14.229-.155.078-12.284-7.192 1.788-1.009 4.717 2.768zm5.416 2.794l.026-5.278-4.924 2.795 4.561 2.664.337-.181zm-12.673-4.346l3.473 11.823-5.08 1.5c-.855.259-1.736.388-2.643.414a7.43 7.43 0 01-2.643-.388 5.98 5.98 0 01-2.229-1.345c-.648-.621-1.14-1.449-1.425-2.458-.311-1.009-.337-1.966-.13-2.82a5.769 5.769 0 011.14-2.328 8.164 8.164 0 011.996-1.759 10.282 10.282 0 012.436-1.113l5.105-1.526zm1.659 11.9l-3.24-10.943-3.394 1.009c-.882.259-1.607.621-2.203 1.112-.596.492-1.037 1.035-1.348 1.656a5.309 5.309 0 00-.544 2.018 6.438 6.438 0 00.233 2.199 7 7 0 001.01 2.07c.441.621.96 1.112 1.582 1.475a5.459 5.459 0 002.073.698c.752.104 1.58 0 2.462-.259l3.369-1.035zm-23.506 1.268l.26-.543 6.634-.466-.518-7.709-9.667.672.26-.543 11.117-.75.855 12.288-10.729.725.26-.543 8.655-.596-.207-2.975-6.92.44zm-10.988-1.138l3.732.517 1.114-8.201 1.737.233-1.659 12.211-8.552-1.164a4.287 4.287 0 01-1.063-.259 3.12 3.12 0 01-.829-.466 1.781 1.781 0 01-.518-.724c-.104-.285-.13-.621-.078-1.009.052-.388.156-.698.337-.931.181-.233.415-.388.674-.492.285-.103.596-.155.933-.181.337 0 .7 0 1.088.052l1.089.155-3.629-8.848 2.022.285 3.602 8.822zm3.654 1.035l-6.453-.88c-.285-.026-.492-.052-.674-.026a.597.597 0 00-.388.155c-.104.104-.156.233-.208.414a3.761 3.761 0 00-.13.699c-.025.284-.051.517-.051.724 0 .207.026.388.078.518a.79.79 0 00.337.31c.155.078.362.129.647.181l6.453.88.39-2.975zm-22.365-1.553l-.596-.207 6.375-5.717 1.53-4.657 1.684.544-1.452 4.423 1.815 8.641-1.944-.646-1.607-7.606-5.805 5.225zm-8.708-16.247l-.155-.077-5.132 9.08-.466-.258 6.064-10.737 1.218.699 2.851 15.134.467.259 5.805-10.271.466.259-6.064 10.736-2.54-1.422-2.514-13.402zm-10.832-5.458l4.613 4.217 5.26-1.63.467.414-13.58 4.294-.13-.129 3.059-13.893 1.503 1.371-1.192 5.356zm-1.011 6.028l5.054-1.604-4.199-3.829-1.14 5.148.285.285zm-10.029-13.712l2.099 3.104 6.841-4.656.985 1.448-10.21 6.934-4.847-7.115a5.742 5.742 0 01-.518-.957c-.13-.336-.207-.647-.207-.957 0-.311.051-.595.207-.88.13-.284.363-.517.7-.724.31-.207.622-.336.907-.362.285-.026.57.026.829.181.26.155.518.336.752.569.233.259.466.543.7.854l.621.905 4.147-8.615 1.14 1.682-4.146 8.589zm1.658 3.389l-3.654-5.381a3.572 3.572 0 00-.415-.518c-.13-.103-.259-.181-.388-.181a.985.985 0 00-.44.104c-.156.077-.364.207-.623.362-.233.155-.44.31-.596.44-.155.129-.26.259-.31.414-.053.129-.053.284-.027.465.026.182.156.363.311.595l3.68 5.382 2.462-1.682zM5.151 99.526l1.996 4.527 10.833-4.708.648 1.449-10.807 4.734 2.125 4.838-.596-.052-4.769-10.84.57.052zM8.339 72.18l-.104 6.235 4.717 2.846v.62L.72 74.587v-.181l12.44-6.934-.027 2.044L8.34 72.18zm-5.157 3.234l4.535 2.716.104-5.665-4.64 2.56v.389zm10.081-8.719l-12-2.845 1.219-5.123c.207-.854.518-1.681.959-2.51a7.72 7.72 0 011.658-2.095 6.168 6.168 0 012.281-1.268c.855-.258 1.814-.258 2.85-.026 1.037.233 1.867.673 2.514 1.294a5.954 5.954 0 011.452 2.147c.31.802.492 1.682.518 2.613.026.932-.052 1.811-.259 2.665l-1.192 5.148zm-11.17-4.45l11.118 2.64.83-3.442c.207-.88.258-1.707.129-2.457-.13-.75-.389-1.423-.778-1.992a5.712 5.712 0 00-1.477-1.475 6.623 6.623 0 00-2.047-.88 6.841 6.841 0 00-2.28-.155 5.255 5.255 0 00-2.074.647c-.622.336-1.166.828-1.633 1.449-.466.62-.777 1.371-.984 2.25l-.804 3.416zm10.574-21.007l.337.492-2.903 5.976 6.972 3.39 4.224-8.694.337.492-4.846 10.012-11.092-5.381 4.69-9.65.337.492L6.94 46.18l2.695 1.293 3.032-6.235zm6.479-8.951l-2.307 2.975 6.557 5.045-1.089 1.397-9.77-7.528 5.287-6.83c.233-.31.492-.57.752-.802.259-.233.544-.388.829-.492.285-.103.596-.13.881-.077.311.051.596.18.907.44.311.232.518.491.622.75.104.258.13.543.104.828a3.416 3.416 0 01-.311.905c-.156.31-.363.62-.596.905l-.674.88 9.485 1.268-1.244 1.604-9.433-1.268zm-2.721 2.639l3.99-5.148c.182-.233.286-.414.363-.57.078-.155.104-.284.052-.413a.78.78 0 00-.233-.389 6.012 6.012 0 00-.544-.465 5.095 5.095 0 00-.596-.414 1.438 1.438 0 00-.493-.181.725.725 0 00-.44.13 1.978 1.978 0 00-.467.465l-3.99 5.148 2.358 1.837zM28.916 16.35l.466-.414 1.814 8.383 3.292 3.622-1.296 1.19-3.136-3.467-8.448-2.742 1.529-1.372 7.412 2.406-1.633-7.605zm18.426.544l.156-.078-5.365-8.951.466-.259 6.324 10.53-1.218.724-14.565-5.045-.466.259 6.064 10.115-.466.259-6.324-10.581 2.514-1.5 12.88 4.527zm10.133-6.701l-5.96 1.889-1.193 5.355-.596.181 3.032-13.893.156-.051 10.547 9.572-1.943.62-4.043-3.673zm-4.743-3.855l-1.114 5.149 5.416-1.734-3.913-3.544-.389.13zm16.923-1.862l-3.731.284.621 8.253-1.762.13L63.85.852l8.604-.646a5.021 5.021 0 011.089.026c.337.052.648.155.933.284.259.156.492.337.648.595.155.26.259.57.285.958.026.388-.026.698-.156.983a1.46 1.46 0 01-.57.62 3 3 0 01-.881.363c-.337.077-.7.13-1.089.18l-1.114.079 5.39 7.89-2.047.155-5.287-7.864zm-3.783-.233l6.504-.492c.286-.026.493-.051.674-.103a.738.738 0 00.363-.233c.078-.104.104-.259.13-.44 0-.181 0-.414-.026-.724a21.238 21.238 0 00-.078-.725c-.052-.207-.104-.362-.207-.491a.614.614 0 00-.389-.233c-.181-.052-.389-.052-.674-.026l-6.505.492.208 2.975zM89.43 1.76l-4.925-.518-1.296 11.72-1.58-.182 1.27-11.72-5.262-.568L78 0l11.792 1.268-.363.491z"/></g><defs><clipPath id="clip0_670_2275"><path fill="#fff" transform="translate(.72)" d="M0 0h150v150H0z"/></clipPath></defs></svg>