<svg width="1440" height="33" fill="none" xmlns="http://www.w3.org/2000/svg"><path fill-rule="evenodd" clip-rule="evenodd" d="M77.734 9.225c-1.14 2.04-1.71 4.425-1.71 7.155 0 2.7.57 5.07 1.71 7.11 1.17 2.04 2.655 3.735 4.455 5.085 1.83 1.35 3.885 2.37 6.165 3.06 2.28.69 4.545 1.035 6.795 1.035s4.515-.345 6.795-1.035c2.28-.69 4.335-1.71 6.165-3.06s3.315-3.045 4.455-5.085c1.17-2.04 1.755-4.41 1.755-7.11 0-2.73-.585-5.115-1.755-7.155-1.14-2.07-2.625-3.78-4.455-5.13-1.83-1.38-3.885-2.4-6.165-3.06C99.664.345 97.399 0 95.149 0s-4.515.345-6.795 1.035c-2.28.66-4.335 1.68-6.165 3.06-1.8 1.35-3.285 3.06-4.455 5.13zm3.915 12.735a18.11 18.11 0 01-.945-5.85c0-1.98.315-3.87.945-5.67.63-1.83 1.545-3.42 2.745-4.77 1.23-1.38 2.745-2.475 4.545-3.285 1.8-.84 3.87-1.275 6.21-1.305 2.34-.03 4.41.375 6.21 1.215 1.8.84 3.315 1.98 4.545 3.42 1.23 1.41 2.16 3.06 2.79 4.95.66 1.86.99 3.81.99 5.85-.03 1.98-.36 3.87-.99 5.67a14.08 14.08 0 01-2.79 4.77c-1.2 1.38-2.7 2.475-4.5 3.285-1.8.81-3.87 1.215-6.21 1.215s-4.41-.405-6.21-1.215c-1.8-.84-3.315-1.965-4.545-3.375s-2.16-3.045-2.79-4.905zM21.15 9.585c.72 0 1.29-.045 1.71-.135.42-.09.735-.27.945-.54.21-.27.345-.63.405-1.08.06-.48.09-1.095.09-1.845 0-.72-.03-1.335-.09-1.845-.06-.54-.195-.96-.405-1.26-.21-.33-.525-.57-.945-.72-.42-.15-.99-.225-1.71-.225H4.5v7.65h16.65zM4.5 10.935v21.15H0V.585h22.05c.99 0 1.92.105 2.79.315.87.18 1.635.48 2.295.9.66.42 1.17.975 1.53 1.665.39.69.585 1.53.585 2.52s-.195 1.815-.585 2.475c-.36.63-.87 1.125-1.53 1.485-.66.36-1.425.615-2.295.765-.87.15-1.8.225-2.79.225H4.5zm34.65-1.35H64.8v-9h4.5v31.5h-4.5v-21.15H39.15v21.15h-4.5V.585h4.5v9zm106.353-9l-.765 1.35h-12.645l-.09 30.15h-4.05V1.935h-13.5l.765-1.35h30.285zm2.234 8.64c-1.14 2.04-1.71 4.425-1.71 7.155 0 2.7.57 5.07 1.71 7.11 1.17 2.04 2.655 3.735 4.455 5.085 1.83 1.35 3.885 2.37 6.165 3.06 2.28.69 4.545 1.035 6.795 1.035s4.515-.345 6.795-1.035c2.28-.69 4.335-1.71 6.165-3.06s3.315-3.045 4.455-5.085c1.17-2.04 1.755-4.41 1.755-7.11 0-2.73-.585-5.115-1.755-7.155-1.14-2.07-2.625-3.78-4.455-5.13-1.83-1.38-3.885-2.4-6.165-3.06C169.667.345 167.402 0 165.152 0s-4.515.345-6.795 1.035c-2.28.66-4.335 1.68-6.165 3.06-1.8 1.35-3.285 3.06-4.455 5.13zm3.915 12.735a18.11 18.11 0 01-.945-5.85c0-1.98.315-3.87.945-5.67.63-1.83 1.545-3.42 2.745-4.77 1.23-1.38 2.745-2.475 4.545-3.285 1.8-.84 3.87-1.275 6.21-1.305 2.34-.03 4.41.375 6.21 1.215 1.8.84 3.315 1.98 4.545 3.42 1.23 1.41 2.16 3.06 2.79 4.95.66 1.86.99 3.81.99 5.85-.03 1.98-.36 3.87-.99 5.67a14.08 14.08 0 01-2.79 4.77c-1.2 1.38-2.7 2.475-4.5 3.285-1.8.81-3.87 1.215-6.21 1.215s-4.41-.405-6.21-1.215c-1.8-.84-3.315-1.965-4.545-3.375s-2.16-3.045-2.79-4.905zm64.061-11.025h-3.105l.765-1.35h6.84V29.16a21.515 21.515 0 01-5.85 2.655c-2.1.57-4.2.855-6.3.855-2.25 0-4.515-.345-6.795-1.035-2.28-.69-4.335-1.71-6.165-3.06-1.8-1.35-3.285-3.045-4.455-5.085-1.14-2.04-1.71-4.41-1.71-7.11 0-2.73.57-5.115 1.71-7.155 1.17-2.07 2.655-3.78 4.455-5.13 1.83-1.38 3.885-2.4 6.165-3.06C203.548.345 205.813 0 208.063 0c2.1 0 4.2.3 6.3.9 2.1.57 4.05 1.44 5.85 2.61l-1.305 2.295a13.467 13.467 0 00-4.59-3.465c-1.8-.87-3.885-1.29-6.255-1.26-2.34.03-4.41.465-6.21 1.305-1.8.81-3.315 1.905-4.545 3.285-1.2 1.35-2.115 2.94-2.745 4.77-.63 1.8-.945 3.69-.945 5.67 0 2.04.315 3.99.945 5.85.63 1.86 1.56 3.495 2.79 4.905 1.23 1.41 2.745 2.535 4.545 3.375 1.8.81 3.87 1.215 6.21 1.215 1.5 0 2.88-.165 4.14-.495a15.58 15.58 0 003.465-1.44V10.935zm35.573-1.35h-16.65v-7.65h16.65c.72 0 1.29.075 1.71.225.42.15.735.39.945.72.21.3.345.72.405 1.26.06.51.09 1.125.09 1.845 0 .75-.03 1.365-.09 1.845-.06.45-.195.81-.405 1.08-.21.27-.525.45-.945.54-.42.09-.99.135-1.71.135zm-16.65 1.35h9.585l12.15 21.15h5.22l-12.24-21.15h2.835c.99 0 1.92-.075 2.79-.225.87-.15 1.635-.405 2.295-.765.66-.36 1.17-.855 1.53-1.485.39-.66.585-1.485.585-2.475s-.195-1.83-.585-2.52a4.299 4.299 0 00-1.53-1.665c-.66-.42-1.425-.72-2.295-.9-.87-.21-1.8-.315-2.79-.315h-22.05v31.5h4.5v-21.15zm48.502-4.05l-6.75 11.7h14.49l-6.75-11.7h-.99zm8.505 13.05h-15.975l-7.065 12.15h-1.575l18.18-31.5h.45l18.225 31.5h-5.22l-7.02-12.15zm40.98-10.485c-.42.09-.99.135-1.71.135h-16.65v-7.65h16.65c.72 0 1.29.075 1.71.225.42.15.735.39.945.72.21.3.345.72.405 1.26.06.51.09 1.125.09 1.845 0 .75-.03 1.365-.09 1.845-.06.45-.195.81-.405 1.08-.21.27-.525.45-.945.54zm-18.36 22.635v-21.15h17.55c.99 0 1.92-.075 2.79-.225.87-.15 1.635-.405 2.295-.765a3.832 3.832 0 001.53-1.485c.39-.66.585-1.485.585-2.475s-.195-1.83-.585-2.52a4.291 4.291 0 00-1.53-1.665c-.66-.42-1.425-.72-2.295-.9-.87-.21-1.8-.315-2.79-.315h-22.05v31.5h4.5zm34.651-22.5h25.649v-9h4.5v31.5h-4.5v-21.15h-25.649v21.15h-4.5V.585h4.5v9zm60.905 0h-17.73v-7.65h22.185l.765-1.35h-27.45v31.5h28.485l.765-1.35h-24.75v-19.8h16.965l.765-1.35zm16.612 0h16.65c.72 0 1.29-.045 1.71-.135.42-.09.735-.27.945-.54.21-.27.345-.63.405-1.08.06-.48.09-1.095.09-1.845 0-.72-.03-1.335-.09-1.845-.06-.54-.195-.96-.405-1.26-.21-.33-.525-.57-.945-.72-.42-.15-.99-.225-1.71-.225h-16.65v7.65zm9.585 1.35h-9.585v21.15h-4.5V.585h22.05c.99 0 1.92.105 2.79.315.87.18 1.635.48 2.295.9.66.42 1.17.975 1.53 1.665.39.69.585 1.53.585 2.52s-.195 1.815-.585 2.475c-.36.63-.87 1.125-1.53 1.485-.66.36-1.425.615-2.295.765-.87.15-1.8.225-2.79.225h-2.835l12.24 21.15h-5.22l-12.15-21.15zm135.718-1.71c-1.14 2.04-1.71 4.425-1.71 7.155 0 2.7.57 5.07 1.71 7.11 1.17 2.04 2.655 3.735 4.455 5.085 1.83 1.35 3.885 2.37 6.165 3.06 2.28.69 4.545 1.035 6.795 1.035s4.515-.345 6.795-1.035c2.28-.69 4.335-1.71 6.165-3.06s3.315-3.045 4.455-5.085c1.17-2.04 1.755-4.41 1.755-7.11 0-2.73-.585-5.115-1.755-7.155-1.14-2.07-2.625-3.78-4.455-5.13-1.83-1.38-3.885-2.4-6.165-3.06C593.664.345 591.399 0 589.149 0s-4.515.345-6.795 1.035c-2.28.66-4.335 1.68-6.165 3.06-1.8 1.35-3.285 3.06-4.455 5.13zm3.915 12.735a18.11 18.11 0 01-.945-5.85c0-1.98.315-3.87.945-5.67.63-1.83 1.545-3.42 2.745-4.77 1.23-1.38 2.745-2.475 4.545-3.285 1.8-.84 3.87-1.275 6.21-1.305 2.34-.03 4.41.375 6.21 1.215 1.8.84 3.315 1.98 4.545 3.42 1.23 1.41 2.16 3.06 2.79 4.95.66 1.86.99 3.81.99 5.85-.03 1.98-.36 3.87-.99 5.67a14.08 14.08 0 01-2.79 4.77c-1.2 1.38-2.7 2.475-4.5 3.285-1.8.81-3.87 1.215-6.21 1.215s-4.41-.405-6.21-1.215c-1.8-.84-3.315-1.965-4.545-3.375s-2.16-3.045-2.79-4.905zM515.15 9.585c.72 0 1.29-.045 1.71-.135.42-.09.735-.27.945-.54.21-.27.345-.63.405-1.08.06-.48.09-1.095.09-1.845 0-.72-.03-1.335-.09-1.845-.06-.54-.195-.96-.405-1.26-.21-.33-.525-.57-.945-.72-.42-.15-.99-.225-1.71-.225H498.5v7.65h16.65zm-16.65 1.35v21.15H494V.585h22.05c.99 0 1.92.105 2.79.315.87.18 1.635.48 2.295.9.66.42 1.17.975 1.53 1.665.39.69.585 1.53.585 2.52s-.195 1.815-.585 2.475c-.36.63-.87 1.125-1.53 1.485-.66.36-1.425.615-2.295.765-.87.15-1.8.225-2.79.225H498.5zm34.65-1.35h25.65v-9h4.5v31.5h-4.5v-21.15h-25.65v21.15h-4.5V.585h4.5v9zm106.353-9l-.765 1.35h-12.645l-.09 30.15h-4.05V1.935h-13.5l.765-1.35h30.285zm2.234 8.64c-1.14 2.04-1.71 4.425-1.71 7.155 0 2.7.57 5.07 1.71 7.11 1.17 2.04 2.655 3.735 4.455 5.085 1.83 1.35 3.885 2.37 6.165 3.06 2.28.69 4.545 1.035 6.795 1.035s4.515-.345 6.795-1.035c2.28-.69 4.335-1.71 6.165-3.06s3.315-3.045 4.455-5.085c1.17-2.04 1.755-4.41 1.755-7.11 0-2.73-.585-5.115-1.755-7.155-1.14-2.07-2.625-3.78-4.455-5.13-1.83-1.38-3.885-2.4-6.165-3.06C663.667.345 661.402 0 659.152 0s-4.515.345-6.795 1.035c-2.28.66-4.335 1.68-6.165 3.06-1.8 1.35-3.285 3.06-4.455 5.13zm3.915 12.735a18.11 18.11 0 01-.945-5.85c0-1.98.315-3.87.945-5.67.63-1.83 1.545-3.42 2.745-4.77 1.23-1.38 2.745-2.475 4.545-3.285 1.8-.84 3.87-1.275 6.21-1.305 2.34-.03 4.41.375 6.21 1.215 1.8.84 3.315 1.98 4.545 3.42 1.23 1.41 2.16 3.06 2.79 4.95.66 1.86.99 3.81.99 5.85-.03 1.98-.36 3.87-.99 5.67a14.08 14.08 0 01-2.79 4.77c-1.2 1.38-2.7 2.475-4.5 3.285-1.8.81-3.87 1.215-6.21 1.215s-4.41-.405-6.21-1.215c-1.8-.84-3.315-1.965-4.545-3.375s-2.16-3.045-2.79-4.905zm64.062-11.025h-3.106l.765-1.35h6.841V29.16a21.52 21.52 0 01-5.851 2.655c-2.1.57-4.2.855-6.3.855-2.25 0-4.515-.345-6.795-1.035-2.28-.69-4.335-1.71-6.165-3.06-1.8-1.35-3.285-3.045-4.455-5.085-1.14-2.04-1.71-4.41-1.71-7.11 0-2.73.57-5.115 1.71-7.155 1.17-2.07 2.655-3.78 4.455-5.13 1.83-1.38 3.885-2.4 6.165-3.06C697.548.345 699.813 0 702.063 0c2.1 0 4.2.3 6.3.9 2.101.57 4.05 1.44 5.851 2.61l-1.306 2.295a13.467 13.467 0 00-4.59-3.465c-1.8-.87-3.885-1.29-6.255-1.26-2.339.03-4.41.465-6.21 1.305-1.8.81-3.315 1.905-4.545 3.285-1.2 1.35-2.115 2.94-2.745 4.77-.63 1.8-.945 3.69-.945 5.67 0 2.04.315 3.99.945 5.85.63 1.86 1.56 3.495 2.79 4.905 1.23 1.41 2.746 2.535 4.545 3.375 1.8.81 3.87 1.215 6.21 1.215 1.5 0 2.88-.165 4.14-.495 1.26-.36 2.415-.84 3.466-1.44V10.935zm35.572-1.35h-16.65v-7.65h16.65c.72 0 1.29.075 1.71.225.42.15.735.39.945.72.21.3.345.72.405 1.26.06.51.09 1.125.09 1.845 0 .75-.03 1.365-.09 1.845-.06.45-.195.81-.405 1.08-.21.27-.525.45-.945.54-.42.09-.99.135-1.71.135zm-16.65 1.35h9.585l12.15 21.15h5.22l-12.24-21.15h2.835c.99 0 1.92-.075 2.79-.225.87-.15 1.635-.405 2.295-.765.66-.36 1.17-.855 1.53-1.485.39-.66.585-1.485.585-2.475s-.195-1.83-.585-2.52a4.299 4.299 0 00-1.53-1.665c-.66-.42-1.425-.72-2.295-.9-.87-.21-1.8-.315-2.79-.315h-22.05v31.5h4.5v-21.15zm48.502-4.05l-6.75 11.7h14.49l-6.75-11.7h-.99zm8.505 13.05h-15.975l-7.065 12.15h-1.575l18.18-31.5h.45l18.225 31.5h-5.22l-7.02-12.15zm40.98-10.485c-.42.09-.99.135-1.71.135h-16.65v-7.65h16.65c.72 0 1.29.075 1.71.225.42.15.736.39.945.72.21.3.345.72.405 1.26.06.51.09 1.125.09 1.845 0 .75-.03 1.365-.09 1.845-.06.45-.195.81-.405 1.08-.209.27-.525.45-.945.54zm-18.36 22.635v-21.15h17.55c.99 0 1.92-.075 2.79-.225.87-.15 1.636-.405 2.295-.765.66-.36 1.17-.855 1.53-1.485.39-.66.585-1.485.585-2.475s-.195-1.83-.585-2.52a4.299 4.299 0 00-1.53-1.665c-.659-.42-1.425-.72-2.295-.9-.87-.21-1.8-.315-2.79-.315h-22.05v31.5h4.5zm34.651-22.5h25.649v-9h4.5v31.5h-4.5v-21.15h-25.649v21.15h-4.5V.585h4.5v9zm60.905 0h-17.73v-7.65h22.185l.765-1.35h-27.45v31.5h28.485l.765-1.35h-24.75v-19.8h16.965l.765-1.35zm16.612 0h16.65c.72 0 1.29-.045 1.71-.135.42-.09.735-.27.945-.54.21-.27.345-.63.405-1.08.06-.48.09-1.095.09-1.845 0-.72-.03-1.335-.09-1.845-.06-.54-.195-.96-.405-1.26-.21-.33-.525-.57-.945-.72-.42-.15-.99-.225-1.71-.225h-16.65v7.65zm9.585 1.35h-9.585v21.15h-4.5V.585h22.05c.99 0 1.92.105 2.79.315.87.18 1.635.48 2.295.9.66.42 1.17.975 1.53 1.665.39.69.585 1.53.585 2.52s-.195 1.815-.585 2.475c-.36.63-.87 1.125-1.53 1.485-.66.36-1.425.615-2.295.765-.87.15-1.8.225-2.79.225h-2.835l12.24 21.15h-5.22l-12.15-21.15zm134.004 5.445c0-2.73.57-5.115 1.71-7.155 1.17-2.07 2.66-3.78 4.46-5.13 1.83-1.38 3.88-2.4 6.16-3.06 2.28-.69 4.55-1.035 6.8-1.035s4.51.345 6.79 1.035c2.28.66 4.34 1.68 6.17 3.06 1.83 1.35 3.31 3.06 4.45 5.13 1.17 2.04 1.76 4.425 1.76 7.155 0 2.7-.59 5.07-1.76 7.11-1.14 2.04-2.62 3.735-4.45 5.085s-3.89 2.37-6.17 3.06-4.54 1.035-6.79 1.035-4.52-.345-6.8-1.035c-2.28-.69-4.33-1.71-6.16-3.06-1.8-1.35-3.29-3.045-4.46-5.085-1.14-2.04-1.71-4.41-1.71-7.11zm4.68-.27c0 2.04.32 3.99.95 5.85.63 1.86 1.56 3.495 2.79 4.905 1.23 1.41 2.74 2.535 4.54 3.375 1.8.81 3.87 1.215 6.21 1.215s4.41-.405 6.21-1.215c1.8-.81 3.3-1.905 4.5-3.285a14.08 14.08 0 002.79-4.77c.63-1.8.96-3.69.99-5.67 0-2.04-.33-3.99-.99-5.85-.63-1.89-1.56-3.54-2.79-4.95-1.23-1.44-2.74-2.58-4.54-3.42-1.8-.84-3.87-1.245-6.21-1.215-2.34.03-4.41.465-6.21 1.305-1.8.81-3.32 1.905-4.55 3.285-1.2 1.35-2.11 2.94-2.74 4.77-.63 1.8-.95 3.69-.95 5.67zm-57.84-6.66c-.42.09-.99.135-1.71.135H992.5v-7.65h16.65c.72 0 1.29.075 1.71.225.42.15.73.39.94.72.22.3.35.72.41 1.26.06.51.09 1.125.09 1.845 0 .75-.03 1.365-.09 1.845-.06.45-.19.81-.41 1.08-.21.27-.52.45-.94.54zM992.5 32.085v-21.15h17.55c.99 0 1.92-.075 2.79-.225.87-.15 1.63-.405 2.3-.765.65-.36 1.16-.855 1.52-1.485.39-.66.59-1.485.59-2.475s-.2-1.83-.59-2.52a4.35 4.35 0 00-1.52-1.665 6.91 6.91 0 00-2.3-.9c-.87-.21-1.8-.315-2.79-.315H988v31.5h4.5zm60.3-22.5h-25.65v-9h-4.5v31.5h4.5v-21.15h25.65v21.15h4.5V.585h-4.5v9zm79.94-7.65l.76-1.35h-30.28l-.77 1.35h13.5v30.15h4.05l.09-30.15h12.65zm1.29 14.445c0-2.73.57-5.115 1.71-7.155 1.17-2.07 2.65-3.78 4.45-5.13 1.83-1.38 3.89-2.4 6.17-3.06 2.28-.69 4.54-1.035 6.79-1.035s4.52.345 6.8 1.035c2.28.66 4.33 1.68 6.16 3.06 1.83 1.35 3.32 3.06 4.46 5.13 1.17 2.04 1.75 4.425 1.75 7.155 0 2.7-.58 5.07-1.75 7.11a15.843 15.843 0 01-4.46 5.085c-1.83 1.35-3.88 2.37-6.16 3.06-2.28.69-4.55 1.035-6.8 1.035s-4.51-.345-6.79-1.035c-2.28-.69-4.34-1.71-6.17-3.06-1.8-1.35-3.28-3.045-4.45-5.085-1.14-2.04-1.71-4.41-1.71-7.11zm4.68-.27c0 2.04.31 3.99.94 5.85.63 1.86 1.56 3.495 2.79 4.905 1.23 1.41 2.75 2.535 4.55 3.375 1.8.81 3.87 1.215 6.21 1.215s4.41-.405 6.21-1.215c1.8-.81 3.3-1.905 4.5-3.285a14.08 14.08 0 002.79-4.77c.63-1.8.96-3.69.99-5.67 0-2.04-.33-3.99-.99-5.85-.63-1.89-1.56-3.54-2.79-4.95-1.23-1.44-2.75-2.58-4.55-3.42-1.8-.84-3.87-1.245-6.21-1.215-2.34.03-4.41.465-6.21 1.305-1.8.81-3.31 1.905-4.54 3.285-1.2 1.35-2.12 2.94-2.75 4.77-.63 1.8-.94 3.69-.94 5.67zm61.9-5.175h3.1V29.52c-1.05.6-2.2 1.08-3.46 1.44-1.26.33-2.64.495-4.14.495-2.34 0-4.41-.405-6.21-1.215-1.8-.84-3.32-1.965-4.55-3.375s-2.16-3.045-2.79-4.905c-.63-1.86-.94-3.81-.94-5.85 0-1.98.31-3.87.94-5.67.63-1.83 1.55-3.42 2.75-4.77 1.23-1.38 2.74-2.475 4.54-3.285 1.8-.84 3.87-1.275 6.21-1.305 2.37-.03 4.46.39 6.26 1.26 1.8.84 3.33 1.995 4.59 3.465l1.3-2.295c-1.8-1.17-3.75-2.04-5.85-2.61-2.1-.6-4.2-.9-6.3-.9-2.25 0-4.51.345-6.79 1.035-2.28.66-4.34 1.68-6.17 3.06-1.8 1.35-3.28 3.06-4.45 5.13-1.14 2.04-1.71 4.425-1.71 7.155 0 2.7.57 5.07 1.71 7.11 1.17 2.04 2.65 3.735 4.45 5.085 1.83 1.35 3.89 2.37 6.17 3.06s4.54 1.035 6.79 1.035c2.1 0 4.2-.285 6.3-.855 2.1-.6 4.05-1.485 5.85-2.655V9.585h-6.84l-.76 1.35zm22.03-1.35h16.65c.72 0 1.29-.045 1.71-.135.42-.09.73-.27.94-.54.21-.27.35-.63.41-1.08.06-.48.09-1.095.09-1.845 0-.72-.03-1.335-.09-1.845-.06-.54-.2-.96-.41-1.26-.21-.33-.52-.57-.94-.72-.42-.15-.99-.225-1.71-.225h-16.65v7.65zm9.58 1.35h-9.58v21.15h-4.5V.585h22.05c.99 0 1.92.105 2.79.315.87.18 1.63.48 2.29.9.66.42 1.17.975 1.53 1.665.39.69.59 1.53.59 2.52s-.2 1.815-.59 2.475c-.36.63-.87 1.125-1.53 1.485-.66.36-1.42.615-2.29.765-.87.15-1.8.225-2.79.225h-2.84l12.24 21.15h-5.22l-12.15-21.15zm32.17 7.65l6.75-11.7h.99l6.75 11.7h-14.49zm-.72 1.35h15.97l7.02 12.15h5.22l-18.22-31.5h-.45l-18.18 31.5h1.57l7.07-12.15zm55.24-10.35c.72 0 1.29-.045 1.71-.135.42-.09.74-.27.95-.54.21-.27.34-.63.4-1.08.06-.48.09-1.095.09-1.845 0-.72-.03-1.335-.09-1.845-.06-.54-.19-.96-.4-1.26-.21-.33-.53-.57-.95-.72-.42-.15-.99-.225-1.71-.225h-16.65v7.65h16.65zm-16.65 1.35v21.15h-4.5V.585h22.05c.99 0 1.92.105 2.79.315.87.18 1.64.48 2.3.9.66.42 1.17.975 1.53 1.665.39.69.58 1.53.58 2.52s-.19 1.815-.58 2.475c-.36.63-.87 1.125-1.53 1.485-.66.36-1.43.615-2.3.765-.87.15-1.8.225-2.79.225h-17.55zm60.3-1.35h-25.65v-9h-4.5v31.5h4.5v-21.15h25.65v21.15h4.5V.585h-4.5v9zm17.53 0h17.73l-.77 1.35h-16.96v19.8h24.75l-.77 1.35h-28.48V.585h27.45l-.77 1.35h-22.18v7.65zm50.99 0h-16.65v-7.65h16.65c.72 0 1.29.075 1.71.225.42.15.74.39.95.72.21.3.34.72.4 1.26.06.51.09 1.125.09 1.845 0 .75-.03 1.365-.09 1.845-.06.45-.19.81-.4 1.08-.21.27-.53.45-.95.54-.42.09-.99.135-1.71.135zm-16.65 1.35h9.59l12.15 21.15h5.22l-12.24-21.15h2.83c.99 0 1.92-.075 2.79-.225.87-.15 1.64-.405 2.3-.765.66-.36 1.17-.855 1.53-1.485.39-.66.58-1.485.58-2.475s-.19-1.83-.58-2.52a4.299 4.299 0 00-1.53-1.665c-.66-.42-1.43-.72-2.3-.9-.87-.21-1.8-.315-2.79-.315h-22.05v31.5h4.5v-21.15zm-937.71 3.15a3 3 0 11-6 0 3 3 0 016 0zm491 3a3 3 0 100-6 3 3 0 000 6z" fill="#A89861" fill-opacity=".2"/></svg>