<svg width="305" height="22" fill="none" xmlns="http://www.w3.org/2000/svg"><path d="M14.197 6.434c.483 0 .866-.03 1.148-.09.282-.061.493-.182.634-.363.141-.181.232-.423.272-.725.04-.322.06-.735.06-1.239 0-.483-.02-.896-.06-1.238-.04-.362-.13-.644-.272-.846a1.2 1.2 0 00-.634-.483c-.282-.1-.665-.151-1.148-.151H3.021v5.135h11.176zM3.021 7.34v14.197H0V.393h14.801c.665 0 1.289.07 1.873.211a4.563 4.563 0 011.54.604c.444.282.786.655 1.027 1.118.262.463.393 1.027.393 1.691 0 .665-.13 1.219-.393 1.662a2.577 2.577 0 01-1.026.997 4.956 4.956 0 01-1.541.513c-.584.1-1.208.151-1.873.151H3.021zm23.259-.906h17.217V.393h3.02v21.144h-3.02V7.34H26.28v14.197h-3.021V.393h3.02v6.041zm24.751 4.561c0-1.832.383-3.433 1.148-4.803.785-1.39 1.782-2.537 2.99-3.443A12.649 12.649 0 0159.308.695 15.68 15.68 0 0163.868 0C65.38 0 66.9.232 68.43.695c1.53.443 2.91 1.127 4.138 2.054a10.525 10.525 0 012.99 3.443c.786 1.37 1.179 2.97 1.179 4.803 0 1.813-.393 3.403-1.178 4.773a10.624 10.624 0 01-2.99 3.413 13.494 13.494 0 01-4.139 2.054 15.68 15.68 0 01-4.561.695c-1.51 0-3.03-.232-4.561-.695a13.494 13.494 0 01-4.139-2.054 11.128 11.128 0 01-2.99-3.413c-.765-1.37-1.148-2.96-1.148-4.773zm3.142-.181c0 1.37.211 2.678.634 3.927a9.668 9.668 0 001.873 3.292c.825.947 1.842 1.702 3.05 2.266 1.209.543 2.598.815 4.17.815 1.57 0 2.96-.272 4.168-.815 1.208-.544 2.215-1.279 3.02-2.205a9.452 9.452 0 001.873-3.202c.423-1.208.644-2.477.665-3.806 0-1.37-.222-2.679-.665-3.927-.423-1.269-1.047-2.376-1.873-3.323a8.907 8.907 0 00-3.05-2.295C66.828.977 65.44.705 63.867.725c-1.57.02-2.96.312-4.168.876-1.208.544-2.225 1.279-3.05 2.205-.806.906-1.42 1.973-1.843 3.202a11.437 11.437 0 00-.634 3.806zM97.67.393l-.514.906h-8.488l-.06 20.238h-2.72V1.3h-9.061l.513-.906h20.33zm.351 10.602c0-1.832.383-3.433 1.148-4.803.785-1.39 1.782-2.537 2.99-3.443a12.653 12.653 0 014.139-2.054c1.53-.463 3.05-.695 4.561-.695 1.51 0 3.03.232 4.561.695 1.53.443 2.91 1.127 4.138 2.054 1.229.906 2.225 2.054 2.991 3.443.785 1.37 1.178 2.97 1.178 4.803 0 1.813-.393 3.403-1.178 4.773a10.628 10.628 0 01-2.991 3.413 13.493 13.493 0 01-4.138 2.054 15.684 15.684 0 01-4.561.695c-1.511 0-3.031-.232-4.561-.695a13.498 13.498 0 01-4.139-2.054 11.132 11.132 0 01-2.99-3.413c-.765-1.37-1.148-2.96-1.148-4.773zm3.141-.181c0 1.37.212 2.678.635 3.927a9.663 9.663 0 001.873 3.292c.825.947 1.842 1.702 3.05 2.266 1.209.543 2.598.815 4.169.815 1.571 0 2.96-.272 4.168-.815 1.209-.544 2.216-1.279 3.021-2.205a9.448 9.448 0 001.873-3.202c.423-1.208.644-2.477.664-3.806 0-1.37-.221-2.679-.664-3.927-.423-1.269-1.047-2.376-1.873-3.323a8.914 8.914 0 00-3.051-2.295c-1.208-.564-2.598-.836-4.168-.816-1.571.02-2.961.312-4.169.876-1.208.544-2.225 1.279-3.051 2.205-.805.906-1.419 1.973-1.842 3.202a11.435 11.435 0 00-.635 3.806zm43.636-3.474h-2.084l.514-.906h4.591v13.14a14.434 14.434 0 01-3.927 1.782 16.078 16.078 0 01-4.229.574c-1.51 0-3.03-.232-4.561-.695a13.493 13.493 0 01-4.138-2.054 11.142 11.142 0 01-2.991-3.413c-.765-1.37-1.147-2.96-1.147-4.773 0-1.832.382-3.433 1.147-4.803.786-1.39 1.783-2.537 2.991-3.443a12.648 12.648 0 014.138-2.054A15.685 15.685 0 01139.663 0c1.41 0 2.82.201 4.229.604 1.41.383 2.719.967 3.927 1.752l-.876 1.54a9.044 9.044 0 00-3.081-2.325c-1.208-.584-2.608-.866-4.199-.846-1.57.02-2.96.312-4.168.876-1.208.544-2.225 1.279-3.051 2.205-.805.906-1.42 1.973-1.843 3.202a11.46 11.46 0 00-.634 3.806c0 1.37.212 2.678.634 3.927a9.68 9.68 0 001.873 3.292c.826.947 1.843 1.702 3.051 2.266 1.208.543 2.598.815 4.169.815 1.006 0 1.933-.11 2.779-.332a10.445 10.445 0 002.325-.967V7.34zm12.702-.906h11.177c.483 0 .866-.03 1.148-.09.282-.061.493-.182.634-.363.141-.181.232-.423.272-.725.04-.322.06-.735.06-1.239 0-.483-.02-.896-.06-1.238-.04-.362-.131-.644-.272-.846a1.2 1.2 0 00-.634-.483c-.282-.1-.665-.151-1.148-.151H157.5v5.135zm6.434.906H157.5v14.197h-3.02V.393h14.801c.665 0 1.289.07 1.873.211a4.56 4.56 0 011.54.604 2.88 2.88 0 011.027 1.118c.262.463.393 1.027.393 1.691 0 .665-.131 1.219-.393 1.662a2.572 2.572 0 01-1.027.997 4.951 4.951 0 01-1.54.513c-.584.1-1.208.151-1.873.151h-1.903l8.216 14.197h-3.504L163.934 7.34zm26.123-2.718l-4.531 7.853h9.727l-4.531-7.853h-.665zm5.709 8.76h-10.723l-4.743 8.155h-1.057L191.447.393h.302l12.233 21.144h-3.504l-4.712-8.156zm26.361-6.948c.483 0 .866-.03 1.148-.09.282-.061.493-.182.634-.363.141-.181.232-.423.272-.725.04-.322.06-.735.06-1.239 0-.483-.02-.896-.06-1.238-.04-.362-.131-.644-.272-.846a1.2 1.2 0 00-.634-.483c-.282-.1-.665-.151-1.148-.151H210.95v5.135h11.177zm-11.177.906v14.197h-3.02V.393h14.801c.665 0 1.289.07 1.873.211a4.56 4.56 0 011.54.604 2.88 2.88 0 011.027 1.118c.262.463.393 1.027.393 1.691 0 .665-.131 1.219-.393 1.662a2.572 2.572 0 01-1.027.997 4.951 4.951 0 01-1.54.513c-.584.1-1.208.151-1.873.151H210.95zm23.259-.906h17.218V.393h3.021v21.144h-3.021V7.34h-17.218v14.197h-3.02V.393h3.02v6.041zm28.982 0h11.901l-.513.906h-11.388v13.291h16.614l-.514.906H260.17V.393h18.426l-.513.906h-14.892v5.135zm23.052 0h11.177c.483 0 .866-.03 1.148-.09.282-.061.493-.182.634-.363.141-.181.232-.423.272-.725.04-.322.06-.735.06-1.239 0-.483-.02-.896-.06-1.238-.04-.362-.131-.644-.272-.846a1.2 1.2 0 00-.634-.483c-.282-.1-.665-.151-1.148-.151h-11.177v5.135zm6.434.906h-6.434v14.197h-3.02V.393h14.801c.665 0 1.289.07 1.873.211a4.56 4.56 0 011.54.604 2.88 2.88 0 011.027 1.118c.262.463.393 1.027.393 1.691 0 .665-.131 1.219-.393 1.662a2.572 2.572 0 01-1.027.997 4.951 4.951 0 01-1.54.513c-.584.1-1.208.151-1.873.151h-1.903l8.216 14.197h-3.504L292.677 7.34z" fill="#A89861" fill-opacity=".2"/></svg>