<svg width="121" height="43" viewBox="0 0 121 43" fill="none" xmlns="http://www.w3.org/2000/svg">
<g clip-path="url(#clip0_670_2341)">
<path d="M54.2367 16.7373H48.3175L45.702 21.0918H45.1514L51.7589 9.66138H51.8965L58.6417 21.0918H56.7145L54.2367 16.7373ZM51.2082 11.9747L48.7304 16.193H54.099L51.6212 11.9747H51.2082Z" fill="#48412F"/>
<path d="M60.0183 21.0918V9.66138H64.9739C65.7999 9.66138 66.6258 9.79745 67.4518 9.93353C68.2777 10.2057 69.1036 10.4778 69.6543 11.0221C70.3425 11.4304 70.8932 12.1107 71.3061 12.7911C71.7191 13.4715 71.9944 14.424 71.9944 15.3766C71.9944 16.3291 71.7191 17.1456 71.3061 17.962C70.8932 18.6424 70.3425 19.3228 69.6543 19.731C68.966 20.1392 68.2777 20.5475 67.4518 20.8196C66.6258 21.0918 65.7999 21.2278 64.9739 21.2278H60.0183V21.0918ZM61.6702 10.0696V20.6835H64.9739C65.7999 20.6835 66.6258 20.5475 67.3141 20.2753C68.0024 20.0031 68.553 19.5949 68.966 19.1867C69.379 18.7785 69.7919 18.0981 69.9296 17.5538C70.2049 16.8734 70.3425 16.193 70.3425 15.5126C70.3425 14.8323 70.2049 14.0158 69.9296 13.4715C69.6543 12.7911 69.379 12.2468 68.8283 11.7025C68.4154 11.1582 67.8647 10.8861 67.1764 10.4778C66.4882 10.2057 65.7999 10.0696 64.8363 10.0696H61.6702Z" fill="#48412F"/>
<path d="M82.1809 12.9272L81.9056 13.4715H75.7111V20.6835H84.7964L84.5211 21.2278H74.0592V9.66138H84.1081L83.8328 10.2057H75.7111V12.9272H82.1809Z" fill="#48412F"/>
<path d="M91.5415 13.4715H87.9624V21.0918H86.3105V9.66138H94.4323C94.8452 9.66138 95.1206 9.66138 95.3959 9.79745C95.6712 9.93353 95.9465 9.93353 96.2218 10.0696C96.4971 10.2057 96.6348 10.4778 96.7724 10.6139C96.9101 10.8861 96.9101 11.1582 96.9101 11.5664C96.9101 11.9747 96.9101 12.2468 96.7724 12.519C96.6348 12.7911 96.4971 12.9272 96.2218 13.0633C95.9465 13.1994 95.6712 13.3354 95.3959 13.3354C95.1206 13.3354 94.7076 13.4715 94.4323 13.4715H93.331L97.8737 21.0918H95.9465L91.5415 13.4715ZM87.9624 12.9272H94.0193C94.2946 12.9272 94.4323 12.9272 94.7076 12.9272C94.8452 12.9272 94.9829 12.7911 95.1206 12.7911C95.2582 12.655 95.2582 12.519 95.2582 12.3829C95.2582 12.2468 95.2582 11.9747 95.2582 11.7025C95.2582 11.4304 95.2582 11.1582 95.2582 11.0221C95.2582 10.8861 95.1206 10.6139 95.1206 10.6139C94.9829 10.4778 94.9829 10.4778 94.7076 10.3418C94.4323 10.2057 94.2946 10.2057 94.0193 10.2057H87.9624V12.9272Z" fill="#48412F"/>
<path d="M107.51 9.66138H108.06L104.068 16.6012V21.0918H102.417V16.7373L98.2869 9.66138H100.214L103.931 15.9209L107.51 9.66138Z" fill="#48412F"/>
<path d="M120.312 19.3228H120.449V9.66138H121V21.0918H119.623L110.263 10.2057H109.712V21.0918H109.162V9.66138H111.915L120.312 19.3228Z" fill="#48412F"/>
<path d="M54.2367 33.0664H48.3175L45.702 37.4209H45.1514L51.7589 25.9905H51.8965L58.6417 37.4209H56.7145L54.2367 33.0664ZM51.2082 28.3038L48.7304 32.5221H54.099L51.6212 28.3038H51.2082Z" fill="#48412F"/>
<path d="M65.7998 29.8006H62.2207V37.4209H60.5688V25.9905H68.6906C69.1036 25.9905 69.3789 25.9905 69.6542 26.1266C69.9295 26.2626 70.2048 26.2626 70.4801 26.3987C70.7554 26.5348 70.8931 26.8069 71.0307 26.943C71.1684 27.2152 71.1684 27.4873 71.1684 27.8955C71.1684 28.3038 71.1684 28.5759 71.0307 28.8481C70.8931 29.1202 70.7554 29.2563 70.4801 29.3924C70.2048 29.5285 69.9295 29.6645 69.6542 29.6645C69.3789 29.6645 68.9659 29.8006 68.6906 29.8006H67.5893L72.132 37.4209H70.2048L65.7998 29.8006ZM62.2207 29.2563H68.2776C68.5529 29.2563 68.6906 29.2563 68.9659 29.2563C69.1035 29.2563 69.2412 29.1202 69.3789 29.1202C69.5165 28.9841 69.5165 28.8481 69.5165 28.712C69.5165 28.5759 69.5165 28.3038 69.5165 28.0316C69.5165 27.7595 69.5165 27.4873 69.5165 27.3512C69.5165 27.2152 69.3789 26.943 69.3789 26.943C69.2412 26.8069 69.2412 26.8069 68.9659 26.6709C68.6906 26.5348 68.5529 26.5348 68.2776 26.5348H62.2207V29.2563Z" fill="#48412F"/>
<path d="M83.1446 26.5348H78.4642V37.4209H76.95V26.5348H71.9944L72.2697 25.9905H83.4199L83.1446 26.5348Z" fill="#48412F"/>
<path d="M0 0.544236C1.23891 -0.136144 2.47782 -6.80666e-05 3.71672 0.136008C4.95563 0.272084 6.19454 0.544236 7.29579 0.952464C7.84642 1.08854 8.39704 1.36069 8.94767 1.63284C9.49829 1.905 10.0489 2.17715 10.4619 2.4493C11.0125 2.58537 11.5631 2.58537 12.2514 2.58537H14.041C14.7292 2.72145 15.4175 3.12968 16.1058 3.53791C16.6564 3.94613 17.2071 4.62651 17.4824 5.30689C18.033 6.66765 18.033 8.16449 18.1707 9.38917L18.033 9.11702L18.5836 10.2056L17.4824 9.93348C19.5472 8.30057 21.6121 6.93981 23.9522 5.71512C26.2924 4.49044 28.6325 3.67398 31.248 3.12968C32.4869 2.85753 33.8635 2.72145 35.24 2.85753C35.9283 2.85753 36.6166 3.12968 37.1672 3.26575C37.4426 3.40183 37.7179 3.40183 37.9932 3.40183C38.2685 3.40183 38.4061 3.40183 38.8191 3.26575C40.1957 3.12968 41.4346 3.12968 42.6735 3.26575C43.3618 3.26575 43.9124 3.40183 44.6007 3.53791C44.876 3.53791 45.289 3.67398 45.5643 3.67398C45.7019 3.67398 45.8396 3.81006 46.1149 3.81006C46.2526 3.81006 46.2526 3.94613 46.3902 4.08221C46.8032 4.49044 46.8032 4.89867 46.6655 5.03474V4.89867C46.6655 4.89867 46.6655 4.89867 46.8032 4.89867C46.9408 4.89867 46.9408 5.17082 46.9408 5.30689C46.8032 5.30689 46.8032 5.44297 46.8032 5.44297L46.6655 5.57905H46.5279L46.3902 5.71512L45.8396 6.12335L44.6007 6.80373L44.7383 6.3955C44.7383 6.53158 44.876 6.53158 44.6007 6.3955C44.6007 6.3955 44.7383 6.25943 44.876 6.53158C45.0137 6.80373 44.876 6.80373 44.876 6.80373L44.7383 6.93981H44.6007L44.463 7.07588L43.7747 7.48411C43.2241 7.75626 42.8112 7.89234 42.5358 8.30056C42.1229 8.57272 41.7099 8.98095 41.2969 9.2531C41.0216 9.38917 40.884 9.52525 40.6087 9.66132C40.471 9.66132 40.3333 9.7974 40.1957 9.7974C40.058 9.7974 39.7827 9.93348 39.5074 9.66132L39.9204 9.38917C40.058 9.52525 40.058 9.93348 39.9204 10.0696C39.7827 10.2056 39.6451 10.3417 39.5074 10.4778C39.2321 10.7499 38.9568 10.886 38.6815 11.0221C38.4061 11.1582 38.1308 11.2942 37.8555 11.4303C37.7179 11.4303 37.5802 11.5664 37.4426 11.5664C37.3049 11.5664 37.3049 11.5664 37.1672 11.5664H37.0296C37.0296 11.5664 37.0296 11.5664 36.8919 11.5664C36.7543 11.5664 36.7543 11.4303 36.6166 11.4303L35.3777 9.93348L37.0296 11.0221C37.3049 11.1582 37.3049 11.5664 37.1672 11.7025C37.3049 11.8385 37.1672 11.9746 37.1672 12.1107C36.8919 12.3828 36.7543 12.5189 36.479 12.655C36.2036 12.7911 35.9283 12.9271 35.653 13.0632C35.5154 13.0632 35.3777 13.1993 35.24 13.1993C35.1024 13.1993 34.8271 13.1993 34.6894 12.9271L35.24 12.7911C35.24 13.3354 34.8271 13.8797 34.2765 14.1518C33.7258 14.424 33.1752 14.5601 32.7622 14.5601L33.0375 14.0158C33.1752 14.1518 33.3129 14.5601 33.1752 14.8322C33.0375 15.1044 32.8999 15.2404 32.7622 15.3765C32.4869 15.6487 32.074 15.6487 31.7986 15.7847C31.248 16.0569 30.6974 16.329 30.2844 16.8733C29.3208 17.8259 28.3572 18.7784 27.1183 19.5949C26.5677 20.0031 26.0171 20.2752 25.7418 20.8196C25.4664 21.2278 25.1911 21.9082 25.1911 22.4525C25.1911 22.9968 25.3288 23.6771 25.3288 24.3575C25.3288 25.0379 25.4664 25.7183 25.4664 26.3987V28.4398C25.4664 28.712 25.4664 29.1202 25.4664 29.3923V29.8006C25.4664 29.9366 25.6041 30.2088 25.6041 30.3449C25.7418 31.2974 25.6041 31.4335 26.0171 32.1139L26.7053 34.0189C27.1183 35.2436 27.5313 36.6044 27.9443 37.829C28.3572 39.1898 28.7702 40.4145 28.7702 42.0474V42.7278L28.0819 42.8639C27.8066 42.8639 27.6689 42.8639 27.3936 42.8639C27.1183 42.8639 26.843 42.5917 26.5677 42.3196C26.5677 42.1835 26.2924 41.9113 26.7053 42.4556C26.843 42.5917 26.9807 42.5917 27.1183 42.5917C27.256 42.5917 27.5313 42.5917 27.6689 42.4556C27.8066 42.3196 27.9443 42.1835 27.9443 42.1835C27.9443 42.0474 27.9443 42.0474 27.9443 42.0474V42.1835L27.8066 42.9999H27.1183C26.5677 42.9999 26.2924 42.7278 26.0171 42.4556C25.7418 42.1835 25.6041 41.9113 25.6041 41.6392C25.6041 41.6392 25.4664 41.5031 25.7418 41.7752C25.7418 41.7752 25.7418 41.7752 25.8794 41.9113C26.0171 41.9113 26.1547 42.0474 26.2924 42.0474C26.5677 42.0474 26.843 41.9113 26.843 41.9113C26.9807 41.7752 26.9807 41.7752 26.9807 41.7752C26.9807 41.7752 26.9807 41.9113 26.843 42.0474L26.5677 43.2721L25.4664 42.5917L24.7782 42.0474C24.6405 41.9113 24.3652 41.7752 24.2275 41.6392C23.9522 41.367 23.5393 40.9588 23.2639 40.5506C22.851 39.8702 22.438 39.1898 22.1627 38.5094C21.4744 37.1487 20.9238 35.7879 20.5108 34.2911C20.0978 32.9303 19.6849 31.4335 19.4096 29.9366V29.6645V29.5284C19.4096 29.3923 19.4096 29.2563 19.2719 29.1202C19.1342 28.848 18.9966 28.5759 18.8589 28.3037C18.446 27.7594 17.8953 26.943 17.62 26.2626L19.1342 26.5347C18.8589 26.8069 18.7213 26.943 18.446 27.079C18.3083 27.2151 18.033 27.2151 17.7577 27.2151C17.4824 27.2151 17.0694 27.079 16.9317 26.943C16.6564 26.6708 16.6564 26.6708 16.3811 26.3987C16.2435 26.1265 16.1058 25.8544 15.9681 25.7183C15.8305 25.4461 15.6928 25.174 15.5552 24.9018L14.8669 24.0854C13.9033 22.8607 13.0774 21.636 12.3891 20.1392C12.1138 19.4588 11.7008 18.7784 11.5631 17.962L11.4255 17.2816V16.7373V15.6487L11.2878 11.2942C11.2878 10.7499 11.0125 9.93348 10.8749 9.2531C10.5995 8.57272 10.4619 7.75626 10.1866 7.07588C10.0489 6.3955 9.77361 5.71512 9.49829 5.03474C9.22298 4.49044 8.81001 3.94613 8.25939 3.53791C7.15813 2.58537 5.78157 2.04107 4.40501 1.63284C3.71672 1.36069 3.02844 1.22462 2.2025 1.08854C1.51422 0.952464 0.688282 0.680312 0 0.544236ZM0.137656 0.544236C0.963595 0.680312 1.51422 0.544236 2.34016 0.816388C3.02844 0.952464 3.85438 1.08854 4.54266 1.22462C6.05688 1.63284 7.5711 2.04107 8.81001 2.9936C9.49829 3.53791 9.91126 4.08221 10.3242 4.76259C10.7372 5.30689 11.0125 6.12335 11.2878 6.80373C11.4255 7.48411 11.7008 8.16449 11.8385 8.98094C11.9761 9.66132 12.2514 10.3417 12.3891 11.2942C12.5267 12.7911 12.6644 14.2879 12.802 15.7847L12.9397 16.8733V17.4177L13.0774 17.6898C13.215 18.2341 13.4903 18.9145 13.9033 19.5949C14.5916 20.8196 15.4175 22.0442 16.2435 23.1328L16.9317 23.9493C17.2071 24.3575 17.4824 24.6297 17.62 25.0379C17.7577 25.3101 17.7577 25.3101 17.7577 25.3101L18.033 25.5822L17.7577 25.4461C17.62 25.4461 17.62 25.4461 17.62 25.4461L17.7577 25.3101L18.7213 24.2214L19.2719 25.5822C19.5472 26.2626 19.8225 26.6708 20.2355 27.2151C20.5108 27.6234 20.7861 27.8955 20.9238 28.3037C21.0614 28.5759 21.0614 28.712 21.1991 28.9841C21.1991 29.1202 21.1991 29.2563 21.1991 29.3923V29.6645C21.3367 31.0252 21.7497 32.386 22.1627 33.7468C22.5757 35.1075 23.1263 36.4683 23.8146 37.693C24.0899 38.3734 24.5028 38.9177 24.7782 39.598C24.9158 39.8702 25.0535 40.0063 25.3288 40.2784C25.4664 40.4145 25.6041 40.4145 25.7418 40.5506L25.8794 40.6866L26.1547 40.9588L24.7782 41.367C24.7782 41.0949 24.9158 40.9588 25.0535 40.6866C25.0535 40.6866 25.0535 40.5506 25.1911 40.5506C25.1911 40.5506 25.3288 40.4145 25.3288 40.2784C25.3288 40.2784 25.7418 40.0063 25.8794 40.0063C26.0171 40.0063 26.1547 40.0063 26.2924 40.1423C26.43 40.2784 26.43 40.2784 26.5677 40.2784C26.843 40.6866 26.843 40.8227 26.843 40.8227C26.843 40.9588 26.843 40.9588 26.843 40.9588C26.843 40.9588 26.843 40.9588 26.7053 40.9588L25.8794 41.6392C25.8794 41.5031 25.8794 41.367 26.0171 41.2309C26.0171 41.2309 26.0171 41.0949 26.1547 40.9588C26.1547 40.9588 26.2924 40.8227 26.43 40.6866C26.5677 40.5506 26.843 40.5506 27.1183 40.5506C27.256 40.5506 27.3936 40.6866 27.5313 40.8227C27.6689 40.9588 27.6689 40.9588 27.8066 41.0949V41.2309C27.8066 41.2309 27.8066 41.367 27.8066 41.2309C27.6689 41.0949 27.5313 40.9588 27.5313 40.9588L26.843 41.7752C26.843 40.6866 26.5677 39.3259 26.1547 38.1012C25.7418 36.8765 25.3288 35.5158 24.9158 34.2911L24.3652 32.386L24.2275 31.8417C24.2275 31.7056 24.0899 31.4335 24.0899 31.2974C24.0899 30.8892 24.0899 30.4809 23.9522 30.3449L23.8146 29.2563C23.8146 28.848 23.8146 28.5759 23.8146 28.1677V26.1265V24.0854C23.8146 23.405 23.6769 22.8607 23.8146 22.0442C23.9522 21.2278 24.2275 20.5474 24.6405 20.0031C25.0535 19.3227 25.8794 18.9145 26.2924 18.6423C27.3936 17.962 28.3572 17.1455 29.3208 16.193C29.8714 15.6487 30.4221 15.2404 31.1104 14.9683C31.7986 14.8322 32.4869 14.5601 32.2116 14.2879L31.7986 13.8797H32.4869C32.8999 13.8797 33.4505 13.7436 33.8635 13.6075C34.2765 13.4715 34.5518 13.0632 34.5518 12.655L35.1024 12.5189C35.1024 12.5189 35.24 12.5189 35.5154 12.5189C35.7907 12.3828 35.9283 12.3828 36.2036 12.2468C36.479 12.1107 36.6166 11.9746 36.7543 11.8385C36.8919 11.7025 36.8919 11.7025 36.8919 11.5664C36.8919 11.4303 36.8919 11.5664 36.8919 11.5664L37.3049 11.1582L37.1672 11.0221H37.3049C37.5802 10.886 37.7179 10.886 37.8555 10.886C38.1308 10.7499 38.4061 10.6139 38.6815 10.6139C38.9568 10.4778 39.0944 10.3417 39.3697 10.2056C39.6451 10.0696 39.6451 9.93348 39.6451 9.7974L39.9204 9.38917C39.7827 9.38917 39.9204 9.38917 40.058 9.38917C40.1957 9.38917 40.3333 9.2531 40.3333 9.2531C40.6086 9.11702 40.7463 8.98094 41.0216 8.84487C41.4346 8.57272 41.8476 8.30057 42.2605 7.89234C42.6735 7.48411 43.2241 7.21196 43.6371 7.07588L44.3254 6.66765L44.463 6.53158H44.6007C44.6007 6.53158 44.463 6.53158 44.463 6.66765C44.463 6.66765 44.3254 6.66765 44.463 6.93981C44.6007 7.21196 44.876 7.07588 44.7383 7.07588C44.463 7.07588 44.3254 6.93981 44.3254 6.80373C44.3254 6.66765 44.1877 6.66765 44.1877 6.53158L44.0501 6.25943L44.3254 6.12335C44.7383 5.8512 45.0137 5.71512 45.4266 5.44297L45.9773 5.03474L46.1149 4.89867C46.1149 4.89867 46.1149 4.89867 45.9773 5.03474C45.9773 5.17082 45.9772 5.30689 46.1149 5.44297C46.2526 5.44297 46.2526 5.44297 46.1149 5.44297C46.1149 5.44297 46.1149 5.44297 45.9773 5.44297L45.8396 5.30689C45.8396 5.17082 45.7019 5.17082 45.7019 5.17082C45.7019 5.03474 45.7019 5.03474 45.7019 4.89867V4.76259V5.03474C45.7019 5.03474 45.7019 5.03474 45.5643 5.03474C45.4266 5.03474 45.289 4.89867 45.1513 4.89867C44.876 4.89867 44.6007 4.76259 44.3254 4.76259C43.7747 4.76259 43.0865 4.62651 42.5358 4.62651C41.2969 4.62651 40.058 4.62651 38.8191 4.76259C38.5438 4.76259 38.1308 4.89867 37.7179 4.89867C37.3049 4.89867 37.0296 4.89867 36.6166 4.76259C35.9283 4.62651 35.5154 4.49044 34.8271 4.49044C33.5882 4.49044 32.4869 4.62651 31.248 4.76259C28.9079 5.30689 26.5677 6.12335 24.3652 7.34803C22.1627 8.43664 19.9602 9.66132 18.033 11.2942L17.3447 11.8385L17.4824 10.886L16.9317 9.7974V9.66132V9.52525C16.9317 8.16449 16.9317 6.93981 16.3811 5.8512C15.9681 4.76259 15.0046 4.08221 13.9033 3.67398H14.041L12.1138 3.53791C11.5631 3.53791 10.8749 3.53791 10.1866 3.26575C9.63595 2.9936 9.08532 2.58538 8.5347 2.31322C8.12173 2.04107 7.5711 1.905 7.02048 1.63284C5.91923 1.08854 4.81798 0.816388 3.57907 0.544236C3.02844 0.40816 2.47782 0.40816 1.92719 0.40816C1.23891 0.272084 0.688282 0.544236 0.137656 0.544236Z" fill="#48412F"/>
</g>
<defs>
<clipPath id="clip0_670_2341">
<rect width="121" height="43" fill="white"/>
</clipPath>
</defs>
</svg>
