<svg width="97" height="88" viewBox="0 0 97 88" fill="none" xmlns="http://www.w3.org/2000/svg">
<path d="M0 1.46062C2.56012 0.0844048 5.12023 0.359648 7.68035 0.634892C10.2405 0.910135 12.8006 1.46062 15.0762 2.28635C16.2141 2.5616 17.3519 3.11208 18.4897 3.66257C19.6276 4.21306 20.7654 4.76354 21.6188 5.31403C22.7566 5.58927 23.8944 5.58927 25.3167 5.58927H29.0147C30.437 5.86452 31.8592 6.69025 33.2815 7.51598C34.4194 8.34171 35.5572 9.71793 36.1261 11.0941C37.2639 13.8466 37.2639 16.8743 37.5484 19.3514L37.2639 18.801L38.4018 21.0029L36.1261 20.4524C40.393 17.1495 44.6598 14.3971 49.4956 11.9199C54.3314 9.44268 59.1672 7.79122 64.5719 6.69025C67.132 6.13976 69.9765 5.86452 72.8211 6.13976C74.2434 6.13976 75.6657 6.69025 76.8035 6.96549C77.3724 7.24073 77.9414 7.24073 78.5103 7.24073C79.0792 7.24073 79.3636 7.24073 80.217 6.96549C83.0616 6.69025 85.6217 6.69025 88.1818 6.96549C89.6041 6.96549 90.7419 7.24073 92.1642 7.51598C92.7331 7.51598 93.5865 7.79122 94.1554 7.79122C94.4399 7.79122 94.7243 8.06646 95.2933 8.06646C95.5777 8.06646 95.5777 8.34171 95.8622 8.61695C96.7156 9.44268 96.7156 10.2684 96.4311 10.5437V10.2684C96.4311 10.2684 96.4311 10.2684 96.7155 10.2684C97 10.2684 97 10.8189 97 11.0941C96.7155 11.0941 96.7155 11.3694 96.7155 11.3694L96.4311 11.6446H96.1466L95.8622 11.9199L94.7243 12.7456L92.1642 14.1218L92.4487 13.2961C92.4487 13.5713 92.7331 13.5713 92.1642 13.2961C92.1642 13.2961 92.4487 13.0208 92.7331 13.5713C93.0176 14.1218 92.7331 14.1218 92.7331 14.1218L92.4487 14.3971H92.1642L91.8798 14.6723L90.4575 15.498C89.3196 16.0485 88.4663 16.3238 87.8974 17.1495C87.044 17.7 86.1906 18.5257 85.3372 19.0762C84.7683 19.3514 84.4839 19.6267 83.915 19.9019C83.6305 19.9019 83.346 20.1772 83.0616 20.1772C82.7771 20.1772 82.2082 20.4524 81.6393 19.9019L82.4927 19.3514C82.7771 19.6267 82.7771 20.4524 82.4927 20.7277C82.2082 21.0029 81.9238 21.2781 81.6393 21.5534C81.0704 22.1039 80.5015 22.3791 79.9326 22.6544C79.3636 22.9296 78.7947 23.2049 78.2258 23.4801C77.9414 23.4801 77.6569 23.7553 77.3724 23.7553C77.088 23.7553 77.088 23.7553 76.8035 23.7553H76.5191C76.5191 23.7553 76.5191 23.7553 76.2346 23.7553C75.9501 23.7553 75.9501 23.4801 75.6657 23.4801L73.1056 20.4524L76.5191 22.6544C77.088 22.9296 77.088 23.7553 76.8035 24.0306C77.088 24.3058 76.8035 24.5811 76.8035 24.8563C76.2346 25.4068 75.9501 25.682 75.3812 25.9573C74.8123 26.2325 74.2434 26.5078 73.6745 26.783C73.39 26.783 73.1056 27.0583 72.8211 27.0583C72.5367 27.0583 71.9678 27.0583 71.6833 26.5078L72.8211 26.2325C72.8211 27.3335 71.9677 28.4345 70.8299 28.985C69.6921 29.5354 68.5543 29.8107 67.7009 29.8107L68.2698 28.7097C68.5543 28.985 68.8387 29.8107 68.5543 30.3612C68.2698 30.9117 67.9853 31.1869 67.7009 31.4622C67.132 32.0126 66.2786 32.0126 65.7097 32.2879C64.5719 32.8384 63.434 33.3889 62.5807 34.4898C60.5894 36.4165 58.5982 38.3432 56.0381 39.9947C54.9003 40.8204 53.7625 41.3709 53.1936 42.4719C52.6246 43.2976 52.0557 44.6738 52.0557 45.7748C52.0557 46.8758 52.3402 48.252 52.3402 49.6282C52.3402 51.0044 52.6246 52.3807 52.6246 53.7569V57.8855C52.6246 58.436 52.6246 59.2617 52.6246 59.8122V60.638C52.6246 60.9132 52.9091 61.4637 52.9091 61.7389C53.1936 63.6656 52.9091 63.9409 53.7625 65.3171L55.1848 69.1705C56.0381 71.6477 56.8915 74.4001 57.7449 76.8773C58.5982 79.6298 59.4516 82.1069 59.4516 85.4099V86.7861L58.0293 87.0613C57.4604 87.0613 57.176 87.0613 56.607 87.0613C56.0381 87.0613 55.4692 86.5108 54.9003 85.9604C54.9003 85.6851 54.3314 85.1346 55.1848 86.2356C55.4692 86.5108 55.7537 86.5108 56.0381 86.5108C56.3226 86.5108 56.8915 86.5108 57.176 86.2356C57.4604 85.9604 57.7449 85.6851 57.7449 85.6851C57.7449 85.4099 57.7449 85.4099 57.7449 85.4099V85.6851L57.4604 87.3366H56.0381C54.9003 87.3366 54.3314 86.7861 53.7625 86.2356C53.1936 85.6851 52.9091 85.1346 52.9091 84.5841C52.9091 84.5841 52.6246 84.3089 53.1936 84.8594C53.1936 84.8594 53.1936 84.8594 53.478 85.1346C53.7625 85.1346 54.0469 85.4099 54.3314 85.4099C54.9003 85.4099 55.4692 85.1346 55.4692 85.1346C55.7537 84.8594 55.7537 84.8594 55.7537 84.8594C55.7537 84.8594 55.7537 85.1346 55.4692 85.4099L54.9003 87.8871L52.6246 86.5108L51.2023 85.4099C50.9179 85.1346 50.349 84.8594 50.0645 84.5841C49.4956 84.0337 48.6422 83.2079 48.0733 82.3822C47.2199 81.006 46.3666 79.6298 45.7977 78.2535C44.3754 75.5011 43.2375 72.7487 42.3842 69.721C41.5308 66.9686 40.6774 63.9409 40.1085 60.9132V60.3627V60.0875C40.1085 59.8122 40.1085 59.537 39.8241 59.2617C39.5396 58.7113 39.2551 58.1608 38.9707 57.6103C38.1173 56.5093 36.9795 54.8578 36.4106 53.4816L39.5396 54.0321C38.9707 54.5826 38.6862 54.8578 38.1173 55.1331C37.8328 55.4083 37.2639 55.4083 36.695 55.4083C36.1261 55.4083 35.2727 55.1331 34.9883 54.8578C34.4194 54.3074 34.4194 54.3074 33.8504 53.7569C33.566 53.2064 33.2815 52.6559 32.9971 52.3807C32.7126 51.8302 32.4282 51.2797 32.1437 50.7292L30.7214 49.0777C28.7302 46.6005 27.0235 44.1234 25.6012 41.0957C25.0323 39.7195 24.1789 38.3432 23.8944 36.6918L23.61 35.3156V34.2146V32.0126L23.3255 23.2049C23.3255 22.1039 22.7566 20.4524 22.4721 19.0762C21.9032 17.7 21.6188 16.0485 21.0499 14.6723C20.7654 13.2961 20.1965 11.9199 19.6276 10.5437C19.0587 9.44268 18.2053 8.34171 17.0674 7.51598C14.7918 5.58927 11.9472 4.4883 9.10264 3.66257C7.68035 3.11208 6.25806 2.83684 4.55132 2.5616C3.12903 2.28635 1.42229 1.73587 0 1.46062ZM0.284458 1.46062C1.9912 1.73587 3.12903 1.46062 4.83578 2.01111C6.25806 2.28635 7.96481 2.5616 9.3871 2.83684C12.5161 3.66257 15.6452 4.4883 18.2053 6.415C19.6276 7.51598 20.4809 8.61695 21.3343 9.99317C22.1877 11.0941 22.7566 12.7456 23.3255 14.1218C23.61 15.498 24.1789 16.8743 24.4633 18.5257C24.7478 19.9019 25.3167 21.2781 25.6012 23.2049C25.8856 26.2325 26.1701 29.2602 26.4545 32.2879L26.739 34.4898V35.5908L27.0235 36.1413C27.3079 37.2423 27.8768 38.6185 28.7302 39.9947C30.1525 42.4719 31.8592 44.9491 33.566 47.151L34.9883 48.8025C35.5572 49.6282 36.1261 50.1787 36.4106 51.0044C36.695 51.5549 36.695 51.5549 36.695 51.5549L37.2639 52.1054L36.695 51.8302C36.4106 51.8302 36.4106 51.8302 36.4106 51.8302L36.695 51.5549L38.6862 49.353L39.8241 52.1054C40.393 53.4816 40.9619 54.3074 41.8153 55.4083C42.3842 56.2341 42.9531 56.7845 43.2375 57.6103C43.522 58.1608 43.522 58.436 43.8065 58.9865C43.8065 59.2617 43.8065 59.537 43.8065 59.8122V60.3627C44.0909 63.1151 44.9443 65.8676 45.7977 68.62C46.651 71.3725 47.7889 74.1249 49.2111 76.6021C49.7801 77.9783 50.6334 79.0793 51.2023 80.4555C51.4868 81.006 51.7713 81.2812 52.3402 81.8317C52.6246 82.1069 52.9091 82.1069 53.1936 82.3822L53.478 82.6574L54.0469 83.2079L51.2023 84.0336C51.2023 83.4832 51.4868 83.2079 51.7713 82.6574C51.7713 82.6574 51.7713 82.3822 52.0557 82.3822C52.0557 82.3822 52.3402 82.1069 52.3402 81.8317C52.3402 81.8317 53.1936 81.2812 53.478 81.2812C53.7625 81.2812 54.0469 81.2812 54.3314 81.5565C54.6158 81.8317 54.6158 81.8317 54.9003 81.8317C55.4692 82.6574 55.4692 82.9327 55.4692 82.9327C55.4692 83.2079 55.4692 83.2079 55.4692 83.2079C55.4692 83.2079 55.4692 83.2079 55.1848 83.2079L53.478 84.5841C53.478 84.3089 53.478 84.0336 53.7625 83.7584C53.7625 83.7584 53.7625 83.4832 54.0469 83.2079C54.0469 83.2079 54.3314 82.9327 54.6158 82.6574C54.9003 82.3822 55.4692 82.3822 56.0381 82.3822C56.3226 82.3822 56.607 82.6574 56.8915 82.9327C57.176 83.2079 57.176 83.2079 57.4604 83.4832V83.7584C57.4604 83.7584 57.4604 84.0336 57.4604 83.7584C57.176 83.4832 56.8915 83.2079 56.8915 83.2079L55.4692 84.8594C55.4692 82.6574 54.9003 79.905 54.0469 77.4278C53.1936 74.9506 52.3402 72.1982 51.4868 69.721L50.349 65.8676L50.0645 64.7666C50.0645 64.4914 49.7801 63.9409 49.7801 63.6656C49.7801 62.8399 49.7801 62.0142 49.4956 61.7389L49.2111 59.537C49.2111 58.7113 49.2111 58.1608 49.2111 57.335V53.2064V49.0777C49.2111 47.7015 48.9267 46.6005 49.2111 44.9491C49.4956 43.2976 50.0645 41.9214 50.9179 40.8204C51.7713 39.4442 53.478 38.6185 54.3314 38.068C56.607 36.6918 58.5982 35.0403 60.5894 33.1136C61.7273 32.0126 62.8651 31.1869 64.2874 30.6364C65.7097 30.3612 67.132 29.8107 66.563 29.2602L65.7097 28.4345H67.132C67.9853 28.4345 69.1232 28.1592 69.9765 27.884C70.8299 27.6087 71.3988 26.783 71.3988 25.9573L72.5367 25.682C72.5367 25.682 72.8211 25.682 73.39 25.682C73.9589 25.4068 74.2434 25.4068 74.8123 25.1316C75.3812 24.8563 75.6657 24.5811 75.9501 24.3058C76.2346 24.0306 76.2346 24.0306 76.2346 23.7553C76.2346 23.4801 76.2346 23.7553 76.2346 23.7553L77.088 22.9296L76.8035 22.6544H77.088C77.6569 22.3791 77.9414 22.3791 78.2258 22.3791C78.7947 22.1039 79.3636 21.8286 79.9326 21.8286C80.5015 21.5534 80.7859 21.2781 81.3548 21.0029C81.9238 20.7277 81.9238 20.4524 81.9238 20.1772L82.4927 19.3514C82.2082 19.3514 82.4927 19.3514 82.7771 19.3514C83.0616 19.3514 83.346 19.0762 83.346 19.0762C83.915 18.801 84.1994 18.5257 84.7683 18.2505C85.6217 17.7 86.4751 17.1495 87.3285 16.3238C88.1818 15.498 89.3197 14.9475 90.173 14.6723L91.5953 13.8466L91.8798 13.5713H92.1642C92.1642 13.5713 91.8798 13.5713 91.8798 13.8466C91.8798 13.8466 91.5953 13.8466 91.8798 14.3971C92.1642 14.9475 92.7331 14.6723 92.4487 14.6723C91.8798 14.6723 91.5953 14.3971 91.5953 14.1218C91.5953 13.8466 91.3109 13.8466 91.3109 13.5713L91.0264 13.0208L91.5953 12.7456C92.4487 12.1951 93.0176 11.9199 93.871 11.3694L95.0088 10.5437L95.2933 10.2684C95.2933 10.2684 95.2933 10.2684 95.0088 10.5437C95.0088 10.8189 95.0088 11.0941 95.2933 11.3694C95.5777 11.3694 95.5777 11.3694 95.2933 11.3694C95.2933 11.3694 95.2933 11.3694 95.0088 11.3694L94.7243 11.0941C94.7243 10.8189 94.4399 10.8189 94.4399 10.8189C94.4399 10.5437 94.4399 10.5437 94.4399 10.2684V9.99317V10.5437C94.4399 10.5437 94.4399 10.5437 94.1554 10.5437C93.871 10.5437 93.5865 10.2684 93.3021 10.2684C92.7331 10.2684 92.1642 9.99317 91.5953 9.99317C90.4575 9.99317 89.0352 9.71793 87.8974 9.71793C85.3372 9.71793 82.7771 9.71792 80.217 9.99317C79.6481 9.99317 78.7947 10.2684 77.9414 10.2684C77.088 10.2684 76.5191 10.2684 75.6657 9.99317C74.2434 9.71792 73.39 9.44268 71.9677 9.44268C69.4076 9.44268 67.132 9.71792 64.5719 9.99317C59.7361 11.0941 54.9003 12.7456 50.349 15.2228C45.7977 17.4247 41.2463 19.9019 37.2639 23.2049L35.8416 24.3058L36.1261 22.3791L34.9883 20.1772V19.9019V19.6267C34.9883 16.8743 34.9883 14.3971 33.8504 12.1951C32.9971 9.99317 31.0059 8.61695 28.7302 7.79122H29.0147L25.0323 7.51598C23.8944 7.51598 22.4721 7.51598 21.0499 6.96549C19.912 6.415 18.7742 5.58927 17.6364 5.03879C16.783 4.4883 15.6452 4.21306 14.5073 3.66257C12.2317 2.5616 9.95601 2.01111 7.39589 1.46062C6.25806 1.18538 5.12023 1.18538 3.9824 1.18538C2.56012 0.910135 1.42229 1.46062 0.284458 1.46062Z" fill="black" fill-opacity="0.03"/>
</svg>
