<svg width="125" height="45" fill="none" xmlns="http://www.w3.org/2000/svg"><g clip-path="url(#clip0_670_2429)" fill="#fff"><path d="M56.03 17.516h-6.115l-2.702 4.557h-.57L53.47 10.11h.142l6.968 11.962h-1.99l-2.56-4.557zm-3.13-4.984l-2.56 4.414h5.546l-2.56-4.414H52.9zm9.102 9.541V10.11h5.12c.853 0 1.706.142 2.56.285.853.284 1.706.57 2.275 1.139.71.427 1.28 1.14 1.706 1.851.427.712.711 1.709.711 2.706 0 .997-.284 1.851-.71 2.706-.427.712-.996 1.424-1.707 1.85-.711.428-1.422.855-2.275 1.14a8.042 8.042 0 01-2.56.427h-5.12v-.142zm1.707-11.535v11.108h3.413c.853 0 1.706-.143 2.417-.428a5.114 5.114 0 001.707-1.139c.426-.427.853-1.139.995-1.709a5.72 5.72 0 00.427-2.136c0-.712-.142-1.566-.427-2.136-.284-.712-.569-1.282-1.137-1.851-.427-.57-.996-.854-1.707-1.282-.71-.284-1.422-.427-2.417-.427h-3.271zm21.189 2.991l-.285.57h-6.4v7.547H87.6l-.285.57H76.507V10.11H86.89l-.285.57h-8.39v2.848h6.684zm9.67.569H90.87v7.975h-1.706V10.11h8.39c.427 0 .711 0 .995.142.285.143.57.143.854.285.284.143.426.427.569.57.142.284.142.57.142.996 0 .428 0 .713-.142.997a1.111 1.111 0 01-.57.57c-.284.142-.568.285-.853.285-.284 0-.71.142-.995.142h-1.138l4.693 7.975h-1.99l-4.551-7.975zm-3.698-.57h6.97c.142 0 .284-.142.426-.142.142-.142.142-.285.142-.427v-1.424c0-.143-.142-.427-.142-.427-.142-.143-.142-.143-.427-.285-.284-.143-.426-.143-.71-.143H90.87v2.849zm20.194-3.418h.569l-4.124 7.264v4.699h-1.707v-4.557l-4.266-7.405h1.991l3.839 6.55 3.698-6.55zm13.225 10.112h.142V10.11H125v11.962h-1.422l-9.67-11.393h-.569v11.393h-.569V10.11h2.844l8.675 10.11zM56.03 34.605h-6.115l-2.702 4.556h-.57L53.47 27.2h.142l6.968 11.962h-1.99l-2.56-4.556zM52.9 29.62l-2.56 4.415h5.546l-2.56-4.415H52.9zm15.075 1.567h-3.697v7.974H62.57V27.2h8.39c.427 0 .711 0 .996.143.284.142.569.142.853.285.284.142.427.427.569.57.142.284.142.569.142.996 0 .427 0 .712-.142.997a1.111 1.111 0 01-.569.57c-.285.142-.569.284-.853.284-.285 0-.711.143-.996.143h-1.137l4.692 7.974h-1.99l-4.551-7.974zm-3.697-.57h6.967c.143 0 .285-.142.427-.142.142-.143.142-.285.142-.427v-1.424c0-.143-.142-.428-.142-.428-.142-.142-.142-.142-.426-.285-.285-.142-.427-.142-.711-.142h-6.257v2.848zm21.615-2.847h-4.835v11.39h-1.564V27.77h-5.12l.285-.57h11.518l-.284.57zM0 .57C1.28-.142 2.56 0 3.84.142 5.12.285 6.4.57 7.537.997c.569.142 1.138.427 1.706.712.57.285 1.138.57 1.565.854.569.143 1.137.143 1.848.143h1.85c.71.142 1.421.57 2.132.997a4.625 4.625 0 011.422 1.85c.57 1.425.57 2.991.711 4.273l-.142-.285.569 1.14-1.138-.285a41.738 41.738 0 016.684-4.415c2.418-1.282 4.835-2.136 7.537-2.706 1.28-.284 2.702-.427 4.124-.284.711 0 1.422.284 1.99.427.285.142.57.142.854.142.285 0 .427 0 .853-.142 1.423-.143 2.702-.143 3.982 0 .711 0 1.28.142 1.991.285.284 0 .711.142.995.142.143 0 .285.142.57.142.142 0 .142.143.284.285.426.427.426.855.284.997v-.142h.142c.143 0 .143.284.143.427-.143 0-.143.142-.143.142l-.142.143h-.142l-.142.142-.57.427-1.279.712.142-.427c0 .142.142.142-.142 0 0 0 .142-.142.284.142.143.285 0 .285 0 .285l-.142.143h-.142l-.142.142-.711.427c-.569.285-.996.427-1.28.855-.427.285-.853.712-1.28.997-.284.142-.426.284-.71.427-.143 0-.285.142-.427.142-.143 0-.427.143-.712-.142l.427-.285c.142.142.142.57 0 .712l-.427.427c-.284.285-.568.427-.853.57l-.853.427c-.142 0-.285.142-.427.142h-.568c-.143 0-.143-.142-.285-.142l-1.28-1.566 1.707 1.139c.284.142.284.57.142.712.142.142 0 .285 0 .427-.285.285-.427.427-.711.57l-.853.427c-.143 0-.285.142-.427.142-.142 0-.427 0-.569-.285l.569-.142c0 .57-.427 1.14-.995 1.424-.57.285-1.138.427-1.565.427l.285-.57c.142.143.284.57.142.855-.142.285-.285.427-.427.57-.284.285-.71.285-.995.427-.569.285-1.138.57-1.564 1.14-.996.996-1.991 1.993-3.271 2.847-.569.427-1.138.712-1.422 1.282-.285.427-.57 1.14-.57 1.709 0 .57.143 1.282.143 1.994s.142 1.424.142 2.136v3.56c0 .142.143.427.143.57.142.996 0 1.139.426 1.85l.711 1.994c.427 1.282.853 2.706 1.28 3.988.427 1.424.853 2.705.853 4.414v.712l-.71.143h-.712c-.284 0-.569-.285-.853-.57 0-.142-.285-.427.142.142.142.143.285.143.427.143.142 0 .426 0 .569-.143l.284-.284v-.143.143l-.142.854h-.711c-.569 0-.854-.285-1.138-.57-.284-.284-.426-.57-.426-.854l.142.142.142.143c.142 0 .284.142.427.142.284 0 .568-.142.568-.142l.143-.143s0 .143-.143.285l-.284 1.282-1.138-.712-.71-.57c-.143-.142-.427-.285-.57-.427-.284-.285-.71-.712-.995-1.14-.427-.711-.853-1.423-1.138-2.135a23.641 23.641 0 01-1.706-4.415c-.427-1.424-.853-2.99-1.138-4.557v-.427c0-.143 0-.285-.142-.427l-.427-.855c-.426-.57-.995-1.424-1.28-2.136l1.565.285c-.285.285-.427.427-.711.57-.143.142-.427.142-.711.142-.285 0-.711-.142-.854-.285l-.568-.57c-.143-.284-.285-.569-.427-.712l-.427-.854-.71-.854c-.996-1.282-1.85-2.564-2.56-4.13-.285-.712-.711-1.424-.854-2.279l-.142-.712v-1.708l-.142-4.557c0-.57-.284-1.424-.427-2.136-.284-.712-.426-1.567-.71-2.279-.143-.712-.427-1.424-.712-2.136a4.45 4.45 0 00-1.28-1.566c-1.137-.997-2.56-1.567-3.981-1.994-.711-.285-1.422-.427-2.276-.57C1.565.997.711.712 0 .57zm.142 0c.853.142 1.422 0 2.276.284.71.143 1.564.285 2.275.428 1.564.427 3.128.854 4.408 1.85.711.57 1.138 1.14 1.564 1.852.427.57.712 1.424.996 2.136.142.712.427 1.424.569 2.279.142.712.426 1.424.569 2.42l.426 4.7.143 1.14v.569l.142.285c.142.57.426 1.281.853 1.993a33.135 33.135 0 002.417 3.703l.711.854c.285.428.57.712.712 1.14l.142.284.284.285-.284-.142h-.142l.142-.143.995-1.139.569 1.424c.284.712.569 1.14.995 1.709.285.427.57.712.712 1.14.142.284.142.427.284.711v.712c.142 1.424.569 2.848.995 4.272.427 1.424.996 2.849 1.707 4.13.284.712.71 1.282.995 1.994.142.285.285.427.57.712.141.142.284.142.426.285l.142.142.284.285-1.422.427c0-.285.142-.427.285-.712 0 0 0-.142.142-.142 0 0 .142-.143.142-.285 0 0 .427-.285.569-.285.142 0 .284 0 .427.143.142.142.142.142.284.142.284.427.284.57.284.57v.142h-.142l-.853.712c0-.142 0-.285.142-.427 0 0 0-.143.142-.285l.285-.285c.142-.142.426-.142.71-.142.143 0 .285.142.427.285l.285.284v.143s0 .142 0 0l-.285-.285-.71.854c0-1.139-.285-2.563-.712-3.845-.426-1.281-.853-2.705-1.28-3.987l-.568-1.994-.143-.57c0-.142-.142-.426-.142-.569 0-.427 0-.854-.142-.997l-.142-1.139v-5.411c0-.712-.142-1.282 0-2.136.142-.855.426-1.567.853-2.137.427-.712 1.28-1.139 1.707-1.424 1.137-.712 2.133-1.566 3.128-2.563.569-.57 1.138-.997 1.849-1.282.71-.142 1.422-.427 1.137-.711l-.426-.428h.71c.427 0 .996-.142 1.423-.284a1.07 1.07 0 00.711-.997l.569-.143h.426c.285-.142.427-.142.712-.285.284-.142.426-.284.568-.427.142-.142.142-.142.142-.285 0-.142 0 0 0 0l.427-.427-.142-.142h.142c.285-.143.427-.143.569-.143.284-.142.569-.284.853-.284.285-.143.427-.285.711-.428.285-.142.285-.284.285-.427l.284-.427h.142c.143 0 .285-.142.285-.142.284-.143.426-.285.71-.428.427-.284.854-.57 1.28-.997.427-.427.996-.712 1.423-.854l.71-.427.143-.143h.142s-.142 0-.142.143c0 0-.142 0 0 .285.142.284.426.142.284.142-.284 0-.426-.142-.426-.285 0-.142-.142-.142-.142-.285l-.143-.284.285-.143c.426-.285.71-.427 1.137-.712l.57-.427.141-.142-.142.142c0 .142 0 .285.142.427.143 0 .143 0 0 0h-.142l-.142-.142c0-.143-.142-.143-.142-.143v-.427.285h-.142c-.143 0-.285-.142-.427-.142-.285 0-.569-.143-.853-.143-.57 0-1.28-.142-1.849-.142-1.28 0-2.56 0-3.84.142-.284 0-.71.143-1.137.143-.427 0-.711 0-1.138-.143-.711-.142-1.138-.285-1.849-.285-1.28 0-2.417.143-3.697.285-2.418.57-4.835 1.424-7.11 2.706-2.276 1.14-4.551 2.42-6.542 4.13l-.71.57.141-.998-.569-1.139v-.285c0-1.424 0-2.705-.568-3.845-.427-1.139-1.422-1.85-2.56-2.278h.142l-1.99-.142c-.57 0-1.28 0-1.992-.285-.569-.285-1.137-.712-1.706-.997-.427-.285-.996-.427-1.564-.712-1.138-.57-2.276-.855-3.556-1.14C3.13.428 2.56.428 1.991.428 1.28.285.71.57.142.57z"/></g><defs><clipPath id="clip0_670_2429"><path fill="#fff" d="M0 0h125v45H0z"/></clipPath></defs></svg>