<svg width="97" height="88" fill="none" xmlns="http://www.w3.org/2000/svg"><path d="M0 1.46C2.56.085 5.12.36 7.68.636c2.56.275 5.12.826 7.396 1.651 1.138.276 2.276.826 3.414 1.377 1.138.55 2.275 1.1 3.129 1.651 1.138.275 2.275.275 3.698.275h3.698c1.422.276 2.844 1.101 4.267 1.927 1.137.826 2.275 2.202 2.844 3.578 1.138 2.753 1.138 5.78 1.422 8.257l-.284-.55 1.138 2.202-2.276-.55c4.267-3.303 8.534-6.056 13.37-8.533 4.835-2.477 9.671-4.129 15.076-5.23 2.56-.55 5.404-.825 8.25-.55 1.421 0 2.844.55 3.981.825.57.276 1.138.276 1.707.276.57 0 .854 0 1.707-.276 2.845-.275 5.405-.275 7.965 0 1.422 0 2.56.276 3.982.551.57 0 1.422.275 1.991.275.285 0 .57.275 1.138.275.285 0 .285.276.57.55.853.827.853 1.652.568 1.928v-.276h.285c.284 0 .284.55.284.826-.284 0-.284.275-.284.275l-.285.276h-.284l-.285.275-1.138.826-2.56 1.376.285-.826c0 .275.284.275-.285 0 0 0 .285-.275.57.275.284.55 0 .55 0 .55l-.285.276h-.285l-.284.275-1.422.826c-1.138.55-1.992.826-2.56 1.652-.854.55-1.707 1.376-2.56 1.926-.57.275-.854.55-1.423.826-.285 0-.569.275-.853.275-.285 0-.854.275-1.423-.275l.854-.55c.284.275.284 1.1 0 1.376l-.854.825c-.569.55-1.138.826-1.706 1.101l-1.707.826c-.285 0-.57.275-.854.275h-1.137c-.285 0-.285-.275-.57-.275l-2.56-3.028 3.414 2.202c.569.276.569 1.101.284 1.377.285.275 0 .55 0 .825-.568.55-.853.826-1.422 1.101l-1.707.826c-.284 0-.568.275-.853.275-.284 0-.853 0-1.138-.55l1.138-.275c0 1.1-.853 2.201-1.991 2.752-1.138.55-2.276.826-3.13.826l.57-1.101c.284.275.569 1.1.284 1.651-.284.55-.569.826-.853 1.101-.569.55-1.422.55-1.991.826-1.138.55-2.276 1.1-3.13 2.202-1.99 1.926-3.982 3.853-6.542 5.505-1.138.825-2.275 1.376-2.844 2.477-.57.826-1.138 2.202-1.138 3.303 0 1.1.284 2.477.284 3.853 0 1.376.285 2.753.285 4.129v6.88c0 .275.284.826.284 1.1.285 1.928 0 2.203.854 3.58l1.422 3.853c.853 2.477 1.706 5.23 2.56 7.706.853 2.753 1.707 5.23 1.707 8.533v1.376l-1.423.275h-1.422c-.569 0-1.138-.55-1.707-1.1 0-.276-.569-.826.285.275.284.275.569.275.853.275.285 0 .854 0 1.138-.275.284-.276.569-.55.569-.55v-.276.275l-.285 1.652h-1.422c-1.138 0-1.707-.55-2.275-1.101-.57-.55-.854-1.101-.854-1.652l.285.275.284.276c.285 0 .569.275.853.275.57 0 1.138-.275 1.138-.275l.285-.276s0 .276-.285.55l-.569 2.478-2.275-1.376-1.423-1.101c-.284-.275-.853-.55-1.137-.826-.57-.55-1.423-1.376-1.992-2.202-.853-1.376-1.706-2.752-2.275-4.129-1.423-2.752-2.56-5.504-3.414-8.532-.853-2.752-1.707-5.78-2.276-8.808v-.826c0-.275 0-.55-.284-.825l-.853-1.652c-.854-1.1-1.991-2.752-2.56-4.128l3.129.55c-.57.55-.854.826-1.423 1.101-.284.275-.853.275-1.422.275s-1.422-.275-1.707-.55l-1.138-1.101c-.284-.55-.569-1.101-.853-1.376l-.853-1.652-1.423-1.651c-1.99-2.478-3.698-4.955-5.12-7.982-.569-1.377-1.422-2.753-1.707-4.404l-.284-1.376v-3.303l-.284-8.808c0-1.101-.57-2.753-.854-4.129-.569-1.376-.853-3.027-1.422-4.404-.285-1.376-.854-2.752-1.422-4.128-.57-1.101-1.423-2.202-2.56-3.028-2.276-1.927-5.12-3.028-7.965-3.853-1.423-.55-2.845-.826-4.552-1.101C3.13 2.286 1.422 1.736 0 1.46zm.284 0c1.707.276 2.845 0 4.552.551 1.422.275 3.129.55 4.551.826 3.13.826 6.258 1.651 8.818 3.578 1.423 1.101 2.276 2.202 3.13 3.578.853 1.101 1.422 2.753 1.99 4.129.285 1.376.854 2.752 1.138 4.404.285 1.376.854 2.752 1.138 4.679l.854 9.083.284 2.202v1.1l.284.551c.285 1.101.854 2.477 1.707 3.854 1.422 2.477 3.13 4.954 4.836 7.156l1.422 1.651c.57.826 1.138 1.377 1.423 2.202l.284.55.569.551-.569-.275h-.284l.284-.275 1.991-2.202 1.138 2.752c.569 1.377 1.138 2.202 1.991 3.303.57.826 1.138 1.377 1.422 2.202.285.55.285.826.57 1.377v1.375c.284 2.753 1.137 5.506 1.99 8.258.854 2.752 1.992 5.505 3.414 7.982.57 1.376 1.422 2.477 1.991 3.853.285.551.57.826 1.138 1.377.285.275.57.275.854.55l.284.275.569.55-2.845.827c0-.55.285-.826.57-1.377 0 0 0-.275.284-.275 0 0 .284-.275.284-.55 0 0 .854-.55 1.138-.55.285 0 .569 0 .853.275.285.275.285.275.57.275.568.825.568 1.1.568 1.1v.276h-.284l-1.707 1.376c0-.275 0-.55.285-.826 0 0 0-.275.284-.55l.569-.55c.284-.276.853-.276 1.422-.276.285 0 .569.275.854.55l.568.551v.275s0 .276 0 0l-.569-.55-1.422 1.651c0-2.202-.569-4.954-1.422-7.431-.853-2.477-1.707-5.23-2.56-7.707l-1.138-3.853-.284-1.101c0-.276-.285-.826-.285-1.101 0-.826 0-1.652-.284-1.927l-.285-2.202V49.078c0-1.377-.284-2.478 0-4.129.285-1.651.854-3.028 1.707-4.129.853-1.376 2.56-2.202 3.413-2.752 2.276-1.376 4.267-3.028 6.258-4.954 1.138-1.101 2.276-1.927 3.698-2.478 1.423-.275 2.845-.825 2.276-1.376l-.853-.826h1.422c.853 0 1.991-.275 2.844-.55.854-.275 1.423-1.101 1.423-1.927l1.138-.275h.853c.569-.275.853-.275 1.422-.55.57-.276.854-.55 1.138-.826.285-.275.285-.275.285-.55 0-.276 0 0 0 0l.853-.826-.284-.276h.284c.569-.275.853-.275 1.138-.275.569-.275 1.138-.55 1.707-.55.568-.276.853-.55 1.422-.826.569-.275.569-.55.569-.826l.569-.826h.284c.285 0 .569-.275.569-.275.569-.275.853-.55 1.422-.826.854-.55 1.707-1.1 2.56-1.926.854-.826 1.992-1.377 2.845-1.652l1.422-.825.285-.276h.284s-.284 0-.284.276c0 0-.285 0 0 .55.284.55.853.275.569.275-.57 0-.854-.275-.854-.55s-.284-.275-.284-.55l-.285-.551.57-.275c.853-.55 1.422-.826 2.275-1.377l1.138-.825.284-.276-.284.276c0 .275 0 .55.284.825.285 0 .285 0 0 0h-.284l-.285-.275c0-.275-.284-.275-.284-.275v-.826.55h-.285c-.284 0-.569-.275-.853-.275-.569 0-1.138-.275-1.707-.275-1.138 0-2.56-.275-3.698-.275-2.56 0-5.12 0-7.68.275-.569 0-1.422.275-2.276.275-.853 0-1.422 0-2.275-.275-1.423-.275-2.276-.55-3.698-.55-2.56 0-4.836.275-7.396.55-4.836 1.101-9.672 2.753-14.223 5.23-4.551 2.202-9.103 4.679-13.085 7.982l-1.422 1.1.284-1.926-1.138-2.202v-.55c0-2.753 0-5.23-1.138-7.432-.853-2.202-2.844-3.578-5.12-4.404h.285l-3.983-.275c-1.138 0-2.56 0-3.982-.55-1.138-.551-2.276-1.377-3.414-1.927-.853-.55-1.99-.826-3.129-1.376C12.232 2.562 9.956 2.01 7.396 1.46c-1.138-.276-2.276-.276-3.414-.276C2.56.909 1.422 1.46.284 1.46z" fill="#000" fill-opacity=".03"/></svg>