<svg width="121" height="43" fill="none" xmlns="http://www.w3.org/2000/svg"><g clip-path="url(#clip0_670_2341)" fill="#48412F"><path d="M54.237 16.737h-5.92l-2.615 4.355h-.55l6.607-11.43h.138l6.745 11.43h-1.928l-2.477-4.355zm-3.029-4.762l-2.478 4.218h5.37l-2.478-4.218h-.413zm8.81 9.117V9.662h4.956c.826 0 1.652.135 2.478.272.826.272 1.652.544 2.202 1.088.689.408 1.24 1.089 1.652 1.77.413.68.688 1.632.688 2.585 0 .952-.275 1.769-.688 2.585-.413.68-.963 1.36-1.652 1.769-.688.408-1.376.816-2.202 1.089a7.876 7.876 0 01-2.478.408h-4.956v-.136zM61.67 10.07v10.613h3.304c.826 0 1.652-.136 2.34-.408a4.955 4.955 0 001.652-1.088c.413-.409.826-1.089.964-1.633a5.41 5.41 0 00.412-2.041c0-.68-.137-1.497-.412-2.041-.276-.68-.551-1.225-1.102-1.77-.413-.544-.963-.816-1.652-1.224-.688-.272-1.376-.408-2.34-.408H61.67zm20.51 2.857l-.274.545H75.71v7.211h9.085l-.275.545H74.06V9.66h10.05l-.276.545H75.71v2.721h6.47zm9.361.545h-3.579v7.62h-1.651V9.662h8.121c.413 0 .689 0 .964.135.275.137.55.137.826.273.275.136.413.408.55.544.138.272.138.544.138.952 0 .409 0 .68-.138.953a1.069 1.069 0 01-.55.544c-.275.136-.55.272-.826.272-.275 0-.688.136-.964.136h-1.101l4.543 7.62h-1.927l-4.406-7.62zm-3.579-.545h6.746c.137 0 .275-.136.413-.136.137-.136.137-.272.137-.408v-1.36c0-.137-.137-.41-.137-.41-.138-.135-.138-.135-.413-.271-.276-.136-.413-.136-.689-.136h-6.057v2.721zm19.548-3.266h.55l-3.992 6.94v4.49h-1.651v-4.354l-4.13-7.076h1.927l3.717 6.26 3.579-6.26zm12.802 9.662h.137V9.66H121v11.43h-1.377l-9.36-10.885h-.551v10.886h-.55V9.662h2.753l8.397 9.66zM54.237 33.066h-5.92l-2.615 4.355h-.55l6.607-11.43h.138l6.745 11.43h-1.928l-2.477-4.355zm-3.029-4.762l-2.478 4.218h5.37l-2.478-4.218h-.413zM65.8 29.8h-3.58v7.62h-1.65V25.99h8.122c.413 0 .688 0 .963.137.276.136.55.136.826.272.275.136.413.408.55.544.138.272.138.544.138.952 0 .409 0 .68-.137.953a1.069 1.069 0 01-.55.544c-.276.137-.551.273-.827.273-.275 0-.688.136-.963.136H67.59l4.543 7.62h-1.927L65.8 29.8zm-3.58-.544h6.747c.138 0 .275-.136.413-.136.137-.136.137-.272.137-.408v-1.36c0-.137-.137-.409-.137-.409-.138-.136-.138-.136-.413-.272-.275-.136-.413-.136-.688-.136H62.22v2.721zm20.925-2.721h-4.68V37.42H76.95V26.535h-4.956l.276-.544h11.15l-.275.544zM0 .544C1.239-.136 2.478 0 3.717.136c1.239.136 2.478.408 3.579.816.55.137 1.101.409 1.652.68.55.273 1.1.545 1.514.817.55.136 1.101.136 1.79.136h1.789c.688.136 1.377.545 2.065.953.55.408 1.101 1.089 1.376 1.769.551 1.36.551 2.857.689 4.082l-.138-.272.55 1.089-1.1-.273a40.482 40.482 0 016.47-4.218c2.34-1.225 4.68-2.041 7.295-2.585 1.239-.272 2.616-.409 3.992-.272.688 0 1.377.272 1.927.408.276.136.55.136.826.136.276 0 .413 0 .826-.136a18.235 18.235 0 013.854 0c.689 0 1.24.136 1.928.272.275 0 .688.136.963.136.138 0 .276.136.55.136.139 0 .139.136.276.272.413.408.413.817.276.953v-.136h.137c.138 0 .138.272.138.408-.138 0-.138.136-.138.136l-.137.136h-.138l-.138.136-.55.408-1.24.68.138-.407c0 .136.138.136-.137 0 0 0 .137-.137.275.136.138.272 0 .272 0 .272l-.138.136h-.137l-.138.136-.688.408c-.55.272-.964.408-1.24.817-.412.272-.825.68-1.238.952-.275.136-.413.272-.688.408-.138 0-.276.136-.413.136-.138 0-.413.136-.689-.136l.413-.272c.138.136.138.544 0 .68l-.413.409c-.275.272-.55.408-.825.544l-.827.408c-.137 0-.275.136-.412.136h-.551c-.138 0-.138-.136-.275-.136l-1.24-1.497 1.653 1.09c.275.135.275.543.137.68.138.136 0 .272 0 .408-.275.272-.413.408-.688.544l-.826.408c-.138 0-.275.136-.413.136-.138 0-.413 0-.55-.272l.55-.136c0 .544-.413 1.089-.964 1.36-.55.273-1.1.41-1.514.41l.276-.545c.137.136.275.544.137.816-.137.272-.275.408-.413.544-.275.273-.688.273-.963.409-.551.272-1.102.544-1.515 1.088-.963.953-1.927 1.905-3.166 2.722-.55.408-1.1.68-1.376 1.225-.276.408-.55 1.088-.55 1.633 0 .544.137 1.224.137 1.905 0 .68.137 1.36.137 2.04v3.404c0 .136.138.408.138.544.138.952 0 1.088.413 1.769l.688 1.905c.413 1.225.826 2.585 1.24 3.81.412 1.36.825 2.585.825 4.218v.68l-.688.137h-.688c-.276 0-.551-.272-.826-.544 0-.136-.276-.409.137.136.138.136.276.136.413.136.138 0 .413 0 .55-.136.139-.136.276-.273.276-.273v-.136.137l-.137.816h-.689c-.55 0-.826-.272-1.1-.544-.276-.273-.414-.545-.414-.817l.138.136.137.136c.138 0 .276.136.413.136.276 0 .551-.136.551-.136l.138-.136s0 .136-.138.272l-.275 1.225-1.102-.68-.688-.545c-.137-.136-.413-.272-.55-.408-.276-.272-.689-.68-.964-1.088-.413-.68-.826-1.361-1.101-2.042a22.415 22.415 0 01-1.652-4.218c-.413-1.36-.826-2.857-1.101-4.354v-.41c0-.136 0-.272-.138-.408l-.413-.816c-.413-.545-.964-1.361-1.239-2.041l1.514.272c-.275.272-.413.408-.688.544-.138.136-.413.136-.688.136-.276 0-.689-.136-.826-.272l-.55-.544c-.139-.273-.276-.545-.414-.68l-.413-.817-.688-.817c-.964-1.224-1.79-2.449-2.478-3.946-.275-.68-.688-1.36-.826-2.177l-.138-.68v-1.633l-.137-4.355c0-.544-.276-1.36-.413-2.04-.275-.681-.413-1.498-.688-2.178-.138-.68-.413-1.36-.689-2.041A4.264 4.264 0 008.26 3.538c-1.1-.953-2.477-1.497-3.854-1.905-.688-.272-1.377-.408-2.203-.544C1.515.952.689.68 0 .544zm.138 0c.826.136 1.376 0 2.202.272.688.136 1.514.273 2.203.409 1.514.408 3.028.816 4.267 1.769.688.544 1.101 1.088 1.514 1.769.413.544.688 1.36.964 2.04.137.681.413 1.361.55 2.178.138.68.413 1.36.551 2.313l.413 4.49.138 1.09v.544l.137.272a7.25 7.25 0 00.826 1.905 31.612 31.612 0 002.34 3.538l.689.816c.275.409.55.68.688 1.089l.138.272.275.272-.275-.136h-.138l.138-.136.963-1.089.55 1.361c.276.68.552 1.089.964 1.633.276.408.551.68.689 1.089.137.272.137.408.275.68v.681c.138 1.36.55 2.721.964 4.082.413 1.36.963 2.721 1.652 3.946.275.68.688 1.225.963 1.905.138.272.276.408.55.68.138.136.276.136.414.273l.137.136.276.272-1.377.408c0-.272.138-.408.276-.68 0 0 0-.136.137-.136 0 0 .138-.137.138-.273 0 0 .413-.272.55-.272.138 0 .276 0 .413.136.138.136.138.136.276.136.275.409.275.545.275.545v.136h-.138l-.826.68c0-.136 0-.272.138-.408 0 0 0-.136.138-.272l.275-.272c.138-.136.413-.136.688-.136.138 0 .276.136.413.272l.276.272v.136s0 .136 0 0l-.276-.272-.688.816c0-1.088-.275-2.45-.688-3.674-.413-1.224-.826-2.585-1.24-3.81l-.55-1.905-.137-.544c0-.136-.138-.409-.138-.545 0-.408 0-.816-.138-.952l-.137-1.089v-5.171c0-.68-.138-1.224 0-2.04.137-.817.412-1.498.825-2.042.413-.68 1.24-1.088 1.652-1.36 1.102-.681 2.065-1.498 3.029-2.45.55-.544 1.101-.953 1.79-1.225.688-.136 1.376-.408 1.1-.68l-.412-.408h.688c.413 0 .963-.136 1.377-.273.413-.135.688-.544.688-.952l.55-.136h.413c.276-.136.413-.136.689-.272.275-.136.413-.272.55-.409.138-.135.138-.135.138-.272 0-.136 0 0 0 0l.413-.408-.138-.136h.138c.275-.136.413-.136.55-.136.276-.136.551-.272.827-.272.275-.136.412-.272.688-.408.275-.136.275-.273.275-.409l.275-.408h.138c.138 0 .275-.136.275-.136.276-.136.413-.272.689-.408.413-.272.826-.544 1.239-.953.412-.408.963-.68 1.376-.816l.688-.408.138-.136h.138s-.138 0-.138.136c0 0-.138 0 0 .272s.413.136.275.136c-.275 0-.413-.136-.413-.272s-.137-.136-.137-.272l-.138-.273.275-.136c.413-.272.689-.408 1.102-.68l.55-.408.138-.136-.138.136c0 .136 0 .272.138.408.138 0 .138 0 0 0h-.138l-.137-.136c0-.136-.138-.136-.138-.136v-.408.272h-.138c-.137 0-.275-.136-.413-.136-.275 0-.55-.136-.826-.136-.55 0-1.239-.136-1.79-.136-1.238 0-2.477 0-3.716.136-.275 0-.688.136-1.101.136-.413 0-.688 0-1.101-.136-.689-.136-1.102-.273-1.79-.273-1.239 0-2.34.137-3.579.273-2.34.544-4.68 1.36-6.883 2.585-2.202 1.089-4.405 2.313-6.332 3.946l-.688.544.137-.952-.55-1.089v-.272c0-1.36 0-2.585-.55-3.674-.414-1.088-1.377-1.769-2.479-2.177h.138l-1.927-.136c-.55 0-1.24 0-1.927-.272-.551-.272-1.102-.68-1.652-.953-.413-.272-.964-.408-1.515-.68C5.92 1.089 4.818.816 3.58.544 3.027.408 2.477.408 1.926.408 1.24.272.688.544.137.544z"/></g><defs><clipPath id="clip0_670_2341"><path fill="#fff" d="M0 0h121v43H0z"/></clipPath></defs></svg>